{
 "cells": [
  {
   "cell_type": "markdown",
   "metadata": {},
   "source": [
    "# Color with music\n",
    "\n",
    "This project will work with the following element:\n",
    "- midi keyboard as inputs\n",
    "- pygame as screen, real-time updates"
   ]
  },
  {
   "cell_type": "code",
   "execution_count": 1,
   "metadata": {},
   "outputs": [],
   "source": [
    "import mido\n",
    "from mido import MidiFile"
   ]
  },
  {
   "cell_type": "code",
   "execution_count": null,
   "metadata": {},
   "outputs": [],
   "source": [
    "msg = mido.Message('note_on', note=60)\n",
    "msg.type"
   ]
  },
  {
   "cell_type": "code",
   "execution_count": null,
   "metadata": {},
   "outputs": [],
   "source": [
    "msg.note"
   ]
  },
  {
   "cell_type": "code",
   "execution_count": null,
   "metadata": {},
   "outputs": [],
   "source": [
    "msg.bytes()"
   ]
  },
  {
   "cell_type": "code",
   "execution_count": null,
   "metadata": {},
   "outputs": [],
   "source": [
    "midi_file_path = 'SuperMarioBrothers.mid'\n",
    "mid = MidiFile(midi_file_path)"
   ]
  },
  {
   "cell_type": "code",
   "execution_count": null,
   "metadata": {},
   "outputs": [],
   "source": [
    "for i, track in enumerate(mid.tracks):\n",
    "    print('Track {}: {}'.format(i, track.name))\n",
    "    for msg in track:\n",
    "        print(msg)"
   ]
  },
  {
   "cell_type": "code",
   "execution_count": null,
   "metadata": {},
   "outputs": [],
   "source": [
    "for msg in mid.play():\n",
    "    bytes = msg.bytes()\n",
    "    print(f\"length: {len(bytes)}\")\n",
    "    print(f\"bytes: {bytes}\")\n",
    "    print(f\"message: {msg}\")\n",
    "    print(\"================================\")"
   ]
  },
  {
   "cell_type": "markdown",
   "metadata": {},
   "source": [
    "## Version 0.1 (POC)\n",
    "a `Message` has a few noteworthy properties that might be useful:\n",
    "- `Note` (int): The midi number (could be translated to a musical note: 57 is `A3` in musical terms)\n",
    "- `type` (Enum): indicates what type of input is used. Focus only on `note_on` and `note_off` for now?\n",
    "- `channel` (int): will not be used in the final version because it will only have a single channel?\n",
    "- `velocity` (int): indicates the velocity of note, meaning how hard the key is pushed --> alpha value?\n",
    "- `time` (float): The timestamp of the message in ticks. The ticks are a unit of time in the MIDI file. might be useful\n",
    "\n",
    "These properties need to be mapped to a few controls:\n",
    "- color + alpha\n",
    "- brush\n",
    "- location + direction\n",
    "- action\n",
    "\n",
    "The following steps will be taken for version 0.1:\n",
    "- color + alpha selection\n",
    "    - colors: 7 base colors (base notes: A, B, C, D, E, F, G)\n",
    "        - pallet: https://coolors.co/palette/0ad2ff-2962ff-9500ff-ff0059-ff8c00-b4e600-0fffdb\n",
    "    - erasers: 5 sharp (A#, C#, D#, F#, G#). this means that some colors are not removable\n",
    "\n",
    "- location + direction\n",
    "- rendering"
   ]
  },
  {
   "cell_type": "markdown",
   "metadata": {},
   "source": [
    "### color + alpha\n",
    "Color mapping can be done by using the actual note. this provides two options for creating creating a color: the midi-value or the name. The name provides use with a letter (the name of the note: A, B, C, D, E, F, G), sharp or not, and a number (the octave). The midi number is just an integer that can be mapped on the name.\n",
    "\n",
    "using the name we can map 6 base colors, with 2 extra colors if we take the sharps. and the octave could add some random saturation.\n",
    "\n",
    "This would provide some logic to all keys making it possible to create a schema that provides some color information to users.\n",
    "\n",
    "Otherwise, if randomness is more the goal then using a `hash` function for converting the midi-value to RGB values is the way to go. because a `hash` would create the same color of the same input, it would allow more range in colors. each key would present a new color.\n",
    "\n",
    "for the alpha value, using `velocity` seems the best way to go. If the value cannot be mapped between 0 and 1 (or 0 and 255) then not using it for alpha is a good way."
   ]
  },
  {
   "cell_type": "markdown",
   "metadata": {},
   "source": [
    "### brush\n",
    "The brush \"type\"/form needs to be made. It might be interesting to have different message types that change brushes over time (version 2 maybe?)."
   ]
  },
  {
   "cell_type": "markdown",
   "metadata": {},
   "source": [
    "### location + direction\n",
    "the location of the brush and the direction that needs to be drawn in is more difficult to map. `note_on` and `note_off`.\n",
    "\n",
    "Given that notes tend to be short, using `dots` seems the best way to go.\n",
    "for the direction, it should start at a random coordinate in a random direction, with again `velocity` the initial inertia of the stroke. the line is drawn until the `off` message is signaled or the border is hit.\n",
    "the stroke after starts at the end coordinates of the previous stroke for that note with a new random direction. If the border is crossed, the end coordinate is the point of the border."
   ]
  },
  {
   "cell_type": "markdown",
   "metadata": {},
   "source": [
    "## overlapping actions\n",
    "notes can be pressed at the same time. This provides one complication: keep track of the `note_on` and `note_off` message.\n",
    "The on and off message both describe the same midi key so keep a `Dict` for the note (and channel?) and its status (on or off  --> `Bool`).\n",
    "When the note is `on` the action is performed until the `off` message appears "
   ]
  },
  {
   "cell_type": "markdown",
   "metadata": {},
   "source": [
    "### actions\n",
    "Add erase function? if so, which keys? The option to erase might be nice but also would defeat the purpose of the painting.\n",
    "\n",
    "2 things might be fun to add:\n",
    "- save picture (mail it to yourself?)\n",
    "- new work (clear canvas and memory)"
   ]
  },
  {
   "cell_type": "code",
   "execution_count": 11,
   "metadata": {},
   "outputs": [],
   "source": [
    "keyboard_name = \"Impact GX Mini MIDI1\""
   ]
  },
  {
   "cell_type": "code",
   "execution_count": 12,
   "metadata": {},
   "outputs": [
    {
     "name": "stdout",
     "output_type": "stream",
     "text": [
      "Listening for MIDI input from Impact GX Mini MIDI1. Press Ctrl+C to exit.\n",
      "Received MIDI message: note_on channel=0 note=53 velocity=127 time=0\n",
      "Received MIDI message: note_on channel=0 note=53 velocity=0 time=0\n",
      "Received MIDI message: note_on channel=0 note=57 velocity=112 time=0\n",
      "Received MIDI message: note_on channel=0 note=57 velocity=0 time=0\n",
      "Received MIDI message: note_on channel=0 note=57 velocity=124 time=0\n",
      "Received MIDI message: note_on channel=0 note=57 velocity=0 time=0\n",
      "Received MIDI message: note_on channel=0 note=57 velocity=124 time=0\n",
      "Received MIDI message: note_on channel=0 note=57 velocity=0 time=0\n",
      "Received MIDI message: note_on channel=0 note=57 velocity=124 time=0\n",
      "Received MIDI message: note_on channel=0 note=57 velocity=0 time=0\n",
      "Received MIDI message: note_on channel=0 note=57 velocity=16 time=0\n",
      "Received MIDI message: note_on channel=0 note=57 velocity=0 time=0\n",
      "Received MIDI message: pitchwheel channel=0 pitch=128 time=0\n",
      "Received MIDI message: pitchwheel channel=0 pitch=256 time=0\n",
      "Received MIDI message: pitchwheel channel=0 pitch=384 time=0\n",
      "Received MIDI message: pitchwheel channel=0 pitch=512 time=0\n",
      "Received MIDI message: pitchwheel channel=0 pitch=640 time=0\n",
      "Received MIDI message: pitchwheel channel=0 pitch=768 time=0\n",
      "Received MIDI message: pitchwheel channel=0 pitch=896 time=0\n",
      "Received MIDI message: pitchwheel channel=0 pitch=1024 time=0\n",
      "Received MIDI message: pitchwheel channel=0 pitch=1152 time=0\n",
      "Received MIDI message: pitchwheel channel=0 pitch=1280 time=0\n",
      "Received MIDI message: pitchwheel channel=0 pitch=1408 time=0\n",
      "Received MIDI message: pitchwheel channel=0 pitch=1536 time=0\n",
      "Received MIDI message: pitchwheel channel=0 pitch=1664 time=0\n",
      "Received MIDI message: pitchwheel channel=0 pitch=1792 time=0\n",
      "Received MIDI message: pitchwheel channel=0 pitch=1920 time=0\n",
      "Received MIDI message: pitchwheel channel=0 pitch=2048 time=0\n",
      "Received MIDI message: pitchwheel channel=0 pitch=2176 time=0\n",
      "Received MIDI message: pitchwheel channel=0 pitch=2304 time=0\n",
      "Received MIDI message: pitchwheel channel=0 pitch=2432 time=0\n",
      "Received MIDI message: pitchwheel channel=0 pitch=2560 time=0\n",
      "Received MIDI message: pitchwheel channel=0 pitch=2688 time=0\n",
      "Received MIDI message: pitchwheel channel=0 pitch=2816 time=0\n",
      "Received MIDI message: pitchwheel channel=0 pitch=2944 time=0\n",
      "Received MIDI message: pitchwheel channel=0 pitch=3072 time=0\n",
      "Received MIDI message: pitchwheel channel=0 pitch=3200 time=0\n",
      "Received MIDI message: pitchwheel channel=0 pitch=3328 time=0\n",
      "Received MIDI message: pitchwheel channel=0 pitch=3456 time=0\n",
      "Received MIDI message: pitchwheel channel=0 pitch=3584 time=0\n",
      "Received MIDI message: pitchwheel channel=0 pitch=3712 time=0\n",
      "Received MIDI message: pitchwheel channel=0 pitch=3840 time=0\n",
      "Received MIDI message: pitchwheel channel=0 pitch=4096 time=0\n",
      "Received MIDI message: pitchwheel channel=0 pitch=4224 time=0\n",
      "Received MIDI message: pitchwheel channel=0 pitch=4352 time=0\n",
      "Received MIDI message: pitchwheel channel=0 pitch=4480 time=0\n",
      "Received MIDI message: pitchwheel channel=0 pitch=4608 time=0\n",
      "Received MIDI message: pitchwheel channel=0 pitch=4736 time=0\n",
      "Received MIDI message: pitchwheel channel=0 pitch=4864 time=0\n",
      "Received MIDI message: pitchwheel channel=0 pitch=4992 time=0\n",
      "Received MIDI message: pitchwheel channel=0 pitch=5120 time=0\n",
      "Received MIDI message: pitchwheel channel=0 pitch=5376 time=0\n",
      "Received MIDI message: pitchwheel channel=0 pitch=5504 time=0\n",
      "Received MIDI message: pitchwheel channel=0 pitch=5632 time=0\n",
      "Received MIDI message: pitchwheel channel=0 pitch=5760 time=0\n",
      "Received MIDI message: pitchwheel channel=0 pitch=5888 time=0\n",
      "Received MIDI message: pitchwheel channel=0 pitch=6016 time=0\n",
      "Received MIDI message: pitchwheel channel=0 pitch=6144 time=0\n",
      "Received MIDI message: pitchwheel channel=0 pitch=6272 time=0\n",
      "Received MIDI message: pitchwheel channel=0 pitch=6400 time=0\n",
      "Received MIDI message: pitchwheel channel=0 pitch=6528 time=0\n",
      "Received MIDI message: pitchwheel channel=0 pitch=6656 time=0\n",
      "Received MIDI message: pitchwheel channel=0 pitch=6784 time=0\n",
      "Received MIDI message: pitchwheel channel=0 pitch=6912 time=0\n",
      "Received MIDI message: pitchwheel channel=0 pitch=7040 time=0\n",
      "Received MIDI message: pitchwheel channel=0 pitch=7168 time=0\n",
      "Received MIDI message: pitchwheel channel=0 pitch=7296 time=0\n",
      "Received MIDI message: pitchwheel channel=0 pitch=7424 time=0\n",
      "Received MIDI message: pitchwheel channel=0 pitch=7552 time=0\n",
      "Received MIDI message: pitchwheel channel=0 pitch=7680 time=0\n",
      "Received MIDI message: pitchwheel channel=0 pitch=7808 time=0\n",
      "Received MIDI message: pitchwheel channel=0 pitch=7936 time=0\n",
      "Received MIDI message: pitchwheel channel=0 pitch=8191 time=0\n",
      "Received MIDI message: pitchwheel channel=0 pitch=7936 time=0\n",
      "Received MIDI message: pitchwheel channel=0 pitch=7808 time=0\n",
      "Received MIDI message: pitchwheel channel=0 pitch=7680 time=0\n",
      "Received MIDI message: pitchwheel channel=0 pitch=7552 time=0\n",
      "Received MIDI message: pitchwheel channel=0 pitch=7424 time=0\n",
      "Received MIDI message: pitchwheel channel=0 pitch=7296 time=0\n",
      "Received MIDI message: pitchwheel channel=0 pitch=7168 time=0\n",
      "Received MIDI message: pitchwheel channel=0 pitch=7040 time=0\n",
      "Received MIDI message: pitchwheel channel=0 pitch=6912 time=0\n",
      "Received MIDI message: pitchwheel channel=0 pitch=6784 time=0\n",
      "Received MIDI message: pitchwheel channel=0 pitch=6656 time=0\n",
      "Received MIDI message: pitchwheel channel=0 pitch=6528 time=0\n",
      "Received MIDI message: pitchwheel channel=0 pitch=6400 time=0\n",
      "Received MIDI message: pitchwheel channel=0 pitch=6272 time=0\n",
      "Received MIDI message: pitchwheel channel=0 pitch=6144 time=0\n",
      "Received MIDI message: pitchwheel channel=0 pitch=6016 time=0\n",
      "Received MIDI message: pitchwheel channel=0 pitch=5888 time=0\n",
      "Received MIDI message: pitchwheel channel=0 pitch=5760 time=0\n",
      "Received MIDI message: pitchwheel channel=0 pitch=5632 time=0\n",
      "Received MIDI message: pitchwheel channel=0 pitch=5504 time=0\n",
      "Received MIDI message: pitchwheel channel=0 pitch=5376 time=0\n",
      "Received MIDI message: pitchwheel channel=0 pitch=5248 time=0\n",
      "Received MIDI message: pitchwheel channel=0 pitch=5120 time=0\n",
      "Received MIDI message: pitchwheel channel=0 pitch=4992 time=0\n",
      "Received MIDI message: pitchwheel channel=0 pitch=4864 time=0\n",
      "Received MIDI message: pitchwheel channel=0 pitch=4736 time=0\n",
      "Received MIDI message: pitchwheel channel=0 pitch=4480 time=0\n",
      "Received MIDI message: pitchwheel channel=0 pitch=4224 time=0\n",
      "Received MIDI message: pitchwheel channel=0 pitch=3712 time=0\n",
      "Received MIDI message: pitchwheel channel=0 pitch=3200 time=0\n",
      "Received MIDI message: pitchwheel channel=0 pitch=2560 time=0\n",
      "Received MIDI message: pitchwheel channel=0 pitch=1920 time=0\n",
      "Received MIDI message: pitchwheel channel=0 pitch=1280 time=0\n",
      "Received MIDI message: pitchwheel channel=0 pitch=768 time=0\n",
      "Received MIDI message: pitchwheel channel=0 pitch=384 time=0\n",
      "Received MIDI message: pitchwheel channel=0 pitch=0 time=0\n",
      "Received MIDI message: pitchwheel channel=0 pitch=128 time=0\n",
      "Received MIDI message: pitchwheel channel=0 pitch=256 time=0\n",
      "Received MIDI message: pitchwheel channel=0 pitch=384 time=0\n",
      "Received MIDI message: pitchwheel channel=0 pitch=512 time=0\n",
      "Received MIDI message: pitchwheel channel=0 pitch=640 time=0\n",
      "Received MIDI message: pitchwheel channel=0 pitch=768 time=0\n",
      "Received MIDI message: pitchwheel channel=0 pitch=896 time=0\n",
      "Received MIDI message: pitchwheel channel=0 pitch=1024 time=0\n",
      "Received MIDI message: pitchwheel channel=0 pitch=1152 time=0\n",
      "Received MIDI message: pitchwheel channel=0 pitch=1280 time=0\n",
      "Received MIDI message: pitchwheel channel=0 pitch=1408 time=0\n",
      "Received MIDI message: pitchwheel channel=0 pitch=1536 time=0\n",
      "Received MIDI message: pitchwheel channel=0 pitch=1664 time=0\n",
      "Received MIDI message: pitchwheel channel=0 pitch=1792 time=0\n",
      "Received MIDI message: pitchwheel channel=0 pitch=1920 time=0\n",
      "Received MIDI message: pitchwheel channel=0 pitch=2048 time=0\n",
      "Received MIDI message: pitchwheel channel=0 pitch=2176 time=0\n",
      "Received MIDI message: pitchwheel channel=0 pitch=2304 time=0\n",
      "Received MIDI message: pitchwheel channel=0 pitch=2432 time=0\n",
      "Received MIDI message: pitchwheel channel=0 pitch=2560 time=0\n",
      "Received MIDI message: pitchwheel channel=0 pitch=2688 time=0\n",
      "Received MIDI message: pitchwheel channel=0 pitch=2816 time=0\n",
      "Received MIDI message: pitchwheel channel=0 pitch=2944 time=0\n",
      "Received MIDI message: pitchwheel channel=0 pitch=3072 time=0\n",
      "Received MIDI message: pitchwheel channel=0 pitch=3200 time=0\n",
      "Received MIDI message: pitchwheel channel=0 pitch=3328 time=0\n",
      "Received MIDI message: pitchwheel channel=0 pitch=3456 time=0\n",
      "Received MIDI message: pitchwheel channel=0 pitch=3584 time=0\n",
      "Received MIDI message: pitchwheel channel=0 pitch=3712 time=0\n",
      "Received MIDI message: pitchwheel channel=0 pitch=3840 time=0\n",
      "Received MIDI message: pitchwheel channel=0 pitch=4096 time=0\n",
      "Received MIDI message: pitchwheel channel=0 pitch=4224 time=0\n",
      "Received MIDI message: pitchwheel channel=0 pitch=4352 time=0\n",
      "Received MIDI message: pitchwheel channel=0 pitch=4480 time=0\n",
      "Received MIDI message: pitchwheel channel=0 pitch=4608 time=0\n",
      "Received MIDI message: pitchwheel channel=0 pitch=4736 time=0\n",
      "Received MIDI message: pitchwheel channel=0 pitch=4864 time=0\n",
      "Received MIDI message: pitchwheel channel=0 pitch=4992 time=0\n",
      "Received MIDI message: pitchwheel channel=0 pitch=5120 time=0\n",
      "Received MIDI message: pitchwheel channel=0 pitch=5248 time=0\n",
      "Received MIDI message: pitchwheel channel=0 pitch=5376 time=0\n",
      "Received MIDI message: pitchwheel channel=0 pitch=5504 time=0\n",
      "Received MIDI message: pitchwheel channel=0 pitch=5632 time=0\n",
      "Received MIDI message: pitchwheel channel=0 pitch=5760 time=0\n",
      "Received MIDI message: pitchwheel channel=0 pitch=5888 time=0\n",
      "Received MIDI message: pitchwheel channel=0 pitch=6016 time=0\n",
      "Received MIDI message: pitchwheel channel=0 pitch=6144 time=0\n",
      "Received MIDI message: pitchwheel channel=0 pitch=6272 time=0\n",
      "Received MIDI message: pitchwheel channel=0 pitch=6400 time=0\n",
      "Received MIDI message: pitchwheel channel=0 pitch=6528 time=0\n",
      "Received MIDI message: pitchwheel channel=0 pitch=6656 time=0\n",
      "Received MIDI message: pitchwheel channel=0 pitch=6784 time=0\n",
      "Received MIDI message: pitchwheel channel=0 pitch=6912 time=0\n",
      "Received MIDI message: pitchwheel channel=0 pitch=7040 time=0\n",
      "Received MIDI message: pitchwheel channel=0 pitch=7168 time=0\n",
      "Received MIDI message: pitchwheel channel=0 pitch=7296 time=0\n",
      "Received MIDI message: pitchwheel channel=0 pitch=7424 time=0\n",
      "Received MIDI message: pitchwheel channel=0 pitch=7552 time=0\n",
      "Received MIDI message: pitchwheel channel=0 pitch=7680 time=0\n",
      "Received MIDI message: pitchwheel channel=0 pitch=7808 time=0\n",
      "Received MIDI message: pitchwheel channel=0 pitch=7936 time=0\n",
      "Received MIDI message: pitchwheel channel=0 pitch=8191 time=0\n",
      "Received MIDI message: pitchwheel channel=0 pitch=7936 time=0\n",
      "Received MIDI message: pitchwheel channel=0 pitch=7808 time=0\n",
      "Received MIDI message: pitchwheel channel=0 pitch=7680 time=0\n",
      "Received MIDI message: pitchwheel channel=0 pitch=7552 time=0\n",
      "Received MIDI message: pitchwheel channel=0 pitch=7424 time=0\n",
      "Received MIDI message: pitchwheel channel=0 pitch=7296 time=0\n",
      "Received MIDI message: pitchwheel channel=0 pitch=7168 time=0\n",
      "Received MIDI message: pitchwheel channel=0 pitch=7040 time=0\n",
      "Received MIDI message: pitchwheel channel=0 pitch=6912 time=0\n",
      "Received MIDI message: pitchwheel channel=0 pitch=6784 time=0\n",
      "Received MIDI message: pitchwheel channel=0 pitch=6656 time=0\n",
      "Received MIDI message: pitchwheel channel=0 pitch=6528 time=0\n",
      "Received MIDI message: pitchwheel channel=0 pitch=6400 time=0\n",
      "Received MIDI message: pitchwheel channel=0 pitch=6272 time=0\n",
      "Received MIDI message: pitchwheel channel=0 pitch=6144 time=0\n",
      "Received MIDI message: pitchwheel channel=0 pitch=6016 time=0\n",
      "Received MIDI message: pitchwheel channel=0 pitch=5888 time=0\n",
      "Received MIDI message: pitchwheel channel=0 pitch=5760 time=0\n",
      "Received MIDI message: pitchwheel channel=0 pitch=5632 time=0\n",
      "Received MIDI message: pitchwheel channel=0 pitch=5504 time=0\n",
      "Received MIDI message: pitchwheel channel=0 pitch=5376 time=0\n",
      "Received MIDI message: pitchwheel channel=0 pitch=5248 time=0\n",
      "Received MIDI message: pitchwheel channel=0 pitch=5120 time=0\n",
      "Received MIDI message: pitchwheel channel=0 pitch=4992 time=0\n",
      "Received MIDI message: pitchwheel channel=0 pitch=4864 time=0\n",
      "Received MIDI message: pitchwheel channel=0 pitch=4736 time=0\n",
      "Received MIDI message: pitchwheel channel=0 pitch=4608 time=0\n",
      "Received MIDI message: pitchwheel channel=0 pitch=4480 time=0\n",
      "Received MIDI message: pitchwheel channel=0 pitch=4352 time=0\n",
      "Received MIDI message: pitchwheel channel=0 pitch=4224 time=0\n",
      "Received MIDI message: pitchwheel channel=0 pitch=4096 time=0\n",
      "Received MIDI message: pitchwheel channel=0 pitch=3840 time=0\n",
      "Received MIDI message: pitchwheel channel=0 pitch=3456 time=0\n",
      "Received MIDI message: pitchwheel channel=0 pitch=2816 time=0\n",
      "Received MIDI message: pitchwheel channel=0 pitch=1920 time=0\n",
      "Received MIDI message: pitchwheel channel=0 pitch=1024 time=0\n",
      "Received MIDI message: pitchwheel channel=0 pitch=256 time=0\n",
      "Received MIDI message: pitchwheel channel=0 pitch=0 time=0\n",
      "Received MIDI message: pitchwheel channel=0 pitch=128 time=0\n",
      "Received MIDI message: pitchwheel channel=0 pitch=256 time=0\n",
      "Received MIDI message: pitchwheel channel=0 pitch=384 time=0\n",
      "Received MIDI message: pitchwheel channel=0 pitch=512 time=0\n",
      "Received MIDI message: pitchwheel channel=0 pitch=640 time=0\n",
      "Received MIDI message: pitchwheel channel=0 pitch=768 time=0\n",
      "Received MIDI message: pitchwheel channel=0 pitch=896 time=0\n",
      "Received MIDI message: pitchwheel channel=0 pitch=1024 time=0\n",
      "Received MIDI message: pitchwheel channel=0 pitch=1152 time=0\n",
      "Received MIDI message: pitchwheel channel=0 pitch=1280 time=0\n",
      "Received MIDI message: pitchwheel channel=0 pitch=1408 time=0\n",
      "Received MIDI message: pitchwheel channel=0 pitch=1536 time=0\n",
      "Received MIDI message: pitchwheel channel=0 pitch=1664 time=0\n",
      "Received MIDI message: pitchwheel channel=0 pitch=1792 time=0\n",
      "Received MIDI message: pitchwheel channel=0 pitch=1920 time=0\n",
      "Received MIDI message: pitchwheel channel=0 pitch=2048 time=0\n",
      "Received MIDI message: pitchwheel channel=0 pitch=2176 time=0\n",
      "Received MIDI message: pitchwheel channel=0 pitch=2304 time=0\n",
      "Received MIDI message: pitchwheel channel=0 pitch=2432 time=0\n",
      "Received MIDI message: pitchwheel channel=0 pitch=2560 time=0\n",
      "Received MIDI message: pitchwheel channel=0 pitch=2688 time=0\n",
      "Received MIDI message: pitchwheel channel=0 pitch=2816 time=0\n",
      "Received MIDI message: pitchwheel channel=0 pitch=2560 time=0\n",
      "Received MIDI message: pitchwheel channel=0 pitch=2432 time=0\n",
      "Received MIDI message: pitchwheel channel=0 pitch=2304 time=0\n",
      "Received MIDI message: pitchwheel channel=0 pitch=2176 time=0\n",
      "Received MIDI message: pitchwheel channel=0 pitch=2048 time=0\n",
      "Received MIDI message: pitchwheel channel=0 pitch=1920 time=0\n",
      "Received MIDI message: pitchwheel channel=0 pitch=1792 time=0\n",
      "Received MIDI message: pitchwheel channel=0 pitch=1664 time=0\n",
      "Received MIDI message: pitchwheel channel=0 pitch=1536 time=0\n",
      "Received MIDI message: pitchwheel channel=0 pitch=1408 time=0\n",
      "Received MIDI message: pitchwheel channel=0 pitch=1280 time=0\n",
      "Received MIDI message: pitchwheel channel=0 pitch=1152 time=0\n",
      "Received MIDI message: pitchwheel channel=0 pitch=1024 time=0\n",
      "Received MIDI message: pitchwheel channel=0 pitch=896 time=0\n",
      "Received MIDI message: pitchwheel channel=0 pitch=768 time=0\n",
      "Received MIDI message: pitchwheel channel=0 pitch=640 time=0\n",
      "Received MIDI message: pitchwheel channel=0 pitch=512 time=0\n",
      "Received MIDI message: pitchwheel channel=0 pitch=384 time=0\n",
      "Received MIDI message: pitchwheel channel=0 pitch=256 time=0\n",
      "Received MIDI message: pitchwheel channel=0 pitch=128 time=0\n",
      "Received MIDI message: pitchwheel channel=0 pitch=0 time=0\n",
      "Received MIDI message: pitchwheel channel=0 pitch=-256 time=0\n",
      "Received MIDI message: pitchwheel channel=0 pitch=-384 time=0\n",
      "Received MIDI message: pitchwheel channel=0 pitch=-512 time=0\n",
      "Received MIDI message: pitchwheel channel=0 pitch=-768 time=0\n",
      "Received MIDI message: pitchwheel channel=0 pitch=-896 time=0\n",
      "Received MIDI message: pitchwheel channel=0 pitch=-1024 time=0\n",
      "Received MIDI message: pitchwheel channel=0 pitch=-1280 time=0\n",
      "Received MIDI message: pitchwheel channel=0 pitch=-1408 time=0\n",
      "Received MIDI message: pitchwheel channel=0 pitch=-1536 time=0\n",
      "Received MIDI message: pitchwheel channel=0 pitch=-1792 time=0\n",
      "Received MIDI message: pitchwheel channel=0 pitch=-1920 time=0\n",
      "Received MIDI message: pitchwheel channel=0 pitch=-2048 time=0\n",
      "Received MIDI message: pitchwheel channel=0 pitch=-2304 time=0\n",
      "Received MIDI message: pitchwheel channel=0 pitch=-2432 time=0\n",
      "Received MIDI message: pitchwheel channel=0 pitch=-2560 time=0\n",
      "Received MIDI message: pitchwheel channel=0 pitch=-2816 time=0\n",
      "Received MIDI message: pitchwheel channel=0 pitch=-2944 time=0\n",
      "Received MIDI message: pitchwheel channel=0 pitch=-3072 time=0\n",
      "Received MIDI message: pitchwheel channel=0 pitch=-3328 time=0\n",
      "Received MIDI message: pitchwheel channel=0 pitch=-3456 time=0\n",
      "Received MIDI message: pitchwheel channel=0 pitch=-3584 time=0\n",
      "Received MIDI message: pitchwheel channel=0 pitch=-3840 time=0\n",
      "Received MIDI message: pitchwheel channel=0 pitch=-3968 time=0\n",
      "Received MIDI message: pitchwheel channel=0 pitch=-4096 time=0\n",
      "Received MIDI message: pitchwheel channel=0 pitch=-4352 time=0\n",
      "Received MIDI message: pitchwheel channel=0 pitch=-4480 time=0\n",
      "Received MIDI message: pitchwheel channel=0 pitch=-4608 time=0\n",
      "Received MIDI message: pitchwheel channel=0 pitch=-4864 time=0\n",
      "Received MIDI message: pitchwheel channel=0 pitch=-4992 time=0\n",
      "Received MIDI message: pitchwheel channel=0 pitch=-5120 time=0\n",
      "Received MIDI message: pitchwheel channel=0 pitch=-5376 time=0\n",
      "Received MIDI message: pitchwheel channel=0 pitch=-5504 time=0\n",
      "Received MIDI message: pitchwheel channel=0 pitch=-5632 time=0\n",
      "Received MIDI message: pitchwheel channel=0 pitch=-5888 time=0\n",
      "Received MIDI message: pitchwheel channel=0 pitch=-6016 time=0\n",
      "Received MIDI message: pitchwheel channel=0 pitch=-6144 time=0\n",
      "Received MIDI message: pitchwheel channel=0 pitch=-6400 time=0\n",
      "Received MIDI message: pitchwheel channel=0 pitch=-6528 time=0\n",
      "Received MIDI message: pitchwheel channel=0 pitch=-6656 time=0\n",
      "Received MIDI message: pitchwheel channel=0 pitch=-6912 time=0\n",
      "Received MIDI message: pitchwheel channel=0 pitch=-7040 time=0\n",
      "Received MIDI message: pitchwheel channel=0 pitch=-7168 time=0\n",
      "Received MIDI message: pitchwheel channel=0 pitch=-7424 time=0\n",
      "Received MIDI message: pitchwheel channel=0 pitch=-7552 time=0\n",
      "Received MIDI message: pitchwheel channel=0 pitch=-7680 time=0\n",
      "Received MIDI message: pitchwheel channel=0 pitch=-7936 time=0\n",
      "Received MIDI message: pitchwheel channel=0 pitch=-8064 time=0\n",
      "Received MIDI message: pitchwheel channel=0 pitch=-8192 time=0\n",
      "Received MIDI message: pitchwheel channel=0 pitch=-8064 time=0\n",
      "Received MIDI message: pitchwheel channel=0 pitch=-7936 time=0\n",
      "Received MIDI message: pitchwheel channel=0 pitch=-7680 time=0\n",
      "Received MIDI message: pitchwheel channel=0 pitch=-7552 time=0\n",
      "Received MIDI message: pitchwheel channel=0 pitch=-7424 time=0\n",
      "Received MIDI message: pitchwheel channel=0 pitch=-7168 time=0\n",
      "Received MIDI message: pitchwheel channel=0 pitch=-7040 time=0\n",
      "Received MIDI message: pitchwheel channel=0 pitch=-6912 time=0\n",
      "Received MIDI message: pitchwheel channel=0 pitch=-6656 time=0\n",
      "Received MIDI message: pitchwheel channel=0 pitch=-6528 time=0\n",
      "Received MIDI message: pitchwheel channel=0 pitch=-6400 time=0\n",
      "Received MIDI message: pitchwheel channel=0 pitch=-6144 time=0\n",
      "Received MIDI message: pitchwheel channel=0 pitch=-6016 time=0\n",
      "Received MIDI message: pitchwheel channel=0 pitch=-5888 time=0\n",
      "Received MIDI message: pitchwheel channel=0 pitch=-5632 time=0\n",
      "Received MIDI message: pitchwheel channel=0 pitch=-5504 time=0\n",
      "Received MIDI message: pitchwheel channel=0 pitch=-5376 time=0\n",
      "Received MIDI message: pitchwheel channel=0 pitch=-5120 time=0\n",
      "Received MIDI message: pitchwheel channel=0 pitch=-4992 time=0\n",
      "Received MIDI message: pitchwheel channel=0 pitch=-4864 time=0\n",
      "Received MIDI message: pitchwheel channel=0 pitch=-4608 time=0\n",
      "Received MIDI message: pitchwheel channel=0 pitch=-4480 time=0\n",
      "Received MIDI message: pitchwheel channel=0 pitch=-4352 time=0\n",
      "Received MIDI message: pitchwheel channel=0 pitch=-4096 time=0\n",
      "Received MIDI message: pitchwheel channel=0 pitch=-3968 time=0\n",
      "Received MIDI message: pitchwheel channel=0 pitch=-3840 time=0\n",
      "Received MIDI message: pitchwheel channel=0 pitch=-3584 time=0\n",
      "Received MIDI message: pitchwheel channel=0 pitch=-3456 time=0\n",
      "Received MIDI message: pitchwheel channel=0 pitch=-3328 time=0\n",
      "Received MIDI message: pitchwheel channel=0 pitch=-3072 time=0\n",
      "Received MIDI message: pitchwheel channel=0 pitch=-2944 time=0\n",
      "Received MIDI message: pitchwheel channel=0 pitch=-2816 time=0\n",
      "Received MIDI message: pitchwheel channel=0 pitch=-2560 time=0\n",
      "Received MIDI message: pitchwheel channel=0 pitch=-2432 time=0\n",
      "Received MIDI message: pitchwheel channel=0 pitch=-2304 time=0\n",
      "Received MIDI message: pitchwheel channel=0 pitch=-2048 time=0\n",
      "Received MIDI message: pitchwheel channel=0 pitch=-1920 time=0\n",
      "Received MIDI message: pitchwheel channel=0 pitch=-1792 time=0\n",
      "Received MIDI message: pitchwheel channel=0 pitch=-1536 time=0\n",
      "Received MIDI message: pitchwheel channel=0 pitch=-1408 time=0\n",
      "Received MIDI message: pitchwheel channel=0 pitch=-1280 time=0\n",
      "Received MIDI message: pitchwheel channel=0 pitch=-1024 time=0\n",
      "Received MIDI message: pitchwheel channel=0 pitch=-896 time=0\n",
      "Received MIDI message: pitchwheel channel=0 pitch=-768 time=0\n",
      "Received MIDI message: pitchwheel channel=0 pitch=-512 time=0\n",
      "Received MIDI message: pitchwheel channel=0 pitch=-384 time=0\n",
      "Received MIDI message: pitchwheel channel=0 pitch=-256 time=0\n",
      "Received MIDI message: pitchwheel channel=0 pitch=0 time=0\n",
      "Received MIDI message: pitchwheel channel=0 pitch=-256 time=0\n",
      "Received MIDI message: pitchwheel channel=0 pitch=-384 time=0\n",
      "Received MIDI message: pitchwheel channel=0 pitch=-512 time=0\n",
      "Received MIDI message: pitchwheel channel=0 pitch=-768 time=0\n",
      "Received MIDI message: pitchwheel channel=0 pitch=-896 time=0\n",
      "Received MIDI message: pitchwheel channel=0 pitch=-1024 time=0\n",
      "Received MIDI message: pitchwheel channel=0 pitch=-1280 time=0\n",
      "Received MIDI message: pitchwheel channel=0 pitch=-1408 time=0\n",
      "Received MIDI message: pitchwheel channel=0 pitch=-1536 time=0\n",
      "Received MIDI message: pitchwheel channel=0 pitch=-1792 time=0\n",
      "Received MIDI message: pitchwheel channel=0 pitch=-1920 time=0\n",
      "Received MIDI message: pitchwheel channel=0 pitch=-2048 time=0\n",
      "Received MIDI message: pitchwheel channel=0 pitch=-2432 time=0\n",
      "Received MIDI message: pitchwheel channel=0 pitch=-2816 time=0\n",
      "Received MIDI message: pitchwheel channel=0 pitch=-3072 time=0\n",
      "Received MIDI message: pitchwheel channel=0 pitch=-3456 time=0\n",
      "Received MIDI message: pitchwheel channel=0 pitch=-3840 time=0\n",
      "Received MIDI message: pitchwheel channel=0 pitch=-4096 time=0\n",
      "Received MIDI message: pitchwheel channel=0 pitch=-4480 time=0\n",
      "Received MIDI message: pitchwheel channel=0 pitch=-4864 time=0\n",
      "Received MIDI message: pitchwheel channel=0 pitch=-5120 time=0\n",
      "Received MIDI message: pitchwheel channel=0 pitch=-5504 time=0\n",
      "Received MIDI message: pitchwheel channel=0 pitch=-5888 time=0\n",
      "Received MIDI message: pitchwheel channel=0 pitch=-6144 time=0\n",
      "Received MIDI message: pitchwheel channel=0 pitch=-6528 time=0\n",
      "Received MIDI message: pitchwheel channel=0 pitch=-6912 time=0\n",
      "Received MIDI message: pitchwheel channel=0 pitch=-7168 time=0\n",
      "Received MIDI message: pitchwheel channel=0 pitch=-7552 time=0\n",
      "Received MIDI message: pitchwheel channel=0 pitch=-7936 time=0\n",
      "Received MIDI message: pitchwheel channel=0 pitch=-8192 time=0\n",
      "Received MIDI message: pitchwheel channel=0 pitch=-8064 time=0\n",
      "Received MIDI message: pitchwheel channel=0 pitch=-7936 time=0\n",
      "Received MIDI message: pitchwheel channel=0 pitch=-7680 time=0\n",
      "Received MIDI message: pitchwheel channel=0 pitch=-7552 time=0\n",
      "Received MIDI message: pitchwheel channel=0 pitch=-7424 time=0\n",
      "Received MIDI message: pitchwheel channel=0 pitch=-7168 time=0\n",
      "Received MIDI message: pitchwheel channel=0 pitch=-7040 time=0\n",
      "Received MIDI message: pitchwheel channel=0 pitch=-6912 time=0\n",
      "Received MIDI message: pitchwheel channel=0 pitch=-6656 time=0\n",
      "Received MIDI message: pitchwheel channel=0 pitch=-6528 time=0\n",
      "Received MIDI message: pitchwheel channel=0 pitch=-6400 time=0\n",
      "Received MIDI message: pitchwheel channel=0 pitch=-6144 time=0\n",
      "Received MIDI message: pitchwheel channel=0 pitch=-6016 time=0\n",
      "Received MIDI message: pitchwheel channel=0 pitch=-5888 time=0\n",
      "Received MIDI message: pitchwheel channel=0 pitch=-5632 time=0\n",
      "Received MIDI message: pitchwheel channel=0 pitch=-5504 time=0\n",
      "Received MIDI message: pitchwheel channel=0 pitch=-5376 time=0\n",
      "Received MIDI message: pitchwheel channel=0 pitch=-5120 time=0\n",
      "Received MIDI message: pitchwheel channel=0 pitch=-4864 time=0\n",
      "Received MIDI message: pitchwheel channel=0 pitch=-4608 time=0\n",
      "Received MIDI message: pitchwheel channel=0 pitch=-4352 time=0\n",
      "Received MIDI message: pitchwheel channel=0 pitch=-3968 time=0\n",
      "Received MIDI message: pitchwheel channel=0 pitch=-3584 time=0\n",
      "Received MIDI message: pitchwheel channel=0 pitch=-3328 time=0\n",
      "Received MIDI message: pitchwheel channel=0 pitch=-3072 time=0\n",
      "Received MIDI message: pitchwheel channel=0 pitch=-2816 time=0\n",
      "Received MIDI message: pitchwheel channel=0 pitch=-2560 time=0\n",
      "Received MIDI message: pitchwheel channel=0 pitch=-2304 time=0\n",
      "Received MIDI message: pitchwheel channel=0 pitch=-2048 time=0\n",
      "Received MIDI message: pitchwheel channel=0 pitch=-1920 time=0\n",
      "Received MIDI message: pitchwheel channel=0 pitch=-1536 time=0\n",
      "Received MIDI message: pitchwheel channel=0 pitch=-1408 time=0\n",
      "Received MIDI message: pitchwheel channel=0 pitch=-1024 time=0\n",
      "Received MIDI message: pitchwheel channel=0 pitch=-896 time=0\n",
      "Received MIDI message: pitchwheel channel=0 pitch=-768 time=0\n",
      "Received MIDI message: pitchwheel channel=0 pitch=-512 time=0\n",
      "Received MIDI message: pitchwheel channel=0 pitch=-256 time=0\n",
      "Received MIDI message: pitchwheel channel=0 pitch=0 time=0\n",
      "Received MIDI message: control_change channel=0 control=4 value=3 time=0\n",
      "Received MIDI message: control_change channel=0 control=4 value=10 time=0\n",
      "Received MIDI message: control_change channel=0 control=4 value=18 time=0\n",
      "Received MIDI message: control_change channel=0 control=4 value=26 time=0\n",
      "Received MIDI message: control_change channel=0 control=4 value=36 time=0\n",
      "Received MIDI message: control_change channel=0 control=4 value=45 time=0\n",
      "Received MIDI message: control_change channel=0 control=4 value=53 time=0\n",
      "Received MIDI message: control_change channel=0 control=4 value=66 time=0\n",
      "Received MIDI message: control_change channel=0 control=4 value=77 time=0\n",
      "Received MIDI message: control_change channel=0 control=4 value=90 time=0\n",
      "Received MIDI message: control_change channel=0 control=4 value=104 time=0\n",
      "Received MIDI message: control_change channel=0 control=4 value=118 time=0\n",
      "Received MIDI message: control_change channel=0 control=4 value=127 time=0\n",
      "Received MIDI message: control_change channel=0 control=4 value=124 time=0\n",
      "Received MIDI message: control_change channel=0 control=4 value=121 time=0\n",
      "Received MIDI message: control_change channel=0 control=4 value=117 time=0\n",
      "Received MIDI message: control_change channel=0 control=4 value=114 time=0\n",
      "Received MIDI message: control_change channel=0 control=4 value=110 time=0\n",
      "Received MIDI message: control_change channel=0 control=4 value=107 time=0\n",
      "Received MIDI message: control_change channel=0 control=4 value=103 time=0\n",
      "Received MIDI message: control_change channel=0 control=4 value=101 time=0\n",
      "Received MIDI message: control_change channel=0 control=4 value=98 time=0\n",
      "Received MIDI message: control_change channel=0 control=4 value=94 time=0\n",
      "Received MIDI message: control_change channel=0 control=4 value=89 time=0\n",
      "Received MIDI message: control_change channel=0 control=4 value=85 time=0\n",
      "Received MIDI message: control_change channel=0 control=4 value=83 time=0\n",
      "Received MIDI message: control_change channel=0 control=4 value=80 time=0\n",
      "Received MIDI message: control_change channel=0 control=4 value=76 time=0\n",
      "Received MIDI message: control_change channel=0 control=4 value=73 time=0\n",
      "Received MIDI message: control_change channel=0 control=4 value=70 time=0\n",
      "Received MIDI message: control_change channel=0 control=4 value=67 time=0\n",
      "Received MIDI message: control_change channel=0 control=4 value=64 time=0\n",
      "Received MIDI message: control_change channel=0 control=4 value=60 time=0\n",
      "Received MIDI message: control_change channel=0 control=4 value=56 time=0\n",
      "Received MIDI message: control_change channel=0 control=4 value=53 time=0\n",
      "Received MIDI message: control_change channel=0 control=4 value=50 time=0\n",
      "Received MIDI message: control_change channel=0 control=4 value=47 time=0\n",
      "Received MIDI message: control_change channel=0 control=4 value=43 time=0\n",
      "Received MIDI message: control_change channel=0 control=4 value=40 time=0\n",
      "Received MIDI message: control_change channel=0 control=4 value=37 time=0\n",
      "Received MIDI message: control_change channel=0 control=4 value=33 time=0\n",
      "Received MIDI message: control_change channel=0 control=4 value=30 time=0\n",
      "Received MIDI message: control_change channel=0 control=4 value=27 time=0\n",
      "Received MIDI message: control_change channel=0 control=4 value=25 time=0\n",
      "Received MIDI message: control_change channel=0 control=4 value=21 time=0\n",
      "Received MIDI message: control_change channel=0 control=4 value=17 time=0\n",
      "Received MIDI message: control_change channel=0 control=4 value=14 time=0\n",
      "Received MIDI message: control_change channel=0 control=4 value=10 time=0\n",
      "Received MIDI message: control_change channel=0 control=4 value=6 time=0\n",
      "Received MIDI message: control_change channel=0 control=4 value=3 time=0\n",
      "Received MIDI message: control_change channel=0 control=4 value=0 time=0\n",
      "Received MIDI message: note_on channel=0 note=59 velocity=122 time=0\n",
      "Received MIDI message: control_change channel=0 control=1 value=3 time=0\n",
      "Received MIDI message: control_change channel=0 control=1 value=7 time=0\n",
      "Received MIDI message: control_change channel=0 control=1 value=10 time=0\n",
      "Received MIDI message: control_change channel=0 control=1 value=14 time=0\n",
      "Received MIDI message: control_change channel=0 control=1 value=17 time=0\n",
      "Received MIDI message: control_change channel=0 control=1 value=21 time=0\n",
      "Received MIDI message: control_change channel=0 control=1 value=25 time=0\n",
      "Received MIDI message: control_change channel=0 control=1 value=29 time=0\n",
      "Received MIDI message: control_change channel=0 control=1 value=32 time=0\n",
      "Received MIDI message: control_change channel=0 control=1 value=36 time=0\n",
      "Received MIDI message: control_change channel=0 control=1 value=39 time=0\n",
      "Received MIDI message: control_change channel=0 control=1 value=43 time=0\n",
      "Received MIDI message: control_change channel=0 control=1 value=47 time=0\n",
      "Received MIDI message: control_change channel=0 control=1 value=51 time=0\n",
      "Received MIDI message: control_change channel=0 control=1 value=54 time=0\n",
      "Received MIDI message: control_change channel=0 control=1 value=59 time=0\n",
      "Received MIDI message: control_change channel=0 control=1 value=63 time=0\n",
      "Received MIDI message: control_change channel=0 control=1 value=66 time=0\n",
      "Received MIDI message: control_change channel=0 control=1 value=69 time=0\n",
      "Received MIDI message: control_change channel=0 control=1 value=73 time=0\n",
      "Received MIDI message: control_change channel=0 control=1 value=76 time=0\n",
      "Received MIDI message: control_change channel=0 control=1 value=80 time=0\n",
      "Received MIDI message: control_change channel=0 control=1 value=84 time=0\n",
      "Received MIDI message: control_change channel=0 control=1 value=88 time=0\n",
      "Received MIDI message: control_change channel=0 control=1 value=93 time=0\n",
      "Received MIDI message: control_change channel=0 control=1 value=95 time=0\n",
      "Received MIDI message: control_change channel=0 control=1 value=100 time=0\n",
      "Received MIDI message: control_change channel=0 control=1 value=103 time=0\n",
      "Received MIDI message: control_change channel=0 control=1 value=107 time=0\n",
      "Received MIDI message: control_change channel=0 control=1 value=111 time=0\n",
      "Received MIDI message: control_change channel=0 control=1 value=115 time=0\n",
      "Received MIDI message: control_change channel=0 control=1 value=119 time=0\n",
      "Received MIDI message: control_change channel=0 control=1 value=123 time=0\n",
      "Received MIDI message: control_change channel=0 control=1 value=126 time=0\n",
      "Received MIDI message: control_change channel=0 control=1 value=127 time=0\n",
      "Received MIDI message: control_change channel=0 control=1 value=126 time=0\n",
      "Received MIDI message: control_change channel=0 control=1 value=122 time=0\n",
      "Received MIDI message: control_change channel=0 control=1 value=118 time=0\n",
      "Received MIDI message: control_change channel=0 control=1 value=114 time=0\n",
      "Received MIDI message: control_change channel=0 control=1 value=110 time=0\n",
      "Received MIDI message: control_change channel=0 control=1 value=106 time=0\n",
      "Received MIDI message: control_change channel=0 control=1 value=101 time=0\n",
      "Received MIDI message: control_change channel=0 control=1 value=96 time=0\n",
      "Received MIDI message: control_change channel=0 control=1 value=93 time=0\n",
      "Received MIDI message: control_change channel=0 control=1 value=88 time=0\n",
      "Received MIDI message: control_change channel=0 control=1 value=83 time=0\n",
      "Received MIDI message: control_change channel=0 control=1 value=78 time=0\n",
      "Received MIDI message: control_change channel=0 control=1 value=73 time=0\n",
      "Received MIDI message: control_change channel=0 control=1 value=68 time=0\n",
      "Received MIDI message: control_change channel=0 control=1 value=63 time=0\n",
      "Received MIDI message: control_change channel=0 control=1 value=58 time=0\n",
      "Received MIDI message: control_change channel=0 control=1 value=53 time=0\n",
      "Received MIDI message: control_change channel=0 control=1 value=46 time=0\n",
      "Received MIDI message: control_change channel=0 control=1 value=41 time=0\n",
      "Received MIDI message: control_change channel=0 control=1 value=35 time=0\n",
      "Received MIDI message: control_change channel=0 control=1 value=29 time=0\n",
      "Received MIDI message: control_change channel=0 control=1 value=24 time=0\n",
      "Received MIDI message: control_change channel=0 control=1 value=17 time=0\n",
      "Received MIDI message: control_change channel=0 control=1 value=10 time=0\n",
      "Received MIDI message: control_change channel=0 control=1 value=4 time=0\n",
      "Received MIDI message: control_change channel=0 control=1 value=0 time=0\n",
      "Received MIDI message: control_change channel=0 control=4 value=1 time=0\n",
      "Received MIDI message: control_change channel=0 control=4 value=4 time=0\n",
      "Received MIDI message: control_change channel=0 control=4 value=6 time=0\n",
      "Received MIDI message: control_change channel=0 control=4 value=10 time=0\n",
      "Received MIDI message: control_change channel=0 control=4 value=13 time=0\n",
      "Received MIDI message: control_change channel=0 control=4 value=15 time=0\n",
      "Received MIDI message: control_change channel=0 control=4 value=18 time=0\n",
      "Received MIDI message: control_change channel=0 control=4 value=20 time=0\n",
      "Received MIDI message: control_change channel=0 control=4 value=23 time=0\n",
      "Received MIDI message: control_change channel=0 control=4 value=26 time=0\n",
      "Received MIDI message: control_change channel=0 control=4 value=30 time=0\n",
      "Received MIDI message: control_change channel=0 control=4 value=33 time=0\n",
      "Received MIDI message: control_change channel=0 control=4 value=37 time=0\n",
      "Received MIDI message: control_change channel=0 control=4 value=40 time=0\n",
      "Received MIDI message: control_change channel=0 control=4 value=43 time=0\n",
      "Received MIDI message: control_change channel=0 control=4 value=47 time=0\n",
      "Received MIDI message: control_change channel=0 control=4 value=49 time=0\n",
      "Received MIDI message: control_change channel=0 control=4 value=52 time=0\n",
      "Received MIDI message: control_change channel=0 control=4 value=55 time=0\n",
      "Received MIDI message: control_change channel=0 control=4 value=60 time=0\n",
      "Received MIDI message: control_change channel=0 control=4 value=64 time=0\n",
      "Received MIDI message: control_change channel=0 control=4 value=67 time=0\n",
      "Received MIDI message: control_change channel=0 control=4 value=70 time=0\n",
      "Received MIDI message: control_change channel=0 control=4 value=72 time=0\n",
      "Received MIDI message: control_change channel=0 control=4 value=76 time=0\n",
      "Received MIDI message: control_change channel=0 control=4 value=80 time=0\n",
      "Received MIDI message: control_change channel=0 control=4 value=83 time=0\n",
      "Received MIDI message: control_change channel=0 control=4 value=87 time=0\n",
      "Received MIDI message: control_change channel=0 control=4 value=90 time=0\n",
      "Received MIDI message: control_change channel=0 control=4 value=94 time=0\n",
      "Received MIDI message: control_change channel=0 control=4 value=98 time=0\n",
      "Received MIDI message: control_change channel=0 control=4 value=102 time=0\n",
      "Received MIDI message: control_change channel=0 control=4 value=106 time=0\n",
      "Received MIDI message: control_change channel=0 control=4 value=110 time=0\n",
      "Received MIDI message: control_change channel=0 control=4 value=114 time=0\n",
      "Received MIDI message: control_change channel=0 control=4 value=117 time=0\n",
      "Received MIDI message: control_change channel=0 control=4 value=121 time=0\n",
      "Received MIDI message: control_change channel=0 control=4 value=124 time=0\n",
      "Received MIDI message: control_change channel=0 control=4 value=127 time=0\n",
      "Received MIDI message: control_change channel=0 control=4 value=125 time=0\n",
      "Received MIDI message: control_change channel=0 control=4 value=121 time=0\n",
      "Received MIDI message: control_change channel=0 control=4 value=114 time=0\n",
      "Received MIDI message: control_change channel=0 control=4 value=109 time=0\n",
      "Received MIDI message: control_change channel=0 control=4 value=103 time=0\n",
      "Received MIDI message: control_change channel=0 control=4 value=98 time=0\n",
      "Received MIDI message: control_change channel=0 control=4 value=90 time=0\n",
      "Received MIDI message: control_change channel=0 control=4 value=83 time=0\n",
      "Received MIDI message: control_change channel=0 control=4 value=78 time=0\n",
      "Received MIDI message: control_change channel=0 control=4 value=73 time=0\n",
      "Received MIDI message: control_change channel=0 control=4 value=67 time=0\n",
      "Received MIDI message: control_change channel=0 control=4 value=59 time=0\n",
      "Received MIDI message: control_change channel=0 control=4 value=51 time=0\n",
      "Received MIDI message: control_change channel=0 control=4 value=46 time=0\n",
      "Received MIDI message: control_change channel=0 control=4 value=40 time=0\n",
      "Received MIDI message: control_change channel=0 control=4 value=33 time=0\n",
      "Received MIDI message: control_change channel=0 control=4 value=26 time=0\n",
      "Received MIDI message: control_change channel=0 control=4 value=18 time=0\n",
      "Received MIDI message: control_change channel=0 control=4 value=11 time=0\n",
      "Received MIDI message: control_change channel=0 control=4 value=3 time=0\n",
      "Received MIDI message: control_change channel=0 control=4 value=0 time=0\n",
      "Received MIDI message: control_change channel=0 control=1 value=1 time=0\n",
      "Received MIDI message: control_change channel=0 control=1 value=2 time=0\n",
      "Received MIDI message: control_change channel=0 control=1 value=3 time=0\n",
      "Received MIDI message: control_change channel=0 control=1 value=4 time=0\n",
      "Received MIDI message: control_change channel=0 control=1 value=5 time=0\n",
      "Received MIDI message: control_change channel=0 control=1 value=0 time=0\n",
      "Received MIDI message: note_on channel=0 note=59 velocity=0 time=0\n",
      "Received MIDI message: note_on channel=0 note=59 velocity=118 time=0\n",
      "Received MIDI message: control_change channel=0 control=1 value=1 time=0\n",
      "Received MIDI message: control_change channel=0 control=1 value=4 time=0\n",
      "Received MIDI message: control_change channel=0 control=1 value=7 time=0\n",
      "Received MIDI message: control_change channel=0 control=1 value=10 time=0\n",
      "Received MIDI message: control_change channel=0 control=1 value=12 time=0\n",
      "Received MIDI message: control_change channel=0 control=1 value=15 time=0\n",
      "Received MIDI message: control_change channel=0 control=1 value=17 time=0\n",
      "Received MIDI message: control_change channel=0 control=1 value=20 time=0\n",
      "Received MIDI message: control_change channel=0 control=1 value=23 time=0\n",
      "Received MIDI message: control_change channel=0 control=1 value=26 time=0\n",
      "Received MIDI message: control_change channel=0 control=1 value=28 time=0\n",
      "Received MIDI message: control_change channel=0 control=1 value=31 time=0\n",
      "Received MIDI message: control_change channel=0 control=1 value=34 time=0\n",
      "Received MIDI message: control_change channel=0 control=1 value=37 time=0\n",
      "Received MIDI message: control_change channel=0 control=1 value=40 time=0\n",
      "Received MIDI message: control_change channel=0 control=1 value=43 time=0\n",
      "Received MIDI message: control_change channel=0 control=1 value=46 time=0\n",
      "Received MIDI message: control_change channel=0 control=1 value=49 time=0\n",
      "Received MIDI message: control_change channel=0 control=1 value=53 time=0\n",
      "Received MIDI message: control_change channel=0 control=1 value=56 time=0\n",
      "Received MIDI message: control_change channel=0 control=1 value=58 time=0\n",
      "Received MIDI message: control_change channel=0 control=1 value=62 time=0\n",
      "Received MIDI message: control_change channel=0 control=1 value=65 time=0\n",
      "Received MIDI message: control_change channel=0 control=1 value=68 time=0\n",
      "Received MIDI message: control_change channel=0 control=1 value=71 time=0\n",
      "Received MIDI message: control_change channel=0 control=1 value=74 time=0\n",
      "Received MIDI message: control_change channel=0 control=1 value=78 time=0\n",
      "Received MIDI message: control_change channel=0 control=1 value=81 time=0\n",
      "Received MIDI message: control_change channel=0 control=1 value=84 time=0\n",
      "Received MIDI message: control_change channel=0 control=1 value=87 time=0\n",
      "Received MIDI message: control_change channel=0 control=1 value=91 time=0\n",
      "Received MIDI message: control_change channel=0 control=1 value=94 time=0\n",
      "Received MIDI message: control_change channel=0 control=1 value=97 time=0\n",
      "Received MIDI message: control_change channel=0 control=1 value=101 time=0\n",
      "Received MIDI message: control_change channel=0 control=1 value=104 time=0\n",
      "Received MIDI message: control_change channel=0 control=1 value=107 time=0\n",
      "Received MIDI message: control_change channel=0 control=1 value=111 time=0\n",
      "Received MIDI message: control_change channel=0 control=1 value=115 time=0\n",
      "Received MIDI message: control_change channel=0 control=1 value=118 time=0\n",
      "Received MIDI message: control_change channel=0 control=1 value=122 time=0\n",
      "Received MIDI message: control_change channel=0 control=1 value=126 time=0\n",
      "Received MIDI message: control_change channel=0 control=1 value=127 time=0\n",
      "Received MIDI message: control_change channel=0 control=1 value=126 time=0\n",
      "Received MIDI message: control_change channel=0 control=1 value=124 time=0\n",
      "Received MIDI message: control_change channel=0 control=1 value=121 time=0\n",
      "Received MIDI message: control_change channel=0 control=1 value=119 time=0\n",
      "Received MIDI message: control_change channel=0 control=1 value=117 time=0\n",
      "Received MIDI message: control_change channel=0 control=1 value=114 time=0\n",
      "Received MIDI message: control_change channel=0 control=1 value=112 time=0\n",
      "Received MIDI message: control_change channel=0 control=1 value=109 time=0\n",
      "Received MIDI message: control_change channel=0 control=1 value=107 time=0\n",
      "Received MIDI message: control_change channel=0 control=1 value=104 time=0\n",
      "Received MIDI message: control_change channel=0 control=1 value=102 time=0\n",
      "Received MIDI message: control_change channel=0 control=1 value=98 time=0\n",
      "Received MIDI message: control_change channel=0 control=1 value=96 time=0\n",
      "Received MIDI message: control_change channel=0 control=1 value=93 time=0\n",
      "Received MIDI message: control_change channel=0 control=1 value=91 time=0\n",
      "Received MIDI message: control_change channel=0 control=1 value=88 time=0\n",
      "Received MIDI message: control_change channel=0 control=1 value=84 time=0\n",
      "Received MIDI message: control_change channel=0 control=1 value=80 time=0\n",
      "Received MIDI message: control_change channel=0 control=1 value=78 time=0\n",
      "Received MIDI message: control_change channel=0 control=1 value=74 time=0\n",
      "Received MIDI message: control_change channel=0 control=1 value=72 time=0\n",
      "Received MIDI message: control_change channel=0 control=1 value=69 time=0\n",
      "Received MIDI message: control_change channel=0 control=1 value=65 time=0\n",
      "Received MIDI message: control_change channel=0 control=1 value=63 time=0\n",
      "Received MIDI message: control_change channel=0 control=1 value=60 time=0\n",
      "Received MIDI message: control_change channel=0 control=1 value=56 time=0\n",
      "Received MIDI message: control_change channel=0 control=1 value=53 time=0\n",
      "Received MIDI message: control_change channel=0 control=1 value=51 time=0\n",
      "Received MIDI message: control_change channel=0 control=1 value=47 time=0\n",
      "Received MIDI message: control_change channel=0 control=1 value=43 time=0\n",
      "Received MIDI message: control_change channel=0 control=1 value=40 time=0\n",
      "Received MIDI message: control_change channel=0 control=1 value=37 time=0\n",
      "Received MIDI message: control_change channel=0 control=1 value=33 time=0\n",
      "Received MIDI message: control_change channel=0 control=1 value=29 time=0\n",
      "Received MIDI message: control_change channel=0 control=1 value=25 time=0\n",
      "Received MIDI message: control_change channel=0 control=1 value=21 time=0\n",
      "Received MIDI message: control_change channel=0 control=1 value=16 time=0\n",
      "Received MIDI message: control_change channel=0 control=1 value=11 time=0\n",
      "Received MIDI message: control_change channel=0 control=1 value=5 time=0\n",
      "Received MIDI message: control_change channel=0 control=1 value=0 time=0\n",
      "Received MIDI message: control_change channel=0 control=4 value=1 time=0\n",
      "Received MIDI message: control_change channel=0 control=4 value=6 time=0\n",
      "Received MIDI message: control_change channel=0 control=4 value=11 time=0\n",
      "Received MIDI message: control_change channel=0 control=4 value=15 time=0\n",
      "Received MIDI message: control_change channel=0 control=4 value=21 time=0\n",
      "Received MIDI message: control_change channel=0 control=4 value=26 time=0\n",
      "Received MIDI message: control_change channel=0 control=4 value=30 time=0\n",
      "Received MIDI message: control_change channel=0 control=4 value=35 time=0\n",
      "Received MIDI message: control_change channel=0 control=4 value=40 time=0\n",
      "Received MIDI message: control_change channel=0 control=4 value=46 time=0\n",
      "Received MIDI message: control_change channel=0 control=4 value=49 time=0\n",
      "Received MIDI message: control_change channel=0 control=4 value=54 time=0\n",
      "Received MIDI message: control_change channel=0 control=4 value=63 time=0\n",
      "Received MIDI message: control_change channel=0 control=4 value=67 time=0\n",
      "Received MIDI message: control_change channel=0 control=4 value=73 time=0\n",
      "Received MIDI message: control_change channel=0 control=4 value=77 time=0\n",
      "Received MIDI message: control_change channel=0 control=4 value=83 time=0\n",
      "Received MIDI message: control_change channel=0 control=4 value=88 time=0\n",
      "Received MIDI message: control_change channel=0 control=4 value=94 time=0\n",
      "Received MIDI message: control_change channel=0 control=4 value=100 time=0\n",
      "Received MIDI message: control_change channel=0 control=4 value=106 time=0\n",
      "Received MIDI message: control_change channel=0 control=4 value=112 time=0\n",
      "Received MIDI message: control_change channel=0 control=4 value=117 time=0\n",
      "Received MIDI message: control_change channel=0 control=4 value=122 time=0\n",
      "Received MIDI message: control_change channel=0 control=4 value=127 time=0\n",
      "Received MIDI message: control_change channel=0 control=4 value=126 time=0\n",
      "Received MIDI message: control_change channel=0 control=4 value=123 time=0\n",
      "Received MIDI message: control_change channel=0 control=4 value=121 time=0\n",
      "Received MIDI message: control_change channel=0 control=4 value=119 time=0\n",
      "Received MIDI message: control_change channel=0 control=4 value=117 time=0\n",
      "Received MIDI message: control_change channel=0 control=4 value=115 time=0\n",
      "Received MIDI message: control_change channel=0 control=4 value=113 time=0\n",
      "Received MIDI message: control_change channel=0 control=4 value=111 time=0\n",
      "Received MIDI message: control_change channel=0 control=4 value=110 time=0\n",
      "Received MIDI message: control_change channel=0 control=4 value=107 time=0\n",
      "Received MIDI message: control_change channel=0 control=4 value=106 time=0\n",
      "Received MIDI message: control_change channel=0 control=4 value=104 time=0\n",
      "Received MIDI message: control_change channel=0 control=4 value=102 time=0\n",
      "Received MIDI message: control_change channel=0 control=4 value=101 time=0\n",
      "Received MIDI message: control_change channel=0 control=4 value=99 time=0\n",
      "Received MIDI message: control_change channel=0 control=4 value=97 time=0\n",
      "Received MIDI message: control_change channel=0 control=4 value=94 time=0\n",
      "Received MIDI message: control_change channel=0 control=4 value=92 time=0\n",
      "Received MIDI message: control_change channel=0 control=4 value=89 time=0\n",
      "Received MIDI message: control_change channel=0 control=4 value=87 time=0\n",
      "Received MIDI message: control_change channel=0 control=4 value=85 time=0\n",
      "Received MIDI message: control_change channel=0 control=4 value=82 time=0\n",
      "Received MIDI message: control_change channel=0 control=4 value=80 time=0\n",
      "Received MIDI message: control_change channel=0 control=4 value=78 time=0\n",
      "Received MIDI message: control_change channel=0 control=4 value=77 time=0\n",
      "Received MIDI message: control_change channel=0 control=4 value=74 time=0\n",
      "Received MIDI message: control_change channel=0 control=4 value=73 time=0\n",
      "Received MIDI message: control_change channel=0 control=4 value=71 time=0\n",
      "Received MIDI message: control_change channel=0 control=4 value=70 time=0\n",
      "Received MIDI message: control_change channel=0 control=4 value=68 time=0\n",
      "Received MIDI message: control_change channel=0 control=4 value=66 time=0\n",
      "Received MIDI message: control_change channel=0 control=4 value=64 time=0\n",
      "Received MIDI message: control_change channel=0 control=4 value=62 time=0\n",
      "Received MIDI message: control_change channel=0 control=4 value=60 time=0\n",
      "Received MIDI message: control_change channel=0 control=4 value=55 time=0\n",
      "Received MIDI message: control_change channel=0 control=4 value=53 time=0\n",
      "Received MIDI message: control_change channel=0 control=4 value=51 time=0\n",
      "Received MIDI message: control_change channel=0 control=4 value=50 time=0\n",
      "Received MIDI message: control_change channel=0 control=4 value=48 time=0\n",
      "Received MIDI message: control_change channel=0 control=4 value=46 time=0\n",
      "Received MIDI message: control_change channel=0 control=4 value=43 time=0\n",
      "Received MIDI message: control_change channel=0 control=4 value=42 time=0\n",
      "Received MIDI message: control_change channel=0 control=4 value=40 time=0\n",
      "Received MIDI message: control_change channel=0 control=4 value=37 time=0\n",
      "Received MIDI message: control_change channel=0 control=4 value=35 time=0\n",
      "Received MIDI message: control_change channel=0 control=4 value=33 time=0\n",
      "Received MIDI message: control_change channel=0 control=4 value=31 time=0\n",
      "Received MIDI message: control_change channel=0 control=4 value=29 time=0\n",
      "Received MIDI message: control_change channel=0 control=4 value=26 time=0\n",
      "Received MIDI message: control_change channel=0 control=4 value=24 time=0\n",
      "Received MIDI message: control_change channel=0 control=4 value=21 time=0\n",
      "Received MIDI message: control_change channel=0 control=4 value=18 time=0\n",
      "Received MIDI message: control_change channel=0 control=4 value=14 time=0\n",
      "Received MIDI message: control_change channel=0 control=4 value=11 time=0\n",
      "Received MIDI message: control_change channel=0 control=4 value=6 time=0\n",
      "Received MIDI message: control_change channel=0 control=4 value=0 time=0\n",
      "Received MIDI message: pitchwheel channel=0 pitch=128 time=0\n",
      "Received MIDI message: pitchwheel channel=0 pitch=256 time=0\n",
      "Received MIDI message: pitchwheel channel=0 pitch=384 time=0\n",
      "Received MIDI message: pitchwheel channel=0 pitch=512 time=0\n",
      "Received MIDI message: pitchwheel channel=0 pitch=640 time=0\n",
      "Received MIDI message: pitchwheel channel=0 pitch=768 time=0\n",
      "Received MIDI message: pitchwheel channel=0 pitch=896 time=0\n",
      "Received MIDI message: pitchwheel channel=0 pitch=1024 time=0\n",
      "Received MIDI message: pitchwheel channel=0 pitch=1152 time=0\n",
      "Received MIDI message: pitchwheel channel=0 pitch=1280 time=0\n",
      "Received MIDI message: pitchwheel channel=0 pitch=1408 time=0\n",
      "Received MIDI message: pitchwheel channel=0 pitch=1536 time=0\n",
      "Received MIDI message: pitchwheel channel=0 pitch=1664 time=0\n",
      "Received MIDI message: pitchwheel channel=0 pitch=1792 time=0\n",
      "Received MIDI message: pitchwheel channel=0 pitch=1920 time=0\n",
      "Received MIDI message: pitchwheel channel=0 pitch=2048 time=0\n",
      "Received MIDI message: pitchwheel channel=0 pitch=2176 time=0\n",
      "Received MIDI message: pitchwheel channel=0 pitch=2304 time=0\n",
      "Received MIDI message: pitchwheel channel=0 pitch=2560 time=0\n",
      "Received MIDI message: pitchwheel channel=0 pitch=2816 time=0\n",
      "Received MIDI message: pitchwheel channel=0 pitch=3072 time=0\n",
      "Received MIDI message: pitchwheel channel=0 pitch=3328 time=0\n",
      "Received MIDI message: pitchwheel channel=0 pitch=3584 time=0\n",
      "Received MIDI message: pitchwheel channel=0 pitch=3840 time=0\n",
      "Received MIDI message: pitchwheel channel=0 pitch=4224 time=0\n",
      "Received MIDI message: pitchwheel channel=0 pitch=4480 time=0\n",
      "Received MIDI message: pitchwheel channel=0 pitch=4736 time=0\n",
      "Received MIDI message: pitchwheel channel=0 pitch=4992 time=0\n",
      "Received MIDI message: pitchwheel channel=0 pitch=5248 time=0\n",
      "Received MIDI message: pitchwheel channel=0 pitch=5504 time=0\n",
      "Received MIDI message: pitchwheel channel=0 pitch=5760 time=0\n",
      "Received MIDI message: pitchwheel channel=0 pitch=6016 time=0\n",
      "Received MIDI message: pitchwheel channel=0 pitch=6272 time=0\n",
      "Received MIDI message: pitchwheel channel=0 pitch=6528 time=0\n",
      "Received MIDI message: pitchwheel channel=0 pitch=6784 time=0\n",
      "Received MIDI message: pitchwheel channel=0 pitch=7040 time=0\n",
      "Received MIDI message: pitchwheel channel=0 pitch=7296 time=0\n",
      "Received MIDI message: pitchwheel channel=0 pitch=7552 time=0\n",
      "Received MIDI message: pitchwheel channel=0 pitch=7808 time=0\n",
      "Received MIDI message: pitchwheel channel=0 pitch=8191 time=0\n",
      "Received MIDI message: pitchwheel channel=0 pitch=7424 time=0\n",
      "Received MIDI message: pitchwheel channel=0 pitch=6016 time=0\n",
      "Received MIDI message: pitchwheel channel=0 pitch=4480 time=0\n",
      "Received MIDI message: pitchwheel channel=0 pitch=2816 time=0\n",
      "Received MIDI message: pitchwheel channel=0 pitch=1536 time=0\n",
      "Received MIDI message: pitchwheel channel=0 pitch=512 time=0\n",
      "Received MIDI message: pitchwheel channel=0 pitch=0 time=0\n",
      "Received MIDI message: pitchwheel channel=0 pitch=128 time=0\n",
      "Received MIDI message: pitchwheel channel=0 pitch=256 time=0\n",
      "Received MIDI message: pitchwheel channel=0 pitch=384 time=0\n",
      "Received MIDI message: pitchwheel channel=0 pitch=512 time=0\n",
      "Received MIDI message: pitchwheel channel=0 pitch=640 time=0\n",
      "Received MIDI message: pitchwheel channel=0 pitch=768 time=0\n",
      "Received MIDI message: pitchwheel channel=0 pitch=896 time=0\n",
      "Received MIDI message: pitchwheel channel=0 pitch=1024 time=0\n",
      "Received MIDI message: pitchwheel channel=0 pitch=1152 time=0\n",
      "Received MIDI message: pitchwheel channel=0 pitch=1280 time=0\n",
      "Received MIDI message: pitchwheel channel=0 pitch=1408 time=0\n",
      "Received MIDI message: pitchwheel channel=0 pitch=1536 time=0\n",
      "Received MIDI message: pitchwheel channel=0 pitch=1664 time=0\n",
      "Received MIDI message: pitchwheel channel=0 pitch=1792 time=0\n",
      "Received MIDI message: pitchwheel channel=0 pitch=1920 time=0\n",
      "Received MIDI message: pitchwheel channel=0 pitch=2048 time=0\n",
      "Received MIDI message: pitchwheel channel=0 pitch=2176 time=0\n",
      "Received MIDI message: pitchwheel channel=0 pitch=2304 time=0\n",
      "Received MIDI message: pitchwheel channel=0 pitch=2432 time=0\n",
      "Received MIDI message: pitchwheel channel=0 pitch=2560 time=0\n",
      "Received MIDI message: pitchwheel channel=0 pitch=2688 time=0\n",
      "Received MIDI message: pitchwheel channel=0 pitch=2944 time=0\n",
      "Received MIDI message: pitchwheel channel=0 pitch=3072 time=0\n",
      "Received MIDI message: pitchwheel channel=0 pitch=3328 time=0\n",
      "Received MIDI message: pitchwheel channel=0 pitch=3456 time=0\n",
      "Received MIDI message: pitchwheel channel=0 pitch=3584 time=0\n",
      "Received MIDI message: pitchwheel channel=0 pitch=3712 time=0\n",
      "Received MIDI message: pitchwheel channel=0 pitch=3840 time=0\n",
      "Received MIDI message: pitchwheel channel=0 pitch=4096 time=0\n",
      "Received MIDI message: pitchwheel channel=0 pitch=4224 time=0\n",
      "Received MIDI message: pitchwheel channel=0 pitch=4352 time=0\n",
      "Received MIDI message: pitchwheel channel=0 pitch=4480 time=0\n",
      "Received MIDI message: pitchwheel channel=0 pitch=4608 time=0\n",
      "Received MIDI message: pitchwheel channel=0 pitch=4736 time=0\n",
      "Received MIDI message: pitchwheel channel=0 pitch=4864 time=0\n",
      "Received MIDI message: pitchwheel channel=0 pitch=4992 time=0\n",
      "Received MIDI message: pitchwheel channel=0 pitch=5120 time=0\n",
      "Received MIDI message: pitchwheel channel=0 pitch=5248 time=0\n",
      "Received MIDI message: pitchwheel channel=0 pitch=5376 time=0\n",
      "Received MIDI message: pitchwheel channel=0 pitch=5504 time=0\n",
      "Received MIDI message: pitchwheel channel=0 pitch=5632 time=0\n",
      "Received MIDI message: pitchwheel channel=0 pitch=5760 time=0\n",
      "Received MIDI message: pitchwheel channel=0 pitch=5888 time=0\n",
      "Received MIDI message: pitchwheel channel=0 pitch=6016 time=0\n",
      "Received MIDI message: pitchwheel channel=0 pitch=6144 time=0\n",
      "Received MIDI message: pitchwheel channel=0 pitch=6272 time=0\n",
      "Received MIDI message: pitchwheel channel=0 pitch=6400 time=0\n",
      "Received MIDI message: pitchwheel channel=0 pitch=6528 time=0\n",
      "Received MIDI message: pitchwheel channel=0 pitch=6656 time=0\n",
      "Received MIDI message: pitchwheel channel=0 pitch=6784 time=0\n",
      "Received MIDI message: pitchwheel channel=0 pitch=6912 time=0\n",
      "Received MIDI message: pitchwheel channel=0 pitch=7040 time=0\n",
      "Received MIDI message: pitchwheel channel=0 pitch=7168 time=0\n",
      "Received MIDI message: pitchwheel channel=0 pitch=7296 time=0\n",
      "Received MIDI message: pitchwheel channel=0 pitch=7424 time=0\n",
      "Received MIDI message: pitchwheel channel=0 pitch=7552 time=0\n",
      "Received MIDI message: pitchwheel channel=0 pitch=7680 time=0\n",
      "Received MIDI message: pitchwheel channel=0 pitch=7808 time=0\n",
      "Received MIDI message: pitchwheel channel=0 pitch=7936 time=0\n",
      "Received MIDI message: pitchwheel channel=0 pitch=8191 time=0\n",
      "Received MIDI message: pitchwheel channel=0 pitch=7936 time=0\n",
      "Received MIDI message: pitchwheel channel=0 pitch=7808 time=0\n",
      "Received MIDI message: pitchwheel channel=0 pitch=7680 time=0\n",
      "Received MIDI message: pitchwheel channel=0 pitch=7552 time=0\n",
      "Received MIDI message: pitchwheel channel=0 pitch=7424 time=0\n",
      "Received MIDI message: pitchwheel channel=0 pitch=7296 time=0\n",
      "Received MIDI message: pitchwheel channel=0 pitch=7168 time=0\n",
      "Received MIDI message: pitchwheel channel=0 pitch=7040 time=0\n",
      "Received MIDI message: pitchwheel channel=0 pitch=6912 time=0\n",
      "Received MIDI message: pitchwheel channel=0 pitch=6784 time=0\n",
      "Received MIDI message: pitchwheel channel=0 pitch=6656 time=0\n",
      "Received MIDI message: pitchwheel channel=0 pitch=6528 time=0\n",
      "Received MIDI message: pitchwheel channel=0 pitch=6400 time=0\n",
      "Received MIDI message: pitchwheel channel=0 pitch=6272 time=0\n",
      "Received MIDI message: pitchwheel channel=0 pitch=6144 time=0\n",
      "Received MIDI message: pitchwheel channel=0 pitch=6016 time=0\n",
      "Received MIDI message: pitchwheel channel=0 pitch=5888 time=0\n",
      "Received MIDI message: pitchwheel channel=0 pitch=5760 time=0\n",
      "Received MIDI message: pitchwheel channel=0 pitch=5632 time=0\n",
      "Received MIDI message: pitchwheel channel=0 pitch=5504 time=0\n",
      "Received MIDI message: pitchwheel channel=0 pitch=5376 time=0\n",
      "Received MIDI message: pitchwheel channel=0 pitch=5248 time=0\n",
      "Received MIDI message: pitchwheel channel=0 pitch=5120 time=0\n",
      "Received MIDI message: pitchwheel channel=0 pitch=4992 time=0\n",
      "Received MIDI message: pitchwheel channel=0 pitch=4864 time=0\n",
      "Received MIDI message: pitchwheel channel=0 pitch=4736 time=0\n",
      "Received MIDI message: pitchwheel channel=0 pitch=4608 time=0\n",
      "Received MIDI message: control_change channel=0 control=1 value=1 time=0\n",
      "Received MIDI message: pitchwheel channel=0 pitch=4480 time=0\n",
      "Received MIDI message: pitchwheel channel=0 pitch=4352 time=0\n",
      "Received MIDI message: pitchwheel channel=0 pitch=4224 time=0\n",
      "Received MIDI message: pitchwheel channel=0 pitch=4096 time=0\n",
      "Received MIDI message: pitchwheel channel=0 pitch=3840 time=0\n",
      "Received MIDI message: pitchwheel channel=0 pitch=3712 time=0\n",
      "Received MIDI message: pitchwheel channel=0 pitch=3584 time=0\n",
      "Received MIDI message: pitchwheel channel=0 pitch=3456 time=0\n",
      "Received MIDI message: control_change channel=0 control=1 value=2 time=0\n",
      "Received MIDI message: pitchwheel channel=0 pitch=3328 time=0\n",
      "Received MIDI message: control_change channel=0 control=1 value=3 time=0\n",
      "Received MIDI message: pitchwheel channel=0 pitch=3200 time=0\n",
      "Received MIDI message: pitchwheel channel=0 pitch=3456 time=0\n",
      "Received MIDI message: pitchwheel channel=0 pitch=3584 time=0\n",
      "Received MIDI message: pitchwheel channel=0 pitch=3712 time=0\n",
      "Received MIDI message: pitchwheel channel=0 pitch=3840 time=0\n",
      "Received MIDI message: pitchwheel channel=0 pitch=4096 time=0\n",
      "Received MIDI message: pitchwheel channel=0 pitch=4224 time=0\n",
      "Received MIDI message: pitchwheel channel=0 pitch=4352 time=0\n",
      "Received MIDI message: pitchwheel channel=0 pitch=4480 time=0\n",
      "Received MIDI message: pitchwheel channel=0 pitch=4608 time=0\n",
      "Received MIDI message: pitchwheel channel=0 pitch=4736 time=0\n",
      "Received MIDI message: pitchwheel channel=0 pitch=4864 time=0\n",
      "Received MIDI message: pitchwheel channel=0 pitch=4992 time=0\n",
      "Received MIDI message: pitchwheel channel=0 pitch=5120 time=0\n",
      "Received MIDI message: pitchwheel channel=0 pitch=5248 time=0\n",
      "Received MIDI message: pitchwheel channel=0 pitch=5376 time=0\n",
      "Received MIDI message: pitchwheel channel=0 pitch=5504 time=0\n",
      "Received MIDI message: pitchwheel channel=0 pitch=5632 time=0\n",
      "Received MIDI message: pitchwheel channel=0 pitch=5760 time=0\n",
      "Received MIDI message: pitchwheel channel=0 pitch=5888 time=0\n",
      "Received MIDI message: pitchwheel channel=0 pitch=6016 time=0\n",
      "Received MIDI message: pitchwheel channel=0 pitch=6144 time=0\n",
      "Received MIDI message: pitchwheel channel=0 pitch=6272 time=0\n",
      "Received MIDI message: pitchwheel channel=0 pitch=6400 time=0\n",
      "Received MIDI message: pitchwheel channel=0 pitch=6528 time=0\n",
      "Received MIDI message: pitchwheel channel=0 pitch=6656 time=0\n",
      "Received MIDI message: pitchwheel channel=0 pitch=6784 time=0\n",
      "Received MIDI message: pitchwheel channel=0 pitch=6912 time=0\n",
      "Received MIDI message: pitchwheel channel=0 pitch=7040 time=0\n",
      "Received MIDI message: pitchwheel channel=0 pitch=7168 time=0\n",
      "Received MIDI message: pitchwheel channel=0 pitch=7296 time=0\n",
      "Received MIDI message: pitchwheel channel=0 pitch=7424 time=0\n",
      "Received MIDI message: pitchwheel channel=0 pitch=7552 time=0\n",
      "Received MIDI message: pitchwheel channel=0 pitch=7680 time=0\n",
      "Received MIDI message: pitchwheel channel=0 pitch=7808 time=0\n",
      "Received MIDI message: pitchwheel channel=0 pitch=7936 time=0\n",
      "Received MIDI message: pitchwheel channel=0 pitch=8191 time=0\n",
      "Received MIDI message: control_change channel=0 control=1 value=4 time=0\n",
      "Received MIDI message: pitchwheel channel=0 pitch=7936 time=0\n",
      "Received MIDI message: pitchwheel channel=0 pitch=7808 time=0\n",
      "Received MIDI message: pitchwheel channel=0 pitch=7680 time=0\n",
      "Received MIDI message: pitchwheel channel=0 pitch=7552 time=0\n",
      "Received MIDI message: pitchwheel channel=0 pitch=7424 time=0\n",
      "Received MIDI message: pitchwheel channel=0 pitch=7296 time=0\n",
      "Received MIDI message: pitchwheel channel=0 pitch=7168 time=0\n",
      "Received MIDI message: pitchwheel channel=0 pitch=7040 time=0\n",
      "Received MIDI message: pitchwheel channel=0 pitch=6912 time=0\n",
      "Received MIDI message: pitchwheel channel=0 pitch=6784 time=0\n",
      "Received MIDI message: pitchwheel channel=0 pitch=6656 time=0\n",
      "Received MIDI message: pitchwheel channel=0 pitch=6528 time=0\n",
      "Received MIDI message: pitchwheel channel=0 pitch=6400 time=0\n",
      "Received MIDI message: pitchwheel channel=0 pitch=6272 time=0\n",
      "Received MIDI message: pitchwheel channel=0 pitch=6144 time=0\n",
      "Received MIDI message: pitchwheel channel=0 pitch=6016 time=0\n",
      "Received MIDI message: pitchwheel channel=0 pitch=5888 time=0\n",
      "Received MIDI message: pitchwheel channel=0 pitch=5760 time=0\n",
      "Received MIDI message: pitchwheel channel=0 pitch=5632 time=0\n",
      "Received MIDI message: pitchwheel channel=0 pitch=5504 time=0\n",
      "Received MIDI message: pitchwheel channel=0 pitch=5376 time=0\n",
      "Received MIDI message: pitchwheel channel=0 pitch=5248 time=0\n",
      "Received MIDI message: pitchwheel channel=0 pitch=5120 time=0\n",
      "Received MIDI message: pitchwheel channel=0 pitch=4992 time=0\n",
      "Received MIDI message: pitchwheel channel=0 pitch=4864 time=0\n",
      "Received MIDI message: pitchwheel channel=0 pitch=4736 time=0\n",
      "Received MIDI message: pitchwheel channel=0 pitch=4608 time=0\n",
      "Received MIDI message: control_change channel=0 control=1 value=5 time=0\n",
      "Received MIDI message: pitchwheel channel=0 pitch=4480 time=0\n",
      "Received MIDI message: pitchwheel channel=0 pitch=4352 time=0\n",
      "Received MIDI message: pitchwheel channel=0 pitch=4224 time=0\n",
      "Received MIDI message: pitchwheel channel=0 pitch=4096 time=0\n",
      "Received MIDI message: pitchwheel channel=0 pitch=3840 time=0\n",
      "Received MIDI message: pitchwheel channel=0 pitch=3712 time=0\n",
      "Received MIDI message: pitchwheel channel=0 pitch=3584 time=0\n",
      "Received MIDI message: pitchwheel channel=0 pitch=3456 time=0\n",
      "Received MIDI message: pitchwheel channel=0 pitch=3200 time=0\n",
      "Received MIDI message: pitchwheel channel=0 pitch=3072 time=0\n",
      "Received MIDI message: pitchwheel channel=0 pitch=2944 time=0\n",
      "Received MIDI message: pitchwheel channel=0 pitch=2688 time=0\n",
      "Received MIDI message: pitchwheel channel=0 pitch=2560 time=0\n",
      "Received MIDI message: pitchwheel channel=0 pitch=2432 time=0\n",
      "Received MIDI message: pitchwheel channel=0 pitch=2304 time=0\n",
      "Received MIDI message: pitchwheel channel=0 pitch=2176 time=0\n",
      "Received MIDI message: pitchwheel channel=0 pitch=2048 time=0\n",
      "Received MIDI message: pitchwheel channel=0 pitch=1792 time=0\n",
      "Received MIDI message: pitchwheel channel=0 pitch=1664 time=0\n",
      "Received MIDI message: pitchwheel channel=0 pitch=1536 time=0\n",
      "Received MIDI message: pitchwheel channel=0 pitch=1408 time=0\n",
      "Received MIDI message: pitchwheel channel=0 pitch=1280 time=0\n",
      "Received MIDI message: pitchwheel channel=0 pitch=1152 time=0\n",
      "Received MIDI message: pitchwheel channel=0 pitch=1024 time=0\n",
      "Received MIDI message: pitchwheel channel=0 pitch=896 time=0\n",
      "Received MIDI message: pitchwheel channel=0 pitch=768 time=0\n",
      "Received MIDI message: pitchwheel channel=0 pitch=640 time=0\n",
      "Received MIDI message: pitchwheel channel=0 pitch=512 time=0\n",
      "Received MIDI message: pitchwheel channel=0 pitch=384 time=0\n",
      "Received MIDI message: pitchwheel channel=0 pitch=256 time=0\n",
      "Received MIDI message: pitchwheel channel=0 pitch=128 time=0\n",
      "Received MIDI message: pitchwheel channel=0 pitch=0 time=0\n",
      "Received MIDI message: control_change channel=0 control=1 value=6 time=0\n",
      "Received MIDI message: control_change channel=0 control=1 value=1 time=0\n",
      "Received MIDI message: control_change channel=0 control=1 value=0 time=0\n",
      "Received MIDI message: pitchwheel channel=0 pitch=128 time=0\n",
      "Received MIDI message: pitchwheel channel=0 pitch=256 time=0\n",
      "Received MIDI message: pitchwheel channel=0 pitch=384 time=0\n",
      "Received MIDI message: pitchwheel channel=0 pitch=512 time=0\n",
      "Received MIDI message: pitchwheel channel=0 pitch=640 time=0\n",
      "Received MIDI message: pitchwheel channel=0 pitch=768 time=0\n",
      "Received MIDI message: pitchwheel channel=0 pitch=896 time=0\n",
      "Received MIDI message: pitchwheel channel=0 pitch=1024 time=0\n",
      "Received MIDI message: pitchwheel channel=0 pitch=1152 time=0\n",
      "Received MIDI message: pitchwheel channel=0 pitch=1280 time=0\n",
      "Received MIDI message: pitchwheel channel=0 pitch=1408 time=0\n",
      "Received MIDI message: pitchwheel channel=0 pitch=1536 time=0\n",
      "Received MIDI message: pitchwheel channel=0 pitch=1664 time=0\n",
      "Received MIDI message: pitchwheel channel=0 pitch=1792 time=0\n",
      "Received MIDI message: pitchwheel channel=0 pitch=1920 time=0\n",
      "Received MIDI message: pitchwheel channel=0 pitch=2048 time=0\n",
      "Received MIDI message: pitchwheel channel=0 pitch=2176 time=0\n",
      "Received MIDI message: pitchwheel channel=0 pitch=2304 time=0\n",
      "Received MIDI message: pitchwheel channel=0 pitch=2432 time=0\n",
      "Received MIDI message: pitchwheel channel=0 pitch=2560 time=0\n",
      "Received MIDI message: pitchwheel channel=0 pitch=2688 time=0\n",
      "Received MIDI message: pitchwheel channel=0 pitch=2816 time=0\n",
      "Received MIDI message: pitchwheel channel=0 pitch=2944 time=0\n",
      "Received MIDI message: pitchwheel channel=0 pitch=3072 time=0\n",
      "Received MIDI message: pitchwheel channel=0 pitch=3200 time=0\n",
      "Received MIDI message: pitchwheel channel=0 pitch=3328 time=0\n",
      "Received MIDI message: pitchwheel channel=0 pitch=3456 time=0\n",
      "Received MIDI message: pitchwheel channel=0 pitch=3584 time=0\n",
      "Received MIDI message: pitchwheel channel=0 pitch=3712 time=0\n",
      "Received MIDI message: pitchwheel channel=0 pitch=3840 time=0\n",
      "Received MIDI message: pitchwheel channel=0 pitch=4096 time=0\n",
      "Received MIDI message: pitchwheel channel=0 pitch=4224 time=0\n",
      "Received MIDI message: pitchwheel channel=0 pitch=4352 time=0\n",
      "Received MIDI message: pitchwheel channel=0 pitch=4480 time=0\n",
      "Received MIDI message: pitchwheel channel=0 pitch=4608 time=0\n",
      "Received MIDI message: pitchwheel channel=0 pitch=4736 time=0\n",
      "Received MIDI message: pitchwheel channel=0 pitch=4864 time=0\n",
      "Received MIDI message: pitchwheel channel=0 pitch=4992 time=0\n",
      "Received MIDI message: pitchwheel channel=0 pitch=5120 time=0\n",
      "Received MIDI message: pitchwheel channel=0 pitch=5248 time=0\n",
      "Received MIDI message: pitchwheel channel=0 pitch=5376 time=0\n",
      "Received MIDI message: pitchwheel channel=0 pitch=5504 time=0\n",
      "Received MIDI message: pitchwheel channel=0 pitch=5632 time=0\n",
      "Received MIDI message: pitchwheel channel=0 pitch=5760 time=0\n",
      "Received MIDI message: pitchwheel channel=0 pitch=5888 time=0\n",
      "Received MIDI message: pitchwheel channel=0 pitch=6016 time=0\n",
      "Received MIDI message: pitchwheel channel=0 pitch=6144 time=0\n",
      "Received MIDI message: pitchwheel channel=0 pitch=6272 time=0\n",
      "Received MIDI message: pitchwheel channel=0 pitch=6528 time=0\n",
      "Received MIDI message: pitchwheel channel=0 pitch=6656 time=0\n",
      "Received MIDI message: pitchwheel channel=0 pitch=6784 time=0\n",
      "Received MIDI message: pitchwheel channel=0 pitch=7040 time=0\n",
      "Received MIDI message: pitchwheel channel=0 pitch=7168 time=0\n",
      "Received MIDI message: pitchwheel channel=0 pitch=7296 time=0\n",
      "Received MIDI message: pitchwheel channel=0 pitch=7552 time=0\n",
      "Received MIDI message: pitchwheel channel=0 pitch=7680 time=0\n",
      "Received MIDI message: pitchwheel channel=0 pitch=7808 time=0\n",
      "Received MIDI message: pitchwheel channel=0 pitch=7936 time=0\n",
      "Received MIDI message: pitchwheel channel=0 pitch=8191 time=0\n",
      "Received MIDI message: pitchwheel channel=0 pitch=7936 time=0\n",
      "Received MIDI message: pitchwheel channel=0 pitch=7808 time=0\n",
      "Received MIDI message: pitchwheel channel=0 pitch=7680 time=0\n",
      "Received MIDI message: pitchwheel channel=0 pitch=7552 time=0\n",
      "Received MIDI message: pitchwheel channel=0 pitch=7424 time=0\n",
      "Received MIDI message: pitchwheel channel=0 pitch=7296 time=0\n",
      "Received MIDI message: pitchwheel channel=0 pitch=7168 time=0\n",
      "Received MIDI message: pitchwheel channel=0 pitch=7040 time=0\n",
      "Received MIDI message: pitchwheel channel=0 pitch=6912 time=0\n",
      "Received MIDI message: pitchwheel channel=0 pitch=6784 time=0\n",
      "Received MIDI message: pitchwheel channel=0 pitch=6656 time=0\n",
      "Received MIDI message: pitchwheel channel=0 pitch=6528 time=0\n",
      "Received MIDI message: pitchwheel channel=0 pitch=6400 time=0\n",
      "Received MIDI message: pitchwheel channel=0 pitch=6272 time=0\n",
      "Received MIDI message: pitchwheel channel=0 pitch=6144 time=0\n",
      "Received MIDI message: pitchwheel channel=0 pitch=5888 time=0\n",
      "Received MIDI message: pitchwheel channel=0 pitch=5632 time=0\n",
      "Received MIDI message: pitchwheel channel=0 pitch=5376 time=0\n",
      "Received MIDI message: pitchwheel channel=0 pitch=5120 time=0\n",
      "Received MIDI message: pitchwheel channel=0 pitch=4864 time=0\n",
      "Received MIDI message: pitchwheel channel=0 pitch=4608 time=0\n",
      "Received MIDI message: pitchwheel channel=0 pitch=4352 time=0\n",
      "Received MIDI message: pitchwheel channel=0 pitch=4224 time=0\n",
      "Received MIDI message: pitchwheel channel=0 pitch=3840 time=0\n",
      "Received MIDI message: pitchwheel channel=0 pitch=3712 time=0\n",
      "Received MIDI message: pitchwheel channel=0 pitch=3456 time=0\n",
      "Received MIDI message: pitchwheel channel=0 pitch=3200 time=0\n",
      "Received MIDI message: pitchwheel channel=0 pitch=3072 time=0\n",
      "Received MIDI message: pitchwheel channel=0 pitch=2944 time=0\n",
      "Received MIDI message: pitchwheel channel=0 pitch=2688 time=0\n",
      "Received MIDI message: pitchwheel channel=0 pitch=2560 time=0\n",
      "Received MIDI message: pitchwheel channel=0 pitch=2432 time=0\n",
      "Received MIDI message: pitchwheel channel=0 pitch=2304 time=0\n",
      "Received MIDI message: pitchwheel channel=0 pitch=2176 time=0\n",
      "Received MIDI message: pitchwheel channel=0 pitch=2048 time=0\n",
      "Received MIDI message: pitchwheel channel=0 pitch=1920 time=0\n",
      "Received MIDI message: pitchwheel channel=0 pitch=1792 time=0\n",
      "Received MIDI message: pitchwheel channel=0 pitch=1664 time=0\n",
      "Received MIDI message: pitchwheel channel=0 pitch=1536 time=0\n",
      "Received MIDI message: pitchwheel channel=0 pitch=1408 time=0\n",
      "Received MIDI message: pitchwheel channel=0 pitch=1280 time=0\n",
      "Received MIDI message: pitchwheel channel=0 pitch=1152 time=0\n",
      "Received MIDI message: pitchwheel channel=0 pitch=1024 time=0\n",
      "Received MIDI message: pitchwheel channel=0 pitch=896 time=0\n",
      "Received MIDI message: pitchwheel channel=0 pitch=768 time=0\n",
      "Received MIDI message: pitchwheel channel=0 pitch=640 time=0\n",
      "Received MIDI message: pitchwheel channel=0 pitch=512 time=0\n",
      "Received MIDI message: pitchwheel channel=0 pitch=384 time=0\n",
      "Received MIDI message: pitchwheel channel=0 pitch=256 time=0\n",
      "Received MIDI message: pitchwheel channel=0 pitch=128 time=0\n",
      "Received MIDI message: pitchwheel channel=0 pitch=0 time=0\n",
      "Received MIDI message: pitchwheel channel=0 pitch=128 time=0\n",
      "Received MIDI message: pitchwheel channel=0 pitch=256 time=0\n",
      "Received MIDI message: pitchwheel channel=0 pitch=384 time=0\n",
      "Received MIDI message: pitchwheel channel=0 pitch=512 time=0\n",
      "Received MIDI message: pitchwheel channel=0 pitch=640 time=0\n",
      "Received MIDI message: pitchwheel channel=0 pitch=768 time=0\n",
      "Received MIDI message: pitchwheel channel=0 pitch=896 time=0\n",
      "Received MIDI message: pitchwheel channel=0 pitch=1024 time=0\n",
      "Received MIDI message: pitchwheel channel=0 pitch=1152 time=0\n",
      "Received MIDI message: pitchwheel channel=0 pitch=1280 time=0\n",
      "Received MIDI message: pitchwheel channel=0 pitch=1408 time=0\n",
      "Received MIDI message: pitchwheel channel=0 pitch=1536 time=0\n",
      "Received MIDI message: pitchwheel channel=0 pitch=1664 time=0\n",
      "Received MIDI message: pitchwheel channel=0 pitch=1792 time=0\n",
      "Received MIDI message: pitchwheel channel=0 pitch=1920 time=0\n",
      "Received MIDI message: pitchwheel channel=0 pitch=2048 time=0\n",
      "Received MIDI message: pitchwheel channel=0 pitch=2176 time=0\n",
      "Received MIDI message: pitchwheel channel=0 pitch=2304 time=0\n",
      "Received MIDI message: pitchwheel channel=0 pitch=2432 time=0\n",
      "Received MIDI message: pitchwheel channel=0 pitch=2560 time=0\n",
      "Received MIDI message: pitchwheel channel=0 pitch=2688 time=0\n",
      "Received MIDI message: pitchwheel channel=0 pitch=2816 time=0\n",
      "Received MIDI message: pitchwheel channel=0 pitch=2944 time=0\n",
      "Received MIDI message: pitchwheel channel=0 pitch=3072 time=0\n",
      "Received MIDI message: pitchwheel channel=0 pitch=3200 time=0\n",
      "Received MIDI message: pitchwheel channel=0 pitch=3328 time=0\n",
      "Received MIDI message: pitchwheel channel=0 pitch=3456 time=0\n",
      "Received MIDI message: pitchwheel channel=0 pitch=3584 time=0\n",
      "Received MIDI message: pitchwheel channel=0 pitch=3712 time=0\n",
      "Received MIDI message: pitchwheel channel=0 pitch=3840 time=0\n",
      "Received MIDI message: pitchwheel channel=0 pitch=4096 time=0\n",
      "Received MIDI message: pitchwheel channel=0 pitch=4224 time=0\n",
      "Received MIDI message: pitchwheel channel=0 pitch=4352 time=0\n",
      "Received MIDI message: pitchwheel channel=0 pitch=4480 time=0\n",
      "Received MIDI message: pitchwheel channel=0 pitch=4608 time=0\n",
      "Received MIDI message: pitchwheel channel=0 pitch=4736 time=0\n",
      "Received MIDI message: pitchwheel channel=0 pitch=4864 time=0\n",
      "Received MIDI message: pitchwheel channel=0 pitch=5120 time=0\n",
      "Received MIDI message: pitchwheel channel=0 pitch=5376 time=0\n",
      "Received MIDI message: pitchwheel channel=0 pitch=5504 time=0\n",
      "Received MIDI message: pitchwheel channel=0 pitch=5760 time=0\n",
      "Received MIDI message: pitchwheel channel=0 pitch=5888 time=0\n",
      "Received MIDI message: pitchwheel channel=0 pitch=6016 time=0\n",
      "Received MIDI message: pitchwheel channel=0 pitch=6144 time=0\n",
      "Received MIDI message: pitchwheel channel=0 pitch=6272 time=0\n",
      "Received MIDI message: pitchwheel channel=0 pitch=6528 time=0\n",
      "Received MIDI message: pitchwheel channel=0 pitch=6656 time=0\n",
      "Received MIDI message: pitchwheel channel=0 pitch=6912 time=0\n",
      "Received MIDI message: pitchwheel channel=0 pitch=7040 time=0\n",
      "Received MIDI message: pitchwheel channel=0 pitch=7168 time=0\n",
      "Received MIDI message: pitchwheel channel=0 pitch=7296 time=0\n",
      "Received MIDI message: pitchwheel channel=0 pitch=7424 time=0\n",
      "Received MIDI message: pitchwheel channel=0 pitch=7552 time=0\n",
      "Received MIDI message: pitchwheel channel=0 pitch=7680 time=0\n",
      "Received MIDI message: pitchwheel channel=0 pitch=7808 time=0\n",
      "Received MIDI message: pitchwheel channel=0 pitch=7936 time=0\n",
      "Received MIDI message: pitchwheel channel=0 pitch=8191 time=0\n",
      "Received MIDI message: pitchwheel channel=0 pitch=7936 time=0\n",
      "Received MIDI message: pitchwheel channel=0 pitch=7808 time=0\n",
      "Received MIDI message: pitchwheel channel=0 pitch=7680 time=0\n",
      "Received MIDI message: pitchwheel channel=0 pitch=7552 time=0\n",
      "Received MIDI message: pitchwheel channel=0 pitch=7424 time=0\n",
      "Received MIDI message: pitchwheel channel=0 pitch=7296 time=0\n",
      "Received MIDI message: pitchwheel channel=0 pitch=7168 time=0\n",
      "Received MIDI message: pitchwheel channel=0 pitch=7040 time=0\n",
      "Received MIDI message: pitchwheel channel=0 pitch=6912 time=0\n",
      "Received MIDI message: pitchwheel channel=0 pitch=6784 time=0\n",
      "Received MIDI message: pitchwheel channel=0 pitch=6656 time=0\n",
      "Received MIDI message: pitchwheel channel=0 pitch=6528 time=0\n",
      "Received MIDI message: pitchwheel channel=0 pitch=6400 time=0\n",
      "Received MIDI message: pitchwheel channel=0 pitch=6272 time=0\n",
      "Received MIDI message: pitchwheel channel=0 pitch=6144 time=0\n",
      "Received MIDI message: pitchwheel channel=0 pitch=6016 time=0\n",
      "Received MIDI message: pitchwheel channel=0 pitch=5888 time=0\n",
      "Received MIDI message: pitchwheel channel=0 pitch=5760 time=0\n",
      "Received MIDI message: pitchwheel channel=0 pitch=5632 time=0\n",
      "Received MIDI message: pitchwheel channel=0 pitch=5376 time=0\n",
      "Received MIDI message: pitchwheel channel=0 pitch=5120 time=0\n",
      "Received MIDI message: pitchwheel channel=0 pitch=4992 time=0\n",
      "Received MIDI message: pitchwheel channel=0 pitch=4864 time=0\n",
      "Received MIDI message: pitchwheel channel=0 pitch=4736 time=0\n",
      "Received MIDI message: pitchwheel channel=0 pitch=4608 time=0\n",
      "Received MIDI message: pitchwheel channel=0 pitch=4480 time=0\n",
      "Received MIDI message: pitchwheel channel=0 pitch=4352 time=0\n",
      "Received MIDI message: pitchwheel channel=0 pitch=4224 time=0\n",
      "Received MIDI message: pitchwheel channel=0 pitch=4096 time=0\n",
      "Received MIDI message: pitchwheel channel=0 pitch=3840 time=0\n",
      "Received MIDI message: pitchwheel channel=0 pitch=3712 time=0\n",
      "Received MIDI message: pitchwheel channel=0 pitch=3584 time=0\n",
      "Received MIDI message: pitchwheel channel=0 pitch=3456 time=0\n",
      "Received MIDI message: pitchwheel channel=0 pitch=3328 time=0\n",
      "Received MIDI message: pitchwheel channel=0 pitch=3200 time=0\n",
      "Received MIDI message: pitchwheel channel=0 pitch=3072 time=0\n",
      "Received MIDI message: pitchwheel channel=0 pitch=2944 time=0\n",
      "Received MIDI message: pitchwheel channel=0 pitch=2816 time=0\n",
      "Received MIDI message: pitchwheel channel=0 pitch=2688 time=0\n",
      "Received MIDI message: pitchwheel channel=0 pitch=2560 time=0\n",
      "Received MIDI message: pitchwheel channel=0 pitch=2432 time=0\n",
      "Received MIDI message: pitchwheel channel=0 pitch=2304 time=0\n",
      "Received MIDI message: pitchwheel channel=0 pitch=2176 time=0\n",
      "Received MIDI message: pitchwheel channel=0 pitch=2048 time=0\n",
      "Received MIDI message: pitchwheel channel=0 pitch=1920 time=0\n",
      "Received MIDI message: pitchwheel channel=0 pitch=1792 time=0\n",
      "Received MIDI message: pitchwheel channel=0 pitch=1664 time=0\n",
      "Received MIDI message: pitchwheel channel=0 pitch=1536 time=0\n",
      "Received MIDI message: pitchwheel channel=0 pitch=1408 time=0\n",
      "Received MIDI message: pitchwheel channel=0 pitch=1280 time=0\n",
      "Received MIDI message: pitchwheel channel=0 pitch=1536 time=0\n",
      "Received MIDI message: pitchwheel channel=0 pitch=1664 time=0\n",
      "Received MIDI message: pitchwheel channel=0 pitch=1792 time=0\n",
      "Received MIDI message: pitchwheel channel=0 pitch=1920 time=0\n",
      "Received MIDI message: pitchwheel channel=0 pitch=2048 time=0\n",
      "Received MIDI message: pitchwheel channel=0 pitch=2176 time=0\n",
      "Received MIDI message: pitchwheel channel=0 pitch=2304 time=0\n",
      "Received MIDI message: pitchwheel channel=0 pitch=2432 time=0\n",
      "Received MIDI message: pitchwheel channel=0 pitch=2560 time=0\n",
      "Received MIDI message: pitchwheel channel=0 pitch=2688 time=0\n",
      "Received MIDI message: pitchwheel channel=0 pitch=2816 time=0\n",
      "Received MIDI message: pitchwheel channel=0 pitch=2944 time=0\n",
      "Received MIDI message: pitchwheel channel=0 pitch=3072 time=0\n",
      "Received MIDI message: pitchwheel channel=0 pitch=3200 time=0\n",
      "Received MIDI message: pitchwheel channel=0 pitch=3328 time=0\n",
      "Received MIDI message: pitchwheel channel=0 pitch=3456 time=0\n",
      "Received MIDI message: pitchwheel channel=0 pitch=3584 time=0\n",
      "Received MIDI message: pitchwheel channel=0 pitch=3712 time=0\n",
      "Received MIDI message: pitchwheel channel=0 pitch=3840 time=0\n",
      "Received MIDI message: pitchwheel channel=0 pitch=4096 time=0\n",
      "Received MIDI message: pitchwheel channel=0 pitch=4224 time=0\n",
      "Received MIDI message: pitchwheel channel=0 pitch=4352 time=0\n",
      "Received MIDI message: pitchwheel channel=0 pitch=4480 time=0\n",
      "Received MIDI message: pitchwheel channel=0 pitch=4608 time=0\n",
      "Received MIDI message: pitchwheel channel=0 pitch=4736 time=0\n",
      "Received MIDI message: pitchwheel channel=0 pitch=4864 time=0\n",
      "Received MIDI message: pitchwheel channel=0 pitch=4992 time=0\n",
      "Received MIDI message: pitchwheel channel=0 pitch=5120 time=0\n",
      "Received MIDI message: pitchwheel channel=0 pitch=5248 time=0\n",
      "Received MIDI message: pitchwheel channel=0 pitch=5376 time=0\n",
      "Received MIDI message: pitchwheel channel=0 pitch=5504 time=0\n",
      "Received MIDI message: pitchwheel channel=0 pitch=5632 time=0\n",
      "Received MIDI message: pitchwheel channel=0 pitch=5376 time=0\n",
      "Received MIDI message: pitchwheel channel=0 pitch=5248 time=0\n",
      "Received MIDI message: pitchwheel channel=0 pitch=5120 time=0\n",
      "Received MIDI message: pitchwheel channel=0 pitch=4992 time=0\n",
      "Received MIDI message: pitchwheel channel=0 pitch=4864 time=0\n",
      "Received MIDI message: pitchwheel channel=0 pitch=4736 time=0\n",
      "Received MIDI message: pitchwheel channel=0 pitch=4608 time=0\n",
      "Received MIDI message: pitchwheel channel=0 pitch=4480 time=0\n",
      "Received MIDI message: pitchwheel channel=0 pitch=4352 time=0\n",
      "Received MIDI message: pitchwheel channel=0 pitch=4224 time=0\n",
      "Received MIDI message: pitchwheel channel=0 pitch=4096 time=0\n",
      "Received MIDI message: pitchwheel channel=0 pitch=3840 time=0\n",
      "Received MIDI message: pitchwheel channel=0 pitch=3712 time=0\n",
      "Received MIDI message: pitchwheel channel=0 pitch=3584 time=0\n",
      "Received MIDI message: pitchwheel channel=0 pitch=3456 time=0\n",
      "Received MIDI message: pitchwheel channel=0 pitch=3328 time=0\n",
      "Received MIDI message: pitchwheel channel=0 pitch=3200 time=0\n",
      "Received MIDI message: pitchwheel channel=0 pitch=3072 time=0\n",
      "Received MIDI message: pitchwheel channel=0 pitch=2944 time=0\n",
      "Received MIDI message: pitchwheel channel=0 pitch=2816 time=0\n",
      "Received MIDI message: pitchwheel channel=0 pitch=2688 time=0\n",
      "Received MIDI message: pitchwheel channel=0 pitch=2560 time=0\n",
      "Received MIDI message: pitchwheel channel=0 pitch=2432 time=0\n",
      "Received MIDI message: pitchwheel channel=0 pitch=2304 time=0\n",
      "Received MIDI message: pitchwheel channel=0 pitch=2176 time=0\n",
      "Received MIDI message: pitchwheel channel=0 pitch=2048 time=0\n",
      "Received MIDI message: pitchwheel channel=0 pitch=1920 time=0\n",
      "Received MIDI message: pitchwheel channel=0 pitch=1792 time=0\n",
      "Received MIDI message: pitchwheel channel=0 pitch=1664 time=0\n",
      "Received MIDI message: pitchwheel channel=0 pitch=1536 time=0\n",
      "Received MIDI message: pitchwheel channel=0 pitch=1408 time=0\n",
      "Received MIDI message: pitchwheel channel=0 pitch=1280 time=0\n",
      "Received MIDI message: pitchwheel channel=0 pitch=1152 time=0\n",
      "Received MIDI message: pitchwheel channel=0 pitch=1024 time=0\n",
      "Received MIDI message: pitchwheel channel=0 pitch=896 time=0\n",
      "Received MIDI message: pitchwheel channel=0 pitch=768 time=0\n",
      "Received MIDI message: pitchwheel channel=0 pitch=640 time=0\n",
      "Received MIDI message: pitchwheel channel=0 pitch=512 time=0\n",
      "Received MIDI message: pitchwheel channel=0 pitch=384 time=0\n",
      "Received MIDI message: pitchwheel channel=0 pitch=256 time=0\n",
      "Received MIDI message: pitchwheel channel=0 pitch=128 time=0\n",
      "Received MIDI message: pitchwheel channel=0 pitch=0 time=0\n",
      "Received MIDI message: pitchwheel channel=0 pitch=128 time=0\n",
      "Received MIDI message: pitchwheel channel=0 pitch=256 time=0\n",
      "Received MIDI message: pitchwheel channel=0 pitch=384 time=0\n",
      "Received MIDI message: pitchwheel channel=0 pitch=512 time=0\n",
      "Received MIDI message: pitchwheel channel=0 pitch=640 time=0\n",
      "Received MIDI message: pitchwheel channel=0 pitch=768 time=0\n",
      "Received MIDI message: pitchwheel channel=0 pitch=896 time=0\n",
      "Received MIDI message: pitchwheel channel=0 pitch=1024 time=0\n",
      "Received MIDI message: pitchwheel channel=0 pitch=1152 time=0\n",
      "Received MIDI message: pitchwheel channel=0 pitch=1280 time=0\n",
      "Received MIDI message: pitchwheel channel=0 pitch=1408 time=0\n",
      "Received MIDI message: pitchwheel channel=0 pitch=1536 time=0\n",
      "Received MIDI message: pitchwheel channel=0 pitch=1664 time=0\n",
      "Received MIDI message: pitchwheel channel=0 pitch=1792 time=0\n",
      "Received MIDI message: pitchwheel channel=0 pitch=1920 time=0\n",
      "Received MIDI message: pitchwheel channel=0 pitch=2048 time=0\n",
      "Received MIDI message: pitchwheel channel=0 pitch=2176 time=0\n",
      "Received MIDI message: pitchwheel channel=0 pitch=2304 time=0\n",
      "Received MIDI message: pitchwheel channel=0 pitch=2432 time=0\n",
      "Received MIDI message: pitchwheel channel=0 pitch=2560 time=0\n",
      "Received MIDI message: pitchwheel channel=0 pitch=2688 time=0\n",
      "Received MIDI message: pitchwheel channel=0 pitch=2816 time=0\n",
      "Received MIDI message: pitchwheel channel=0 pitch=2944 time=0\n",
      "Received MIDI message: pitchwheel channel=0 pitch=3072 time=0\n",
      "Received MIDI message: pitchwheel channel=0 pitch=3200 time=0\n",
      "Received MIDI message: pitchwheel channel=0 pitch=3328 time=0\n",
      "Received MIDI message: pitchwheel channel=0 pitch=3456 time=0\n",
      "Received MIDI message: pitchwheel channel=0 pitch=3584 time=0\n",
      "Received MIDI message: pitchwheel channel=0 pitch=3712 time=0\n",
      "Received MIDI message: pitchwheel channel=0 pitch=3840 time=0\n",
      "Received MIDI message: pitchwheel channel=0 pitch=4096 time=0\n",
      "Received MIDI message: pitchwheel channel=0 pitch=4224 time=0\n",
      "Received MIDI message: pitchwheel channel=0 pitch=4352 time=0\n",
      "Received MIDI message: pitchwheel channel=0 pitch=4480 time=0\n",
      "Received MIDI message: pitchwheel channel=0 pitch=4608 time=0\n",
      "Received MIDI message: pitchwheel channel=0 pitch=4736 time=0\n",
      "Received MIDI message: pitchwheel channel=0 pitch=4864 time=0\n",
      "Received MIDI message: pitchwheel channel=0 pitch=4992 time=0\n",
      "Received MIDI message: pitchwheel channel=0 pitch=5120 time=0\n",
      "Received MIDI message: pitchwheel channel=0 pitch=5248 time=0\n",
      "Received MIDI message: pitchwheel channel=0 pitch=5376 time=0\n",
      "Received MIDI message: pitchwheel channel=0 pitch=5504 time=0\n",
      "Received MIDI message: pitchwheel channel=0 pitch=5632 time=0\n",
      "Received MIDI message: pitchwheel channel=0 pitch=5760 time=0\n",
      "Received MIDI message: pitchwheel channel=0 pitch=5888 time=0\n",
      "Received MIDI message: pitchwheel channel=0 pitch=6016 time=0\n",
      "Received MIDI message: pitchwheel channel=0 pitch=6144 time=0\n",
      "Received MIDI message: pitchwheel channel=0 pitch=6272 time=0\n",
      "Received MIDI message: pitchwheel channel=0 pitch=6400 time=0\n",
      "Received MIDI message: pitchwheel channel=0 pitch=6528 time=0\n",
      "Received MIDI message: pitchwheel channel=0 pitch=6656 time=0\n",
      "Received MIDI message: pitchwheel channel=0 pitch=6784 time=0\n",
      "Received MIDI message: pitchwheel channel=0 pitch=6912 time=0\n",
      "Received MIDI message: pitchwheel channel=0 pitch=7040 time=0\n",
      "Received MIDI message: pitchwheel channel=0 pitch=7168 time=0\n",
      "Received MIDI message: pitchwheel channel=0 pitch=7296 time=0\n",
      "Received MIDI message: pitchwheel channel=0 pitch=7424 time=0\n",
      "Received MIDI message: pitchwheel channel=0 pitch=7552 time=0\n",
      "Received MIDI message: pitchwheel channel=0 pitch=7680 time=0\n",
      "Received MIDI message: pitchwheel channel=0 pitch=7808 time=0\n",
      "Received MIDI message: pitchwheel channel=0 pitch=7936 time=0\n",
      "Received MIDI message: pitchwheel channel=0 pitch=8191 time=0\n",
      "Received MIDI message: pitchwheel channel=0 pitch=7936 time=0\n",
      "Received MIDI message: pitchwheel channel=0 pitch=7808 time=0\n",
      "Received MIDI message: pitchwheel channel=0 pitch=7680 time=0\n",
      "Received MIDI message: pitchwheel channel=0 pitch=7552 time=0\n",
      "Received MIDI message: pitchwheel channel=0 pitch=7424 time=0\n",
      "Received MIDI message: pitchwheel channel=0 pitch=7296 time=0\n",
      "Received MIDI message: pitchwheel channel=0 pitch=7168 time=0\n",
      "Received MIDI message: pitchwheel channel=0 pitch=7040 time=0\n",
      "Received MIDI message: pitchwheel channel=0 pitch=6912 time=0\n",
      "Received MIDI message: pitchwheel channel=0 pitch=6784 time=0\n",
      "Received MIDI message: pitchwheel channel=0 pitch=6656 time=0\n",
      "Received MIDI message: pitchwheel channel=0 pitch=6528 time=0\n",
      "Received MIDI message: pitchwheel channel=0 pitch=6400 time=0\n",
      "Received MIDI message: pitchwheel channel=0 pitch=6272 time=0\n",
      "Received MIDI message: pitchwheel channel=0 pitch=6144 time=0\n",
      "Received MIDI message: pitchwheel channel=0 pitch=6016 time=0\n",
      "Received MIDI message: pitchwheel channel=0 pitch=5888 time=0\n",
      "Received MIDI message: pitchwheel channel=0 pitch=5760 time=0\n",
      "Received MIDI message: pitchwheel channel=0 pitch=5632 time=0\n",
      "Received MIDI message: pitchwheel channel=0 pitch=5504 time=0\n",
      "Received MIDI message: pitchwheel channel=0 pitch=5248 time=0\n",
      "Received MIDI message: pitchwheel channel=0 pitch=4992 time=0\n",
      "Received MIDI message: pitchwheel channel=0 pitch=4736 time=0\n",
      "Received MIDI message: pitchwheel channel=0 pitch=4480 time=0\n",
      "Received MIDI message: pitchwheel channel=0 pitch=4224 time=0\n",
      "Received MIDI message: pitchwheel channel=0 pitch=3840 time=0\n",
      "Received MIDI message: pitchwheel channel=0 pitch=3584 time=0\n",
      "Received MIDI message: pitchwheel channel=0 pitch=3328 time=0\n",
      "Received MIDI message: pitchwheel channel=0 pitch=3072 time=0\n",
      "Received MIDI message: pitchwheel channel=0 pitch=2816 time=0\n",
      "Received MIDI message: pitchwheel channel=0 pitch=2560 time=0\n",
      "Received MIDI message: pitchwheel channel=0 pitch=2304 time=0\n",
      "Received MIDI message: pitchwheel channel=0 pitch=2048 time=0\n",
      "Received MIDI message: pitchwheel channel=0 pitch=1792 time=0\n",
      "Received MIDI message: pitchwheel channel=0 pitch=1536 time=0\n",
      "Received MIDI message: pitchwheel channel=0 pitch=1280 time=0\n",
      "Received MIDI message: pitchwheel channel=0 pitch=1024 time=0\n",
      "Received MIDI message: pitchwheel channel=0 pitch=896 time=0\n",
      "Received MIDI message: pitchwheel channel=0 pitch=768 time=0\n",
      "Received MIDI message: pitchwheel channel=0 pitch=512 time=0\n",
      "Received MIDI message: pitchwheel channel=0 pitch=384 time=0\n",
      "Received MIDI message: pitchwheel channel=0 pitch=256 time=0\n",
      "Received MIDI message: pitchwheel channel=0 pitch=128 time=0\n",
      "Received MIDI message: pitchwheel channel=0 pitch=0 time=0\n",
      "Received MIDI message: pitchwheel channel=0 pitch=128 time=0\n",
      "Received MIDI message: pitchwheel channel=0 pitch=0 time=0\n",
      "Received MIDI message: note_on channel=0 note=59 velocity=0 time=0\n",
      "Received MIDI message: control_change channel=0 control=4 value=2 time=0\n",
      "Received MIDI message: control_change channel=0 control=4 value=11 time=0\n",
      "Received MIDI message: control_change channel=0 control=4 value=23 time=0\n",
      "Received MIDI message: control_change channel=0 control=4 value=32 time=0\n",
      "Received MIDI message: control_change channel=0 control=4 value=43 time=0\n",
      "Received MIDI message: control_change channel=0 control=4 value=50 time=0\n",
      "Received MIDI message: control_change channel=0 control=4 value=64 time=0\n",
      "Received MIDI message: control_change channel=0 control=4 value=74 time=0\n",
      "Received MIDI message: control_change channel=0 control=4 value=85 time=0\n",
      "Received MIDI message: control_change channel=0 control=4 value=97 time=0\n",
      "Received MIDI message: control_change channel=0 control=4 value=108 time=0\n",
      "Received MIDI message: control_change channel=0 control=4 value=118 time=0\n",
      "Received MIDI message: control_change channel=0 control=4 value=127 time=0\n",
      "Received MIDI message: control_change channel=0 control=4 value=126 time=0\n",
      "Received MIDI message: control_change channel=0 control=4 value=120 time=0\n",
      "Received MIDI message: control_change channel=0 control=4 value=114 time=0\n",
      "Received MIDI message: control_change channel=0 control=4 value=107 time=0\n",
      "Received MIDI message: control_change channel=0 control=4 value=103 time=0\n",
      "Received MIDI message: control_change channel=0 control=4 value=97 time=0\n",
      "Received MIDI message: control_change channel=0 control=4 value=90 time=0\n",
      "Received MIDI message: control_change channel=0 control=4 value=84 time=0\n",
      "Received MIDI message: control_change channel=0 control=4 value=79 time=0\n",
      "Received MIDI message: control_change channel=0 control=4 value=74 time=0\n",
      "Received MIDI message: control_change channel=0 control=4 value=68 time=0\n",
      "Received MIDI message: control_change channel=0 control=4 value=62 time=0\n",
      "Received MIDI message: control_change channel=0 control=4 value=53 time=0\n",
      "Received MIDI message: control_change channel=0 control=4 value=49 time=0\n",
      "Received MIDI message: control_change channel=0 control=4 value=44 time=0\n",
      "Received MIDI message: control_change channel=0 control=4 value=38 time=0\n",
      "Received MIDI message: control_change channel=0 control=4 value=33 time=0\n",
      "Received MIDI message: control_change channel=0 control=4 value=28 time=0\n",
      "Received MIDI message: control_change channel=0 control=4 value=23 time=0\n",
      "Received MIDI message: control_change channel=0 control=4 value=16 time=0\n",
      "Received MIDI message: control_change channel=0 control=4 value=11 time=0\n",
      "Received MIDI message: control_change channel=0 control=4 value=5 time=0\n",
      "Received MIDI message: control_change channel=0 control=4 value=0 time=0\n",
      "Received MIDI message: control_change channel=0 control=1 value=2 time=0\n",
      "Received MIDI message: control_change channel=0 control=1 value=5 time=0\n",
      "Received MIDI message: control_change channel=0 control=1 value=8 time=0\n",
      "Received MIDI message: control_change channel=0 control=1 value=10 time=0\n",
      "Received MIDI message: control_change channel=0 control=1 value=13 time=0\n",
      "Received MIDI message: control_change channel=0 control=1 value=16 time=0\n",
      "Received MIDI message: control_change channel=0 control=1 value=18 time=0\n",
      "Received MIDI message: control_change channel=0 control=1 value=21 time=0\n",
      "Received MIDI message: control_change channel=0 control=1 value=24 time=0\n",
      "Received MIDI message: control_change channel=0 control=1 value=27 time=0\n",
      "Received MIDI message: control_change channel=0 control=1 value=29 time=0\n",
      "Received MIDI message: control_change channel=0 control=1 value=32 time=0\n",
      "Received MIDI message: control_change channel=0 control=1 value=36 time=0\n",
      "Received MIDI message: control_change channel=0 control=1 value=38 time=0\n",
      "Received MIDI message: control_change channel=0 control=1 value=40 time=0\n",
      "Received MIDI message: control_change channel=0 control=1 value=43 time=0\n",
      "Received MIDI message: control_change channel=0 control=1 value=46 time=0\n",
      "Received MIDI message: control_change channel=0 control=1 value=50 time=0\n",
      "Received MIDI message: control_change channel=0 control=1 value=53 time=0\n",
      "Received MIDI message: control_change channel=0 control=1 value=57 time=0\n",
      "Received MIDI message: control_change channel=0 control=1 value=60 time=0\n",
      "Received MIDI message: control_change channel=0 control=1 value=63 time=0\n",
      "Received MIDI message: control_change channel=0 control=1 value=65 time=0\n",
      "Received MIDI message: control_change channel=0 control=1 value=68 time=0\n",
      "Received MIDI message: control_change channel=0 control=1 value=71 time=0\n",
      "Received MIDI message: control_change channel=0 control=1 value=74 time=0\n",
      "Received MIDI message: control_change channel=0 control=1 value=78 time=0\n",
      "Received MIDI message: control_change channel=0 control=1 value=81 time=0\n",
      "Received MIDI message: control_change channel=0 control=1 value=84 time=0\n",
      "Received MIDI message: control_change channel=0 control=1 value=87 time=0\n",
      "Received MIDI message: control_change channel=0 control=1 value=91 time=0\n",
      "Received MIDI message: control_change channel=0 control=1 value=94 time=0\n",
      "Received MIDI message: control_change channel=0 control=1 value=97 time=0\n",
      "Received MIDI message: control_change channel=0 control=1 value=100 time=0\n",
      "Received MIDI message: control_change channel=0 control=1 value=104 time=0\n",
      "Received MIDI message: control_change channel=0 control=1 value=107 time=0\n",
      "Received MIDI message: control_change channel=0 control=1 value=110 time=0\n",
      "Received MIDI message: control_change channel=0 control=1 value=115 time=0\n",
      "Received MIDI message: control_change channel=0 control=1 value=117 time=0\n",
      "Received MIDI message: control_change channel=0 control=1 value=121 time=0\n",
      "Received MIDI message: control_change channel=0 control=1 value=124 time=0\n",
      "Received MIDI message: control_change channel=0 control=1 value=127 time=0\n",
      "Received MIDI message: control_change channel=0 control=1 value=126 time=0\n",
      "Received MIDI message: control_change channel=0 control=1 value=124 time=0\n",
      "Received MIDI message: control_change channel=0 control=1 value=122 time=0\n",
      "Received MIDI message: control_change channel=0 control=1 value=120 time=0\n",
      "Received MIDI message: control_change channel=0 control=1 value=118 time=0\n",
      "Received MIDI message: control_change channel=0 control=1 value=116 time=0\n",
      "Received MIDI message: control_change channel=0 control=1 value=114 time=0\n",
      "Received MIDI message: control_change channel=0 control=1 value=111 time=0\n",
      "Received MIDI message: control_change channel=0 control=1 value=109 time=0\n",
      "Received MIDI message: control_change channel=0 control=1 value=106 time=0\n",
      "Received MIDI message: control_change channel=0 control=1 value=104 time=0\n",
      "Received MIDI message: control_change channel=0 control=1 value=101 time=0\n",
      "Received MIDI message: control_change channel=0 control=1 value=98 time=0\n",
      "Received MIDI message: control_change channel=0 control=1 value=94 time=0\n",
      "Received MIDI message: control_change channel=0 control=1 value=85 time=0\n",
      "Received MIDI message: control_change channel=0 control=1 value=68 time=0\n",
      "Received MIDI message: control_change channel=0 control=1 value=42 time=0\n",
      "Received MIDI message: control_change channel=0 control=1 value=10 time=0\n",
      "Received MIDI message: control_change channel=0 control=1 value=0 time=0\n",
      "Received MIDI message: pitchwheel channel=0 pitch=128 time=0\n",
      "Received MIDI message: pitchwheel channel=0 pitch=256 time=0\n",
      "Received MIDI message: pitchwheel channel=0 pitch=384 time=0\n",
      "Received MIDI message: pitchwheel channel=0 pitch=512 time=0\n",
      "Received MIDI message: pitchwheel channel=0 pitch=640 time=0\n",
      "Received MIDI message: pitchwheel channel=0 pitch=768 time=0\n",
      "Received MIDI message: pitchwheel channel=0 pitch=896 time=0\n",
      "Received MIDI message: pitchwheel channel=0 pitch=1024 time=0\n",
      "Received MIDI message: pitchwheel channel=0 pitch=1152 time=0\n",
      "Received MIDI message: pitchwheel channel=0 pitch=1280 time=0\n",
      "Received MIDI message: pitchwheel channel=0 pitch=1408 time=0\n",
      "Received MIDI message: pitchwheel channel=0 pitch=1536 time=0\n",
      "Received MIDI message: pitchwheel channel=0 pitch=1664 time=0\n",
      "Received MIDI message: pitchwheel channel=0 pitch=1792 time=0\n",
      "Received MIDI message: pitchwheel channel=0 pitch=1920 time=0\n",
      "Received MIDI message: pitchwheel channel=0 pitch=2048 time=0\n",
      "Received MIDI message: pitchwheel channel=0 pitch=2176 time=0\n",
      "Received MIDI message: pitchwheel channel=0 pitch=2304 time=0\n",
      "Received MIDI message: pitchwheel channel=0 pitch=2432 time=0\n",
      "Received MIDI message: pitchwheel channel=0 pitch=2560 time=0\n",
      "Received MIDI message: pitchwheel channel=0 pitch=2688 time=0\n",
      "Received MIDI message: pitchwheel channel=0 pitch=2816 time=0\n",
      "Received MIDI message: pitchwheel channel=0 pitch=2944 time=0\n",
      "Received MIDI message: pitchwheel channel=0 pitch=3072 time=0\n",
      "Received MIDI message: pitchwheel channel=0 pitch=3200 time=0\n",
      "Received MIDI message: pitchwheel channel=0 pitch=3328 time=0\n",
      "Received MIDI message: pitchwheel channel=0 pitch=3456 time=0\n",
      "Received MIDI message: pitchwheel channel=0 pitch=3584 time=0\n",
      "Received MIDI message: pitchwheel channel=0 pitch=3712 time=0\n",
      "Received MIDI message: pitchwheel channel=0 pitch=3840 time=0\n",
      "Received MIDI message: pitchwheel channel=0 pitch=4096 time=0\n",
      "Received MIDI message: pitchwheel channel=0 pitch=4224 time=0\n",
      "Received MIDI message: pitchwheel channel=0 pitch=4352 time=0\n",
      "Received MIDI message: pitchwheel channel=0 pitch=4480 time=0\n",
      "Received MIDI message: pitchwheel channel=0 pitch=4608 time=0\n",
      "Received MIDI message: pitchwheel channel=0 pitch=4736 time=0\n",
      "Received MIDI message: pitchwheel channel=0 pitch=4864 time=0\n",
      "Received MIDI message: pitchwheel channel=0 pitch=4992 time=0\n",
      "Received MIDI message: pitchwheel channel=0 pitch=5120 time=0\n",
      "Received MIDI message: pitchwheel channel=0 pitch=5248 time=0\n",
      "Received MIDI message: pitchwheel channel=0 pitch=5376 time=0\n",
      "Received MIDI message: pitchwheel channel=0 pitch=5504 time=0\n",
      "Received MIDI message: pitchwheel channel=0 pitch=5632 time=0\n",
      "Received MIDI message: pitchwheel channel=0 pitch=5760 time=0\n",
      "Received MIDI message: pitchwheel channel=0 pitch=5888 time=0\n",
      "Received MIDI message: pitchwheel channel=0 pitch=6016 time=0\n",
      "Received MIDI message: pitchwheel channel=0 pitch=6144 time=0\n",
      "Received MIDI message: pitchwheel channel=0 pitch=6272 time=0\n",
      "Received MIDI message: pitchwheel channel=0 pitch=6400 time=0\n",
      "Received MIDI message: pitchwheel channel=0 pitch=6528 time=0\n",
      "Received MIDI message: pitchwheel channel=0 pitch=6656 time=0\n",
      "Received MIDI message: pitchwheel channel=0 pitch=6784 time=0\n",
      "Received MIDI message: pitchwheel channel=0 pitch=6912 time=0\n",
      "Received MIDI message: pitchwheel channel=0 pitch=7040 time=0\n",
      "Received MIDI message: pitchwheel channel=0 pitch=7168 time=0\n",
      "Received MIDI message: pitchwheel channel=0 pitch=7296 time=0\n",
      "Received MIDI message: pitchwheel channel=0 pitch=7424 time=0\n",
      "Received MIDI message: pitchwheel channel=0 pitch=7552 time=0\n",
      "Received MIDI message: pitchwheel channel=0 pitch=7680 time=0\n",
      "Received MIDI message: pitchwheel channel=0 pitch=7808 time=0\n",
      "Received MIDI message: pitchwheel channel=0 pitch=7936 time=0\n",
      "Received MIDI message: pitchwheel channel=0 pitch=8191 time=0\n",
      "Received MIDI message: control_change channel=0 control=1 value=1 time=0\n",
      "Received MIDI message: control_change channel=0 control=1 value=2 time=0\n",
      "Received MIDI message: control_change channel=0 control=1 value=3 time=0\n",
      "Received MIDI message: control_change channel=0 control=1 value=4 time=0\n",
      "Received MIDI message: control_change channel=0 control=1 value=5 time=0\n",
      "Received MIDI message: control_change channel=0 control=1 value=6 time=0\n",
      "Received MIDI message: control_change channel=0 control=1 value=8 time=0\n",
      "Received MIDI message: control_change channel=0 control=1 value=9 time=0\n",
      "Received MIDI message: control_change channel=0 control=1 value=10 time=0\n",
      "Received MIDI message: control_change channel=0 control=1 value=11 time=0\n",
      "Received MIDI message: control_change channel=0 control=1 value=12 time=0\n",
      "Received MIDI message: control_change channel=0 control=1 value=13 time=0\n",
      "Received MIDI message: control_change channel=0 control=1 value=14 time=0\n",
      "Received MIDI message: control_change channel=0 control=1 value=15 time=0\n",
      "Received MIDI message: control_change channel=0 control=1 value=16 time=0\n",
      "Received MIDI message: control_change channel=0 control=1 value=17 time=0\n",
      "Received MIDI message: pitchwheel channel=0 pitch=7936 time=0\n",
      "Received MIDI message: control_change channel=0 control=1 value=19 time=0\n",
      "Received MIDI message: control_change channel=0 control=1 value=20 time=0\n",
      "Received MIDI message: control_change channel=0 control=1 value=21 time=0\n",
      "Received MIDI message: pitchwheel channel=0 pitch=7808 time=0\n",
      "Received MIDI message: control_change channel=0 control=1 value=23 time=0\n",
      "Received MIDI message: control_change channel=0 control=1 value=25 time=0\n",
      "Received MIDI message: pitchwheel channel=0 pitch=7680 time=0\n",
      "Received MIDI message: control_change channel=0 control=1 value=27 time=0\n",
      "Received MIDI message: control_change channel=0 control=1 value=29 time=0\n",
      "Received MIDI message: pitchwheel channel=0 pitch=7552 time=0\n",
      "Received MIDI message: control_change channel=0 control=1 value=31 time=0\n",
      "Received MIDI message: pitchwheel channel=0 pitch=7424 time=0\n",
      "Received MIDI message: control_change channel=0 control=1 value=33 time=0\n",
      "Received MIDI message: control_change channel=0 control=1 value=34 time=0\n",
      "Received MIDI message: pitchwheel channel=0 pitch=7296 time=0\n",
      "Received MIDI message: control_change channel=0 control=1 value=36 time=0\n",
      "Received MIDI message: control_change channel=0 control=1 value=37 time=0\n",
      "Received MIDI message: pitchwheel channel=0 pitch=7168 time=0\n",
      "Received MIDI message: control_change channel=0 control=1 value=38 time=0\n",
      "Received MIDI message: pitchwheel channel=0 pitch=7040 time=0\n",
      "Received MIDI message: control_change channel=0 control=1 value=39 time=0\n",
      "Received MIDI message: control_change channel=0 control=1 value=41 time=0\n",
      "Received MIDI message: control_change channel=0 control=1 value=42 time=0\n",
      "Received MIDI message: pitchwheel channel=0 pitch=6912 time=0\n",
      "Received MIDI message: control_change channel=0 control=1 value=43 time=0\n",
      "Received MIDI message: control_change channel=0 control=1 value=44 time=0\n",
      "Received MIDI message: control_change channel=0 control=1 value=45 time=0\n",
      "Received MIDI message: pitchwheel channel=0 pitch=6784 time=0\n",
      "Received MIDI message: control_change channel=0 control=1 value=47 time=0\n",
      "Received MIDI message: control_change channel=0 control=1 value=48 time=0\n",
      "Received MIDI message: pitchwheel channel=0 pitch=6656 time=0\n",
      "Received MIDI message: control_change channel=0 control=1 value=49 time=0\n",
      "Received MIDI message: control_change channel=0 control=1 value=50 time=0\n",
      "Received MIDI message: control_change channel=0 control=1 value=51 time=0\n",
      "Received MIDI message: pitchwheel channel=0 pitch=6528 time=0\n",
      "Received MIDI message: pitchwheel channel=0 pitch=6400 time=0\n",
      "Received MIDI message: pitchwheel channel=0 pitch=6272 time=0\n",
      "Received MIDI message: pitchwheel channel=0 pitch=6144 time=0\n",
      "Received MIDI message: pitchwheel channel=0 pitch=6016 time=0\n",
      "Received MIDI message: pitchwheel channel=0 pitch=5888 time=0\n",
      "Received MIDI message: pitchwheel channel=0 pitch=5760 time=0\n",
      "Received MIDI message: pitchwheel channel=0 pitch=5632 time=0\n",
      "Received MIDI message: pitchwheel channel=0 pitch=5504 time=0\n",
      "Received MIDI message: pitchwheel channel=0 pitch=5376 time=0\n",
      "Received MIDI message: pitchwheel channel=0 pitch=5248 time=0\n",
      "Received MIDI message: pitchwheel channel=0 pitch=5120 time=0\n",
      "Received MIDI message: pitchwheel channel=0 pitch=4992 time=0\n",
      "Received MIDI message: pitchwheel channel=0 pitch=4864 time=0\n",
      "Received MIDI message: pitchwheel channel=0 pitch=4736 time=0\n",
      "Received MIDI message: pitchwheel channel=0 pitch=4608 time=0\n",
      "Received MIDI message: pitchwheel channel=0 pitch=4480 time=0\n",
      "Received MIDI message: pitchwheel channel=0 pitch=4352 time=0\n",
      "Received MIDI message: pitchwheel channel=0 pitch=4224 time=0\n",
      "Received MIDI message: pitchwheel channel=0 pitch=4096 time=0\n",
      "Received MIDI message: pitchwheel channel=0 pitch=3840 time=0\n",
      "Received MIDI message: pitchwheel channel=0 pitch=3712 time=0\n",
      "Received MIDI message: pitchwheel channel=0 pitch=3584 time=0\n",
      "Received MIDI message: pitchwheel channel=0 pitch=3456 time=0\n",
      "Received MIDI message: pitchwheel channel=0 pitch=3328 time=0\n",
      "Received MIDI message: pitchwheel channel=0 pitch=3200 time=0\n",
      "Received MIDI message: pitchwheel channel=0 pitch=3072 time=0\n",
      "Received MIDI message: pitchwheel channel=0 pitch=2944 time=0\n",
      "Received MIDI message: pitchwheel channel=0 pitch=2816 time=0\n",
      "Received MIDI message: pitchwheel channel=0 pitch=2688 time=0\n",
      "Received MIDI message: pitchwheel channel=0 pitch=2560 time=0\n",
      "Received MIDI message: pitchwheel channel=0 pitch=2432 time=0\n",
      "Received MIDI message: control_change channel=0 control=1 value=45 time=0\n",
      "Received MIDI message: pitchwheel channel=0 pitch=2304 time=0\n",
      "Received MIDI message: control_change channel=0 control=1 value=44 time=0\n",
      "Received MIDI message: pitchwheel channel=0 pitch=2176 time=0\n",
      "Received MIDI message: control_change channel=0 control=1 value=43 time=0\n",
      "Received MIDI message: pitchwheel channel=0 pitch=2048 time=0\n",
      "Received MIDI message: control_change channel=0 control=1 value=42 time=0\n",
      "Received MIDI message: pitchwheel channel=0 pitch=1920 time=0\n",
      "Received MIDI message: control_change channel=0 control=1 value=41 time=0\n",
      "Received MIDI message: pitchwheel channel=0 pitch=1792 time=0\n",
      "Received MIDI message: control_change channel=0 control=1 value=40 time=0\n",
      "Received MIDI message: pitchwheel channel=0 pitch=1664 time=0\n",
      "Received MIDI message: control_change channel=0 control=1 value=39 time=0\n",
      "Received MIDI message: control_change channel=0 control=1 value=38 time=0\n",
      "Received MIDI message: pitchwheel channel=0 pitch=1536 time=0\n",
      "Received MIDI message: pitchwheel channel=0 pitch=1408 time=0\n",
      "Received MIDI message: control_change channel=0 control=1 value=37 time=0\n",
      "Received MIDI message: pitchwheel channel=0 pitch=1280 time=0\n",
      "Received MIDI message: control_change channel=0 control=1 value=36 time=0\n",
      "Received MIDI message: pitchwheel channel=0 pitch=1152 time=0\n",
      "Received MIDI message: control_change channel=0 control=1 value=34 time=0\n",
      "Received MIDI message: pitchwheel channel=0 pitch=1024 time=0\n",
      "Received MIDI message: control_change channel=0 control=1 value=33 time=0\n",
      "Received MIDI message: control_change channel=0 control=1 value=32 time=0\n",
      "Received MIDI message: pitchwheel channel=0 pitch=896 time=0\n",
      "Received MIDI message: control_change channel=0 control=1 value=31 time=0\n",
      "Received MIDI message: pitchwheel channel=0 pitch=768 time=0\n",
      "Received MIDI message: control_change channel=0 control=1 value=30 time=0\n",
      "Received MIDI message: pitchwheel channel=0 pitch=640 time=0\n",
      "Received MIDI message: control_change channel=0 control=1 value=29 time=0\n",
      "Received MIDI message: pitchwheel channel=0 pitch=512 time=0\n",
      "Received MIDI message: control_change channel=0 control=1 value=28 time=0\n",
      "Received MIDI message: control_change channel=0 control=1 value=27 time=0\n",
      "Received MIDI message: pitchwheel channel=0 pitch=384 time=0\n",
      "Received MIDI message: control_change channel=0 control=1 value=26 time=0\n",
      "Received MIDI message: control_change channel=0 control=1 value=25 time=0\n",
      "Received MIDI message: pitchwheel channel=0 pitch=256 time=0\n",
      "Received MIDI message: pitchwheel channel=0 pitch=128 time=0\n",
      "Received MIDI message: control_change channel=0 control=1 value=24 time=0\n",
      "Received MIDI message: pitchwheel channel=0 pitch=0 time=0\n",
      "Received MIDI message: control_change channel=0 control=1 value=23 time=0\n",
      "Received MIDI message: control_change channel=0 control=1 value=22 time=0\n",
      "Received MIDI message: control_change channel=0 control=1 value=21 time=0\n",
      "Received MIDI message: control_change channel=0 control=1 value=20 time=0\n",
      "Received MIDI message: control_change channel=0 control=1 value=19 time=0\n",
      "Received MIDI message: control_change channel=0 control=1 value=18 time=0\n",
      "Received MIDI message: control_change channel=0 control=1 value=17 time=0\n",
      "Received MIDI message: control_change channel=0 control=1 value=16 time=0\n",
      "Received MIDI message: control_change channel=0 control=1 value=15 time=0\n",
      "Received MIDI message: control_change channel=0 control=1 value=14 time=0\n",
      "Received MIDI message: control_change channel=0 control=1 value=13 time=0\n",
      "Received MIDI message: control_change channel=0 control=1 value=12 time=0\n",
      "Received MIDI message: control_change channel=0 control=1 value=11 time=0\n",
      "Received MIDI message: control_change channel=0 control=1 value=10 time=0\n",
      "Received MIDI message: control_change channel=0 control=1 value=9 time=0\n",
      "Received MIDI message: control_change channel=0 control=1 value=7 time=0\n",
      "Received MIDI message: control_change channel=0 control=1 value=6 time=0\n",
      "Received MIDI message: control_change channel=0 control=1 value=5 time=0\n",
      "Received MIDI message: control_change channel=0 control=1 value=4 time=0\n",
      "Received MIDI message: control_change channel=0 control=1 value=3 time=0\n",
      "Received MIDI message: control_change channel=0 control=1 value=2 time=0\n",
      "Received MIDI message: control_change channel=0 control=1 value=1 time=0\n",
      "Received MIDI message: control_change channel=0 control=1 value=0 time=0\n",
      "Received MIDI message: control_change channel=0 control=1 value=1 time=0\n",
      "Received MIDI message: control_change channel=0 control=1 value=3 time=0\n",
      "Received MIDI message: control_change channel=0 control=1 value=4 time=0\n",
      "Received MIDI message: control_change channel=0 control=1 value=6 time=0\n",
      "Received MIDI message: control_change channel=0 control=1 value=8 time=0\n",
      "Received MIDI message: control_change channel=0 control=1 value=9 time=0\n",
      "Received MIDI message: control_change channel=0 control=1 value=10 time=0\n",
      "Received MIDI message: control_change channel=0 control=1 value=12 time=0\n",
      "Received MIDI message: control_change channel=0 control=1 value=14 time=0\n",
      "Received MIDI message: control_change channel=0 control=1 value=15 time=0\n",
      "Received MIDI message: control_change channel=0 control=1 value=16 time=0\n",
      "Received MIDI message: control_change channel=0 control=1 value=18 time=0\n",
      "Received MIDI message: control_change channel=0 control=1 value=20 time=0\n",
      "Received MIDI message: control_change channel=0 control=1 value=21 time=0\n",
      "Received MIDI message: control_change channel=0 control=1 value=23 time=0\n",
      "Received MIDI message: control_change channel=0 control=1 value=25 time=0\n",
      "Received MIDI message: control_change channel=0 control=1 value=27 time=0\n",
      "Received MIDI message: control_change channel=0 control=1 value=28 time=0\n",
      "Received MIDI message: control_change channel=0 control=1 value=30 time=0\n",
      "Received MIDI message: control_change channel=0 control=1 value=32 time=0\n",
      "Received MIDI message: control_change channel=0 control=1 value=34 time=0\n",
      "Received MIDI message: control_change channel=0 control=1 value=36 time=0\n",
      "Received MIDI message: control_change channel=0 control=1 value=38 time=0\n",
      "Received MIDI message: control_change channel=0 control=1 value=39 time=0\n",
      "Received MIDI message: control_change channel=0 control=1 value=41 time=0\n",
      "Received MIDI message: control_change channel=0 control=1 value=42 time=0\n",
      "Received MIDI message: control_change channel=0 control=1 value=44 time=0\n",
      "Received MIDI message: control_change channel=0 control=1 value=46 time=0\n",
      "Received MIDI message: control_change channel=0 control=1 value=49 time=0\n",
      "Received MIDI message: control_change channel=0 control=1 value=50 time=0\n",
      "Received MIDI message: control_change channel=0 control=1 value=53 time=0\n",
      "Received MIDI message: control_change channel=0 control=1 value=55 time=0\n",
      "Received MIDI message: control_change channel=0 control=1 value=57 time=0\n",
      "Received MIDI message: control_change channel=0 control=1 value=59 time=0\n",
      "Received MIDI message: control_change channel=0 control=1 value=61 time=0\n",
      "Received MIDI message: control_change channel=0 control=1 value=63 time=0\n",
      "Received MIDI message: control_change channel=0 control=1 value=65 time=0\n",
      "Received MIDI message: control_change channel=0 control=1 value=66 time=0\n",
      "Received MIDI message: control_change channel=0 control=1 value=68 time=0\n",
      "Received MIDI message: control_change channel=0 control=1 value=71 time=0\n",
      "Received MIDI message: control_change channel=0 control=1 value=73 time=0\n",
      "Received MIDI message: control_change channel=0 control=1 value=74 time=0\n",
      "Received MIDI message: control_change channel=0 control=1 value=76 time=0\n",
      "Received MIDI message: control_change channel=0 control=1 value=78 time=0\n",
      "Received MIDI message: control_change channel=0 control=1 value=80 time=0\n",
      "Received MIDI message: control_change channel=0 control=1 value=83 time=0\n",
      "Received MIDI message: control_change channel=0 control=1 value=84 time=0\n",
      "Received MIDI message: control_change channel=0 control=1 value=87 time=0\n",
      "Received MIDI message: control_change channel=0 control=1 value=89 time=0\n",
      "Received MIDI message: control_change channel=0 control=1 value=91 time=0\n",
      "Received MIDI message: control_change channel=0 control=1 value=93 time=0\n",
      "Received MIDI message: control_change channel=0 control=1 value=95 time=0\n",
      "Received MIDI message: control_change channel=0 control=1 value=97 time=0\n",
      "Received MIDI message: control_change channel=0 control=1 value=100 time=0\n",
      "Received MIDI message: control_change channel=0 control=1 value=102 time=0\n",
      "Received MIDI message: control_change channel=0 control=1 value=104 time=0\n",
      "Received MIDI message: control_change channel=0 control=1 value=106 time=0\n",
      "Received MIDI message: control_change channel=0 control=1 value=107 time=0\n",
      "Received MIDI message: control_change channel=0 control=1 value=110 time=0\n",
      "Received MIDI message: control_change channel=0 control=1 value=112 time=0\n",
      "Received MIDI message: control_change channel=0 control=1 value=115 time=0\n",
      "Received MIDI message: control_change channel=0 control=1 value=117 time=0\n",
      "Received MIDI message: control_change channel=0 control=1 value=118 time=0\n",
      "Received MIDI message: control_change channel=0 control=1 value=121 time=0\n",
      "Received MIDI message: control_change channel=0 control=1 value=123 time=0\n",
      "Received MIDI message: control_change channel=0 control=1 value=126 time=0\n",
      "Received MIDI message: control_change channel=0 control=1 value=127 time=0\n",
      "Received MIDI message: control_change channel=0 control=1 value=126 time=0\n",
      "Received MIDI message: control_change channel=0 control=1 value=125 time=0\n",
      "Received MIDI message: control_change channel=0 control=1 value=124 time=0\n",
      "Received MIDI message: control_change channel=0 control=1 value=123 time=0\n",
      "Received MIDI message: control_change channel=0 control=1 value=122 time=0\n",
      "Received MIDI message: control_change channel=0 control=1 value=121 time=0\n",
      "Received MIDI message: control_change channel=0 control=1 value=120 time=0\n",
      "Received MIDI message: control_change channel=0 control=1 value=119 time=0\n",
      "Received MIDI message: control_change channel=0 control=1 value=118 time=0\n",
      "Received MIDI message: control_change channel=0 control=1 value=117 time=0\n",
      "Received MIDI message: control_change channel=0 control=1 value=115 time=0\n",
      "Received MIDI message: control_change channel=0 control=1 value=113 time=0\n",
      "Received MIDI message: control_change channel=0 control=1 value=112 time=0\n",
      "Received MIDI message: control_change channel=0 control=1 value=111 time=0\n",
      "Received MIDI message: control_change channel=0 control=1 value=109 time=0\n",
      "Received MIDI message: control_change channel=0 control=1 value=108 time=0\n",
      "Received MIDI message: control_change channel=0 control=1 value=107 time=0\n",
      "Received MIDI message: control_change channel=0 control=1 value=106 time=0\n",
      "Received MIDI message: control_change channel=0 control=1 value=105 time=0\n",
      "Received MIDI message: control_change channel=0 control=1 value=104 time=0\n",
      "Received MIDI message: control_change channel=0 control=1 value=103 time=0\n",
      "Received MIDI message: control_change channel=0 control=1 value=101 time=0\n",
      "Received MIDI message: control_change channel=0 control=1 value=100 time=0\n",
      "Received MIDI message: control_change channel=0 control=1 value=98 time=0\n",
      "Received MIDI message: control_change channel=0 control=1 value=96 time=0\n",
      "Received MIDI message: control_change channel=0 control=1 value=95 time=0\n",
      "Received MIDI message: control_change channel=0 control=1 value=94 time=0\n",
      "Received MIDI message: control_change channel=0 control=1 value=93 time=0\n",
      "Received MIDI message: control_change channel=0 control=1 value=91 time=0\n",
      "Received MIDI message: control_change channel=0 control=1 value=89 time=0\n",
      "Received MIDI message: control_change channel=0 control=1 value=87 time=0\n",
      "Received MIDI message: control_change channel=0 control=1 value=86 time=0\n",
      "Received MIDI message: control_change channel=0 control=1 value=85 time=0\n",
      "Received MIDI message: control_change channel=0 control=1 value=84 time=0\n",
      "Received MIDI message: control_change channel=0 control=1 value=82 time=0\n",
      "Received MIDI message: control_change channel=0 control=1 value=80 time=0\n",
      "Received MIDI message: control_change channel=0 control=1 value=79 time=0\n",
      "Received MIDI message: control_change channel=0 control=1 value=78 time=0\n",
      "Received MIDI message: control_change channel=0 control=1 value=77 time=0\n",
      "Received MIDI message: control_change channel=0 control=1 value=76 time=0\n",
      "Received MIDI message: control_change channel=0 control=1 value=74 time=0\n",
      "Received MIDI message: control_change channel=0 control=1 value=73 time=0\n",
      "Received MIDI message: control_change channel=0 control=1 value=72 time=0\n",
      "Received MIDI message: control_change channel=0 control=1 value=71 time=0\n",
      "Received MIDI message: control_change channel=0 control=1 value=69 time=0\n",
      "Received MIDI message: control_change channel=0 control=1 value=68 time=0\n",
      "Received MIDI message: control_change channel=0 control=1 value=67 time=0\n",
      "Received MIDI message: control_change channel=0 control=1 value=65 time=0\n",
      "Received MIDI message: control_change channel=0 control=1 value=64 time=0\n",
      "Received MIDI message: control_change channel=0 control=1 value=63 time=0\n",
      "Received MIDI message: control_change channel=0 control=1 value=62 time=0\n",
      "Received MIDI message: control_change channel=0 control=1 value=60 time=0\n",
      "Received MIDI message: control_change channel=0 control=1 value=59 time=0\n",
      "Received MIDI message: control_change channel=0 control=1 value=58 time=0\n",
      "Received MIDI message: control_change channel=0 control=1 value=56 time=0\n",
      "Received MIDI message: control_change channel=0 control=1 value=55 time=0\n",
      "Received MIDI message: control_change channel=0 control=1 value=54 time=0\n",
      "Received MIDI message: control_change channel=0 control=1 value=53 time=0\n",
      "Received MIDI message: control_change channel=0 control=1 value=52 time=0\n",
      "Received MIDI message: control_change channel=0 control=1 value=51 time=0\n",
      "Received MIDI message: control_change channel=0 control=1 value=49 time=0\n",
      "Received MIDI message: control_change channel=0 control=1 value=47 time=0\n",
      "Received MIDI message: control_change channel=0 control=1 value=46 time=0\n",
      "Received MIDI message: control_change channel=0 control=1 value=45 time=0\n",
      "Received MIDI message: control_change channel=0 control=1 value=44 time=0\n",
      "Received MIDI message: control_change channel=0 control=1 value=43 time=0\n",
      "Received MIDI message: control_change channel=0 control=1 value=42 time=0\n",
      "Received MIDI message: control_change channel=0 control=1 value=41 time=0\n",
      "Received MIDI message: control_change channel=0 control=1 value=40 time=0\n",
      "Received MIDI message: control_change channel=0 control=1 value=39 time=0\n",
      "Received MIDI message: control_change channel=0 control=1 value=38 time=0\n",
      "Received MIDI message: control_change channel=0 control=1 value=37 time=0\n",
      "Received MIDI message: control_change channel=0 control=1 value=36 time=0\n",
      "Received MIDI message: control_change channel=0 control=1 value=35 time=0\n",
      "Received MIDI message: control_change channel=0 control=1 value=34 time=0\n",
      "Received MIDI message: control_change channel=0 control=1 value=33 time=0\n",
      "Received MIDI message: control_change channel=0 control=1 value=32 time=0\n",
      "Received MIDI message: control_change channel=0 control=1 value=31 time=0\n",
      "Received MIDI message: control_change channel=0 control=1 value=30 time=0\n",
      "Received MIDI message: control_change channel=0 control=1 value=29 time=0\n",
      "Received MIDI message: control_change channel=0 control=1 value=28 time=0\n",
      "Received MIDI message: control_change channel=0 control=1 value=27 time=0\n",
      "Received MIDI message: control_change channel=0 control=1 value=26 time=0\n",
      "Received MIDI message: control_change channel=0 control=1 value=25 time=0\n",
      "Received MIDI message: control_change channel=0 control=1 value=24 time=0\n",
      "Received MIDI message: control_change channel=0 control=1 value=23 time=0\n",
      "Received MIDI message: control_change channel=0 control=1 value=22 time=0\n",
      "Received MIDI message: control_change channel=0 control=1 value=20 time=0\n",
      "Received MIDI message: control_change channel=0 control=1 value=19 time=0\n",
      "Received MIDI message: control_change channel=0 control=1 value=18 time=0\n",
      "Received MIDI message: control_change channel=0 control=1 value=17 time=0\n",
      "Received MIDI message: control_change channel=0 control=1 value=16 time=0\n",
      "Received MIDI message: control_change channel=0 control=1 value=15 time=0\n",
      "Received MIDI message: control_change channel=0 control=1 value=14 time=0\n",
      "Received MIDI message: control_change channel=0 control=1 value=12 time=0\n",
      "Received MIDI message: control_change channel=0 control=1 value=10 time=0\n",
      "Received MIDI message: control_change channel=0 control=1 value=8 time=0\n",
      "Received MIDI message: control_change channel=0 control=1 value=6 time=0\n",
      "Received MIDI message: control_change channel=0 control=1 value=5 time=0\n",
      "Received MIDI message: control_change channel=0 control=1 value=3 time=0\n",
      "Received MIDI message: control_change channel=0 control=1 value=2 time=0\n",
      "Received MIDI message: control_change channel=0 control=1 value=1 time=0\n",
      "Received MIDI message: control_change channel=0 control=1 value=0 time=0\n",
      "Received MIDI message: control_change channel=0 control=4 value=3 time=0\n",
      "Received MIDI message: control_change channel=0 control=4 value=9 time=0\n",
      "Received MIDI message: control_change channel=0 control=4 value=15 time=0\n",
      "Received MIDI message: control_change channel=0 control=4 value=22 time=0\n",
      "Received MIDI message: control_change channel=0 control=4 value=27 time=0\n",
      "Received MIDI message: control_change channel=0 control=4 value=36 time=0\n",
      "Received MIDI message: control_change channel=0 control=4 value=43 time=0\n",
      "Received MIDI message: control_change channel=0 control=4 value=50 time=0\n",
      "Received MIDI message: control_change channel=0 control=4 value=57 time=0\n",
      "Received MIDI message: control_change channel=0 control=4 value=66 time=0\n",
      "Received MIDI message: control_change channel=0 control=4 value=73 time=0\n",
      "Received MIDI message: control_change channel=0 control=4 value=80 time=0\n",
      "Received MIDI message: control_change channel=0 control=4 value=87 time=0\n",
      "Received MIDI message: control_change channel=0 control=4 value=94 time=0\n",
      "Received MIDI message: control_change channel=0 control=4 value=103 time=0\n",
      "Received MIDI message: control_change channel=0 control=4 value=112 time=0\n",
      "Received MIDI message: control_change channel=0 control=4 value=121 time=0\n",
      "Received MIDI message: control_change channel=0 control=4 value=127 time=0\n",
      "Received MIDI message: control_change channel=0 control=4 value=121 time=0\n",
      "Received MIDI message: control_change channel=0 control=4 value=114 time=0\n",
      "Received MIDI message: control_change channel=0 control=4 value=104 time=0\n",
      "Received MIDI message: control_change channel=0 control=4 value=98 time=0\n",
      "Received MIDI message: control_change channel=0 control=4 value=88 time=0\n",
      "Received MIDI message: control_change channel=0 control=4 value=80 time=0\n",
      "Received MIDI message: control_change channel=0 control=4 value=74 time=0\n",
      "Received MIDI message: control_change channel=0 control=4 value=66 time=0\n",
      "Received MIDI message: control_change channel=0 control=4 value=57 time=0\n",
      "Received MIDI message: control_change channel=0 control=4 value=50 time=0\n",
      "Received MIDI message: control_change channel=0 control=4 value=43 time=0\n",
      "Received MIDI message: control_change channel=0 control=4 value=37 time=0\n",
      "Received MIDI message: control_change channel=0 control=4 value=29 time=0\n",
      "Received MIDI message: control_change channel=0 control=4 value=23 time=0\n",
      "Received MIDI message: control_change channel=0 control=4 value=15 time=0\n",
      "Received MIDI message: control_change channel=0 control=4 value=7 time=0\n",
      "Received MIDI message: control_change channel=0 control=4 value=2 time=0\n",
      "Received MIDI message: control_change channel=0 control=4 value=0 time=0\n",
      "Received MIDI message: control_change channel=0 control=4 value=1 time=0\n",
      "Received MIDI message: control_change channel=0 control=4 value=10 time=0\n",
      "Received MIDI message: control_change channel=0 control=4 value=18 time=0\n",
      "Received MIDI message: control_change channel=0 control=4 value=27 time=0\n",
      "Received MIDI message: control_change channel=0 control=4 value=37 time=0\n",
      "Received MIDI message: control_change channel=0 control=4 value=47 time=0\n",
      "Received MIDI message: control_change channel=0 control=4 value=54 time=0\n",
      "Received MIDI message: control_change channel=0 control=4 value=66 time=0\n",
      "Received MIDI message: control_change channel=0 control=4 value=75 time=0\n",
      "Received MIDI message: control_change channel=0 control=4 value=84 time=0\n",
      "Received MIDI message: control_change channel=0 control=4 value=94 time=0\n",
      "Received MIDI message: control_change channel=0 control=4 value=103 time=0\n",
      "Received MIDI message: control_change channel=0 control=4 value=114 time=0\n",
      "Received MIDI message: control_change channel=0 control=4 value=122 time=0\n",
      "Received MIDI message: control_change channel=0 control=4 value=127 time=0\n",
      "Received MIDI message: control_change channel=0 control=4 value=126 time=0\n",
      "Received MIDI message: control_change channel=0 control=4 value=118 time=0\n",
      "Received MIDI message: control_change channel=0 control=4 value=110 time=0\n",
      "Received MIDI message: control_change channel=0 control=4 value=102 time=0\n",
      "Received MIDI message: control_change channel=0 control=4 value=95 time=0\n",
      "Received MIDI message: control_change channel=0 control=4 value=84 time=0\n",
      "Received MIDI message: control_change channel=0 control=4 value=77 time=0\n",
      "Received MIDI message: control_change channel=0 control=4 value=69 time=0\n",
      "Received MIDI message: control_change channel=0 control=4 value=63 time=0\n",
      "Received MIDI message: control_change channel=0 control=4 value=53 time=0\n",
      "Received MIDI message: control_change channel=0 control=4 value=46 time=0\n",
      "Received MIDI message: control_change channel=0 control=4 value=37 time=0\n",
      "Received MIDI message: control_change channel=0 control=4 value=29 time=0\n",
      "Received MIDI message: control_change channel=0 control=4 value=20 time=0\n",
      "Received MIDI message: control_change channel=0 control=4 value=10 time=0\n",
      "Received MIDI message: control_change channel=0 control=4 value=2 time=0\n",
      "Received MIDI message: control_change channel=0 control=4 value=0 time=0\n",
      "Received MIDI message: pitchwheel channel=0 pitch=128 time=0\n",
      "Received MIDI message: pitchwheel channel=0 pitch=256 time=0\n",
      "Received MIDI message: pitchwheel channel=0 pitch=384 time=0\n",
      "Received MIDI message: pitchwheel channel=0 pitch=512 time=0\n",
      "Received MIDI message: pitchwheel channel=0 pitch=640 time=0\n",
      "Received MIDI message: pitchwheel channel=0 pitch=768 time=0\n",
      "Received MIDI message: pitchwheel channel=0 pitch=896 time=0\n",
      "Received MIDI message: pitchwheel channel=0 pitch=1024 time=0\n",
      "Received MIDI message: pitchwheel channel=0 pitch=1152 time=0\n",
      "Received MIDI message: pitchwheel channel=0 pitch=1280 time=0\n",
      "Received MIDI message: pitchwheel channel=0 pitch=1408 time=0\n",
      "Received MIDI message: pitchwheel channel=0 pitch=1536 time=0\n",
      "Received MIDI message: pitchwheel channel=0 pitch=1664 time=0\n",
      "Received MIDI message: pitchwheel channel=0 pitch=1792 time=0\n",
      "Received MIDI message: pitchwheel channel=0 pitch=1920 time=0\n",
      "Received MIDI message: pitchwheel channel=0 pitch=2048 time=0\n",
      "Received MIDI message: pitchwheel channel=0 pitch=2176 time=0\n",
      "Received MIDI message: pitchwheel channel=0 pitch=2304 time=0\n",
      "Received MIDI message: pitchwheel channel=0 pitch=2432 time=0\n",
      "Received MIDI message: pitchwheel channel=0 pitch=2560 time=0\n",
      "Received MIDI message: pitchwheel channel=0 pitch=2688 time=0\n",
      "Received MIDI message: pitchwheel channel=0 pitch=2816 time=0\n",
      "Received MIDI message: pitchwheel channel=0 pitch=2944 time=0\n",
      "Received MIDI message: pitchwheel channel=0 pitch=3072 time=0\n",
      "Received MIDI message: pitchwheel channel=0 pitch=3200 time=0\n",
      "Received MIDI message: pitchwheel channel=0 pitch=3328 time=0\n",
      "Received MIDI message: pitchwheel channel=0 pitch=3456 time=0\n",
      "Received MIDI message: pitchwheel channel=0 pitch=3584 time=0\n",
      "Received MIDI message: pitchwheel channel=0 pitch=3712 time=0\n",
      "Received MIDI message: pitchwheel channel=0 pitch=3840 time=0\n",
      "Received MIDI message: pitchwheel channel=0 pitch=4096 time=0\n",
      "Received MIDI message: pitchwheel channel=0 pitch=4224 time=0\n",
      "Received MIDI message: pitchwheel channel=0 pitch=4352 time=0\n",
      "Received MIDI message: pitchwheel channel=0 pitch=4480 time=0\n",
      "Received MIDI message: pitchwheel channel=0 pitch=4608 time=0\n",
      "Received MIDI message: pitchwheel channel=0 pitch=4736 time=0\n",
      "Received MIDI message: pitchwheel channel=0 pitch=4864 time=0\n",
      "Received MIDI message: pitchwheel channel=0 pitch=4992 time=0\n",
      "Received MIDI message: pitchwheel channel=0 pitch=5120 time=0\n",
      "Received MIDI message: pitchwheel channel=0 pitch=5248 time=0\n",
      "Received MIDI message: pitchwheel channel=0 pitch=5376 time=0\n",
      "Received MIDI message: pitchwheel channel=0 pitch=5504 time=0\n",
      "Received MIDI message: pitchwheel channel=0 pitch=5632 time=0\n",
      "Received MIDI message: pitchwheel channel=0 pitch=5888 time=0\n",
      "Received MIDI message: pitchwheel channel=0 pitch=6016 time=0\n",
      "Received MIDI message: pitchwheel channel=0 pitch=6272 time=0\n",
      "Received MIDI message: pitchwheel channel=0 pitch=6400 time=0\n",
      "Received MIDI message: pitchwheel channel=0 pitch=6528 time=0\n",
      "Received MIDI message: pitchwheel channel=0 pitch=6784 time=0\n",
      "Received MIDI message: pitchwheel channel=0 pitch=6912 time=0\n",
      "Received MIDI message: pitchwheel channel=0 pitch=7040 time=0\n",
      "Received MIDI message: pitchwheel channel=0 pitch=7168 time=0\n",
      "Received MIDI message: pitchwheel channel=0 pitch=7424 time=0\n",
      "Received MIDI message: pitchwheel channel=0 pitch=7552 time=0\n",
      "Received MIDI message: pitchwheel channel=0 pitch=7808 time=0\n",
      "Received MIDI message: pitchwheel channel=0 pitch=7936 time=0\n",
      "Received MIDI message: pitchwheel channel=0 pitch=8191 time=0\n",
      "Received MIDI message: pitchwheel channel=0 pitch=7936 time=0\n",
      "Received MIDI message: pitchwheel channel=0 pitch=7808 time=0\n",
      "Received MIDI message: pitchwheel channel=0 pitch=7680 time=0\n",
      "Received MIDI message: pitchwheel channel=0 pitch=7552 time=0\n",
      "Received MIDI message: pitchwheel channel=0 pitch=7424 time=0\n",
      "Received MIDI message: pitchwheel channel=0 pitch=7296 time=0\n",
      "Received MIDI message: pitchwheel channel=0 pitch=7168 time=0\n",
      "Received MIDI message: pitchwheel channel=0 pitch=7040 time=0\n",
      "Received MIDI message: pitchwheel channel=0 pitch=6912 time=0\n",
      "Received MIDI message: pitchwheel channel=0 pitch=6784 time=0\n",
      "Received MIDI message: pitchwheel channel=0 pitch=6656 time=0\n",
      "Received MIDI message: pitchwheel channel=0 pitch=6528 time=0\n",
      "Received MIDI message: pitchwheel channel=0 pitch=6400 time=0\n",
      "Received MIDI message: pitchwheel channel=0 pitch=6272 time=0\n",
      "Received MIDI message: pitchwheel channel=0 pitch=6144 time=0\n",
      "Received MIDI message: pitchwheel channel=0 pitch=6016 time=0\n",
      "Received MIDI message: pitchwheel channel=0 pitch=5888 time=0\n",
      "Received MIDI message: pitchwheel channel=0 pitch=5760 time=0\n",
      "Received MIDI message: pitchwheel channel=0 pitch=5632 time=0\n",
      "Received MIDI message: pitchwheel channel=0 pitch=5504 time=0\n",
      "Received MIDI message: pitchwheel channel=0 pitch=5376 time=0\n",
      "Received MIDI message: pitchwheel channel=0 pitch=5248 time=0\n",
      "Received MIDI message: pitchwheel channel=0 pitch=5120 time=0\n",
      "Received MIDI message: pitchwheel channel=0 pitch=4992 time=0\n",
      "Received MIDI message: pitchwheel channel=0 pitch=4864 time=0\n",
      "Received MIDI message: pitchwheel channel=0 pitch=4736 time=0\n",
      "Received MIDI message: pitchwheel channel=0 pitch=4608 time=0\n",
      "Received MIDI message: pitchwheel channel=0 pitch=4480 time=0\n",
      "Received MIDI message: pitchwheel channel=0 pitch=4352 time=0\n",
      "Received MIDI message: pitchwheel channel=0 pitch=4224 time=0\n",
      "Received MIDI message: pitchwheel channel=0 pitch=4096 time=0\n",
      "Received MIDI message: pitchwheel channel=0 pitch=3840 time=0\n",
      "Received MIDI message: pitchwheel channel=0 pitch=3712 time=0\n",
      "Received MIDI message: pitchwheel channel=0 pitch=3584 time=0\n",
      "Received MIDI message: pitchwheel channel=0 pitch=3456 time=0\n",
      "Received MIDI message: pitchwheel channel=0 pitch=3328 time=0\n",
      "Received MIDI message: pitchwheel channel=0 pitch=3200 time=0\n",
      "Received MIDI message: pitchwheel channel=0 pitch=3072 time=0\n",
      "Received MIDI message: pitchwheel channel=0 pitch=2944 time=0\n",
      "Received MIDI message: pitchwheel channel=0 pitch=2816 time=0\n",
      "Received MIDI message: pitchwheel channel=0 pitch=2688 time=0\n",
      "Received MIDI message: pitchwheel channel=0 pitch=2560 time=0\n",
      "Received MIDI message: pitchwheel channel=0 pitch=2432 time=0\n",
      "Received MIDI message: pitchwheel channel=0 pitch=2304 time=0\n",
      "Received MIDI message: pitchwheel channel=0 pitch=2176 time=0\n",
      "Received MIDI message: pitchwheel channel=0 pitch=2048 time=0\n",
      "Received MIDI message: pitchwheel channel=0 pitch=1920 time=0\n",
      "Received MIDI message: pitchwheel channel=0 pitch=1792 time=0\n",
      "Received MIDI message: pitchwheel channel=0 pitch=1664 time=0\n",
      "Received MIDI message: pitchwheel channel=0 pitch=1536 time=0\n",
      "Received MIDI message: pitchwheel channel=0 pitch=1408 time=0\n",
      "Received MIDI message: pitchwheel channel=0 pitch=1280 time=0\n",
      "Received MIDI message: pitchwheel channel=0 pitch=1152 time=0\n",
      "Received MIDI message: pitchwheel channel=0 pitch=1024 time=0\n",
      "Received MIDI message: pitchwheel channel=0 pitch=896 time=0\n",
      "Received MIDI message: pitchwheel channel=0 pitch=768 time=0\n",
      "Received MIDI message: pitchwheel channel=0 pitch=640 time=0\n",
      "Received MIDI message: pitchwheel channel=0 pitch=512 time=0\n",
      "Received MIDI message: pitchwheel channel=0 pitch=384 time=0\n",
      "Received MIDI message: pitchwheel channel=0 pitch=256 time=0\n",
      "Received MIDI message: pitchwheel channel=0 pitch=0 time=0\n",
      "Received MIDI message: note_on channel=0 note=55 velocity=124 time=0\n",
      "Received MIDI message: note_on channel=0 note=55 velocity=0 time=0\n",
      "Received MIDI message: note_on channel=0 note=53 velocity=126 time=0\n",
      "Received MIDI message: note_on channel=0 note=53 velocity=0 time=0\n",
      "Received MIDI message: note_on channel=0 note=55 velocity=127 time=0\n",
      "Received MIDI message: note_on channel=0 note=55 velocity=0 time=0\n",
      "Received MIDI message: note_on channel=0 note=55 velocity=127 time=0\n",
      "Received MIDI message: note_on channel=0 note=55 velocity=0 time=0\n",
      "Received MIDI message: pitchwheel channel=0 pitch=128 time=0\n",
      "Received MIDI message: pitchwheel channel=0 pitch=256 time=0\n",
      "Received MIDI message: pitchwheel channel=0 pitch=384 time=0\n",
      "Received MIDI message: pitchwheel channel=0 pitch=512 time=0\n",
      "Received MIDI message: pitchwheel channel=0 pitch=640 time=0\n",
      "Received MIDI message: pitchwheel channel=0 pitch=768 time=0\n",
      "Received MIDI message: pitchwheel channel=0 pitch=896 time=0\n",
      "Received MIDI message: pitchwheel channel=0 pitch=1024 time=0\n",
      "Received MIDI message: pitchwheel channel=0 pitch=1152 time=0\n",
      "Received MIDI message: pitchwheel channel=0 pitch=1280 time=0\n",
      "Received MIDI message: pitchwheel channel=0 pitch=1408 time=0\n",
      "Received MIDI message: pitchwheel channel=0 pitch=1536 time=0\n",
      "Received MIDI message: pitchwheel channel=0 pitch=1664 time=0\n",
      "Received MIDI message: pitchwheel channel=0 pitch=1792 time=0\n",
      "Received MIDI message: pitchwheel channel=0 pitch=1920 time=0\n",
      "Received MIDI message: pitchwheel channel=0 pitch=2048 time=0\n",
      "Received MIDI message: pitchwheel channel=0 pitch=2176 time=0\n",
      "Received MIDI message: pitchwheel channel=0 pitch=2304 time=0\n",
      "Received MIDI message: pitchwheel channel=0 pitch=2432 time=0\n",
      "Received MIDI message: pitchwheel channel=0 pitch=2560 time=0\n",
      "Received MIDI message: pitchwheel channel=0 pitch=2688 time=0\n",
      "Received MIDI message: pitchwheel channel=0 pitch=2816 time=0\n",
      "Received MIDI message: pitchwheel channel=0 pitch=2944 time=0\n",
      "Received MIDI message: pitchwheel channel=0 pitch=3072 time=0\n",
      "Received MIDI message: pitchwheel channel=0 pitch=3200 time=0\n",
      "Received MIDI message: pitchwheel channel=0 pitch=3328 time=0\n",
      "Received MIDI message: pitchwheel channel=0 pitch=3456 time=0\n",
      "Received MIDI message: pitchwheel channel=0 pitch=3584 time=0\n",
      "Received MIDI message: pitchwheel channel=0 pitch=3712 time=0\n",
      "Received MIDI message: pitchwheel channel=0 pitch=3840 time=0\n",
      "Received MIDI message: pitchwheel channel=0 pitch=4096 time=0\n",
      "Received MIDI message: pitchwheel channel=0 pitch=4224 time=0\n",
      "Received MIDI message: pitchwheel channel=0 pitch=4352 time=0\n",
      "Received MIDI message: pitchwheel channel=0 pitch=4480 time=0\n",
      "Received MIDI message: pitchwheel channel=0 pitch=4608 time=0\n",
      "Received MIDI message: pitchwheel channel=0 pitch=4736 time=0\n",
      "Received MIDI message: pitchwheel channel=0 pitch=4864 time=0\n",
      "Received MIDI message: pitchwheel channel=0 pitch=4992 time=0\n",
      "Received MIDI message: pitchwheel channel=0 pitch=5120 time=0\n",
      "Received MIDI message: pitchwheel channel=0 pitch=5248 time=0\n",
      "Received MIDI message: pitchwheel channel=0 pitch=5376 time=0\n",
      "Received MIDI message: pitchwheel channel=0 pitch=5504 time=0\n",
      "Received MIDI message: pitchwheel channel=0 pitch=5632 time=0\n",
      "Received MIDI message: pitchwheel channel=0 pitch=5760 time=0\n",
      "Received MIDI message: pitchwheel channel=0 pitch=5888 time=0\n",
      "Received MIDI message: pitchwheel channel=0 pitch=6016 time=0\n",
      "Received MIDI message: pitchwheel channel=0 pitch=6144 time=0\n",
      "Received MIDI message: pitchwheel channel=0 pitch=6272 time=0\n",
      "Received MIDI message: pitchwheel channel=0 pitch=6400 time=0\n",
      "Received MIDI message: pitchwheel channel=0 pitch=6528 time=0\n",
      "Received MIDI message: pitchwheel channel=0 pitch=6656 time=0\n",
      "Received MIDI message: pitchwheel channel=0 pitch=6784 time=0\n",
      "Received MIDI message: pitchwheel channel=0 pitch=6912 time=0\n",
      "Received MIDI message: pitchwheel channel=0 pitch=7040 time=0\n",
      "Received MIDI message: pitchwheel channel=0 pitch=7168 time=0\n",
      "Received MIDI message: pitchwheel channel=0 pitch=7296 time=0\n",
      "Received MIDI message: pitchwheel channel=0 pitch=7552 time=0\n",
      "Received MIDI message: pitchwheel channel=0 pitch=7680 time=0\n",
      "Received MIDI message: pitchwheel channel=0 pitch=7936 time=0\n",
      "Received MIDI message: pitchwheel channel=0 pitch=8191 time=0\n",
      "Received MIDI message: pitchwheel channel=0 pitch=7936 time=0\n",
      "Received MIDI message: pitchwheel channel=0 pitch=7808 time=0\n",
      "Received MIDI message: pitchwheel channel=0 pitch=7680 time=0\n",
      "Received MIDI message: pitchwheel channel=0 pitch=7552 time=0\n",
      "Received MIDI message: pitchwheel channel=0 pitch=7424 time=0\n",
      "Received MIDI message: pitchwheel channel=0 pitch=7296 time=0\n",
      "Received MIDI message: pitchwheel channel=0 pitch=7168 time=0\n",
      "Received MIDI message: pitchwheel channel=0 pitch=7040 time=0\n",
      "Received MIDI message: pitchwheel channel=0 pitch=6912 time=0\n",
      "Received MIDI message: pitchwheel channel=0 pitch=6784 time=0\n",
      "Received MIDI message: pitchwheel channel=0 pitch=6656 time=0\n",
      "Received MIDI message: pitchwheel channel=0 pitch=6528 time=0\n",
      "Received MIDI message: pitchwheel channel=0 pitch=6400 time=0\n",
      "Received MIDI message: pitchwheel channel=0 pitch=6272 time=0\n",
      "Received MIDI message: pitchwheel channel=0 pitch=6144 time=0\n",
      "Received MIDI message: pitchwheel channel=0 pitch=6016 time=0\n",
      "Received MIDI message: pitchwheel channel=0 pitch=5888 time=0\n",
      "Received MIDI message: pitchwheel channel=0 pitch=5760 time=0\n",
      "Received MIDI message: pitchwheel channel=0 pitch=5632 time=0\n",
      "Received MIDI message: pitchwheel channel=0 pitch=5504 time=0\n",
      "Received MIDI message: pitchwheel channel=0 pitch=5376 time=0\n",
      "Received MIDI message: pitchwheel channel=0 pitch=5248 time=0\n",
      "Received MIDI message: pitchwheel channel=0 pitch=5120 time=0\n",
      "Received MIDI message: pitchwheel channel=0 pitch=4992 time=0\n",
      "Received MIDI message: pitchwheel channel=0 pitch=4864 time=0\n",
      "Received MIDI message: pitchwheel channel=0 pitch=4736 time=0\n",
      "Received MIDI message: pitchwheel channel=0 pitch=4608 time=0\n",
      "Received MIDI message: pitchwheel channel=0 pitch=4480 time=0\n",
      "Received MIDI message: pitchwheel channel=0 pitch=4352 time=0\n",
      "Received MIDI message: pitchwheel channel=0 pitch=4224 time=0\n",
      "Received MIDI message: pitchwheel channel=0 pitch=4096 time=0\n",
      "Received MIDI message: pitchwheel channel=0 pitch=3840 time=0\n",
      "Received MIDI message: pitchwheel channel=0 pitch=3712 time=0\n",
      "Received MIDI message: pitchwheel channel=0 pitch=3584 time=0\n",
      "Received MIDI message: pitchwheel channel=0 pitch=3456 time=0\n",
      "Received MIDI message: pitchwheel channel=0 pitch=3328 time=0\n",
      "Received MIDI message: pitchwheel channel=0 pitch=3200 time=0\n",
      "Received MIDI message: pitchwheel channel=0 pitch=3072 time=0\n",
      "Received MIDI message: pitchwheel channel=0 pitch=2944 time=0\n",
      "Received MIDI message: pitchwheel channel=0 pitch=2816 time=0\n",
      "Received MIDI message: pitchwheel channel=0 pitch=2688 time=0\n",
      "Received MIDI message: pitchwheel channel=0 pitch=2560 time=0\n",
      "Received MIDI message: pitchwheel channel=0 pitch=2432 time=0\n",
      "Received MIDI message: pitchwheel channel=0 pitch=2304 time=0\n",
      "Received MIDI message: pitchwheel channel=0 pitch=2176 time=0\n",
      "Received MIDI message: pitchwheel channel=0 pitch=2048 time=0\n",
      "Received MIDI message: pitchwheel channel=0 pitch=1920 time=0\n",
      "Received MIDI message: pitchwheel channel=0 pitch=1792 time=0\n",
      "Received MIDI message: pitchwheel channel=0 pitch=1664 time=0\n",
      "Received MIDI message: pitchwheel channel=0 pitch=1536 time=0\n",
      "Received MIDI message: pitchwheel channel=0 pitch=1408 time=0\n",
      "Received MIDI message: pitchwheel channel=0 pitch=1280 time=0\n",
      "Received MIDI message: pitchwheel channel=0 pitch=1152 time=0\n",
      "Received MIDI message: pitchwheel channel=0 pitch=1024 time=0\n",
      "Received MIDI message: pitchwheel channel=0 pitch=896 time=0\n",
      "Received MIDI message: pitchwheel channel=0 pitch=640 time=0\n",
      "Received MIDI message: pitchwheel channel=0 pitch=512 time=0\n",
      "Received MIDI message: pitchwheel channel=0 pitch=256 time=0\n",
      "Received MIDI message: pitchwheel channel=0 pitch=0 time=0\n",
      "Received MIDI message: pitchwheel channel=0 pitch=-256 time=0\n",
      "Received MIDI message: pitchwheel channel=0 pitch=-384 time=0\n",
      "Received MIDI message: pitchwheel channel=0 pitch=-512 time=0\n",
      "Received MIDI message: pitchwheel channel=0 pitch=-768 time=0\n",
      "Received MIDI message: pitchwheel channel=0 pitch=-896 time=0\n",
      "Received MIDI message: pitchwheel channel=0 pitch=-1024 time=0\n",
      "Received MIDI message: pitchwheel channel=0 pitch=-1280 time=0\n",
      "Received MIDI message: pitchwheel channel=0 pitch=-1408 time=0\n",
      "Received MIDI message: pitchwheel channel=0 pitch=-1536 time=0\n",
      "Received MIDI message: pitchwheel channel=0 pitch=-1792 time=0\n",
      "Received MIDI message: pitchwheel channel=0 pitch=-1920 time=0\n",
      "Received MIDI message: pitchwheel channel=0 pitch=-2048 time=0\n",
      "Received MIDI message: pitchwheel channel=0 pitch=-2304 time=0\n",
      "Received MIDI message: pitchwheel channel=0 pitch=-2432 time=0\n",
      "Received MIDI message: pitchwheel channel=0 pitch=-2560 time=0\n",
      "Received MIDI message: pitchwheel channel=0 pitch=-2816 time=0\n",
      "Received MIDI message: pitchwheel channel=0 pitch=-2944 time=0\n",
      "Received MIDI message: pitchwheel channel=0 pitch=-3072 time=0\n",
      "Received MIDI message: pitchwheel channel=0 pitch=-3328 time=0\n",
      "Received MIDI message: pitchwheel channel=0 pitch=-3456 time=0\n",
      "Received MIDI message: pitchwheel channel=0 pitch=-3584 time=0\n",
      "Received MIDI message: pitchwheel channel=0 pitch=-3840 time=0\n",
      "Received MIDI message: pitchwheel channel=0 pitch=-3968 time=0\n",
      "Received MIDI message: pitchwheel channel=0 pitch=-4096 time=0\n",
      "Received MIDI message: pitchwheel channel=0 pitch=-4352 time=0\n",
      "Received MIDI message: pitchwheel channel=0 pitch=-4480 time=0\n",
      "Received MIDI message: pitchwheel channel=0 pitch=-4608 time=0\n",
      "Received MIDI message: pitchwheel channel=0 pitch=-4864 time=0\n",
      "Received MIDI message: pitchwheel channel=0 pitch=-4992 time=0\n",
      "Received MIDI message: pitchwheel channel=0 pitch=-5120 time=0\n",
      "Received MIDI message: pitchwheel channel=0 pitch=-5376 time=0\n",
      "Received MIDI message: pitchwheel channel=0 pitch=-5504 time=0\n",
      "Received MIDI message: pitchwheel channel=0 pitch=-5632 time=0\n",
      "Received MIDI message: pitchwheel channel=0 pitch=-5888 time=0\n",
      "Received MIDI message: pitchwheel channel=0 pitch=-6016 time=0\n",
      "Received MIDI message: pitchwheel channel=0 pitch=-6144 time=0\n",
      "Received MIDI message: pitchwheel channel=0 pitch=-6400 time=0\n",
      "Received MIDI message: pitchwheel channel=0 pitch=-6528 time=0\n",
      "Received MIDI message: pitchwheel channel=0 pitch=-6656 time=0\n",
      "Received MIDI message: pitchwheel channel=0 pitch=-6912 time=0\n",
      "Received MIDI message: pitchwheel channel=0 pitch=-7040 time=0\n",
      "Received MIDI message: pitchwheel channel=0 pitch=-7168 time=0\n",
      "Received MIDI message: pitchwheel channel=0 pitch=-7424 time=0\n",
      "Received MIDI message: pitchwheel channel=0 pitch=-7552 time=0\n",
      "Received MIDI message: pitchwheel channel=0 pitch=-7680 time=0\n",
      "Received MIDI message: pitchwheel channel=0 pitch=-7936 time=0\n",
      "Received MIDI message: pitchwheel channel=0 pitch=-8064 time=0\n",
      "Received MIDI message: pitchwheel channel=0 pitch=-8192 time=0\n",
      "Received MIDI message: pitchwheel channel=0 pitch=-8064 time=0\n",
      "Received MIDI message: pitchwheel channel=0 pitch=-7936 time=0\n",
      "Received MIDI message: pitchwheel channel=0 pitch=-7680 time=0\n",
      "Received MIDI message: pitchwheel channel=0 pitch=-7552 time=0\n",
      "Received MIDI message: pitchwheel channel=0 pitch=-7424 time=0\n",
      "Received MIDI message: pitchwheel channel=0 pitch=-7168 time=0\n",
      "Received MIDI message: pitchwheel channel=0 pitch=-7040 time=0\n",
      "Received MIDI message: pitchwheel channel=0 pitch=-6912 time=0\n",
      "Received MIDI message: pitchwheel channel=0 pitch=-6656 time=0\n",
      "Received MIDI message: pitchwheel channel=0 pitch=-6528 time=0\n",
      "Received MIDI message: pitchwheel channel=0 pitch=-6400 time=0\n",
      "Received MIDI message: pitchwheel channel=0 pitch=-6144 time=0\n",
      "Received MIDI message: pitchwheel channel=0 pitch=-6016 time=0\n",
      "Received MIDI message: pitchwheel channel=0 pitch=-5888 time=0\n",
      "Received MIDI message: pitchwheel channel=0 pitch=-5632 time=0\n",
      "Received MIDI message: pitchwheel channel=0 pitch=-5504 time=0\n",
      "Received MIDI message: pitchwheel channel=0 pitch=-5376 time=0\n",
      "Received MIDI message: pitchwheel channel=0 pitch=-5120 time=0\n",
      "Received MIDI message: pitchwheel channel=0 pitch=-4992 time=0\n",
      "Received MIDI message: pitchwheel channel=0 pitch=-4864 time=0\n",
      "Received MIDI message: pitchwheel channel=0 pitch=-4608 time=0\n",
      "Received MIDI message: pitchwheel channel=0 pitch=-4480 time=0\n",
      "Received MIDI message: pitchwheel channel=0 pitch=-4352 time=0\n",
      "Received MIDI message: pitchwheel channel=0 pitch=-4096 time=0\n",
      "Received MIDI message: pitchwheel channel=0 pitch=-3968 time=0\n",
      "Received MIDI message: pitchwheel channel=0 pitch=-3840 time=0\n",
      "Received MIDI message: pitchwheel channel=0 pitch=-3584 time=0\n",
      "Received MIDI message: pitchwheel channel=0 pitch=-3456 time=0\n",
      "Received MIDI message: pitchwheel channel=0 pitch=-3328 time=0\n",
      "Received MIDI message: pitchwheel channel=0 pitch=-3072 time=0\n",
      "Received MIDI message: pitchwheel channel=0 pitch=-2944 time=0\n",
      "Received MIDI message: pitchwheel channel=0 pitch=-2816 time=0\n",
      "Received MIDI message: pitchwheel channel=0 pitch=-2560 time=0\n",
      "Received MIDI message: pitchwheel channel=0 pitch=-2432 time=0\n",
      "Received MIDI message: pitchwheel channel=0 pitch=-2304 time=0\n",
      "Received MIDI message: pitchwheel channel=0 pitch=-2048 time=0\n",
      "Received MIDI message: pitchwheel channel=0 pitch=-1920 time=0\n",
      "Received MIDI message: pitchwheel channel=0 pitch=-1792 time=0\n",
      "Received MIDI message: pitchwheel channel=0 pitch=-1536 time=0\n",
      "Received MIDI message: pitchwheel channel=0 pitch=-1408 time=0\n",
      "Received MIDI message: pitchwheel channel=0 pitch=-1280 time=0\n",
      "Received MIDI message: pitchwheel channel=0 pitch=-1024 time=0\n",
      "Received MIDI message: pitchwheel channel=0 pitch=-896 time=0\n",
      "Received MIDI message: pitchwheel channel=0 pitch=-768 time=0\n",
      "Received MIDI message: pitchwheel channel=0 pitch=-512 time=0\n",
      "Received MIDI message: pitchwheel channel=0 pitch=-384 time=0\n",
      "Received MIDI message: pitchwheel channel=0 pitch=-256 time=0\n",
      "Received MIDI message: pitchwheel channel=0 pitch=0 time=0\n",
      "Received MIDI message: note_on channel=0 note=55 velocity=122 time=0\n",
      "Received MIDI message: pitchwheel channel=0 pitch=128 time=0\n",
      "Received MIDI message: pitchwheel channel=0 pitch=256 time=0\n",
      "Received MIDI message: pitchwheel channel=0 pitch=384 time=0\n",
      "Received MIDI message: pitchwheel channel=0 pitch=512 time=0\n",
      "Received MIDI message: pitchwheel channel=0 pitch=640 time=0\n",
      "Received MIDI message: pitchwheel channel=0 pitch=768 time=0\n",
      "Received MIDI message: pitchwheel channel=0 pitch=896 time=0\n",
      "Received MIDI message: pitchwheel channel=0 pitch=1024 time=0\n",
      "Received MIDI message: pitchwheel channel=0 pitch=1152 time=0\n",
      "Received MIDI message: pitchwheel channel=0 pitch=1280 time=0\n",
      "Received MIDI message: pitchwheel channel=0 pitch=1408 time=0\n",
      "Received MIDI message: pitchwheel channel=0 pitch=1536 time=0\n",
      "Received MIDI message: pitchwheel channel=0 pitch=1664 time=0\n",
      "Received MIDI message: pitchwheel channel=0 pitch=1792 time=0\n",
      "Received MIDI message: pitchwheel channel=0 pitch=1920 time=0\n",
      "Received MIDI message: pitchwheel channel=0 pitch=2048 time=0\n",
      "Received MIDI message: pitchwheel channel=0 pitch=2304 time=0\n",
      "Received MIDI message: pitchwheel channel=0 pitch=2560 time=0\n",
      "Received MIDI message: pitchwheel channel=0 pitch=2816 time=0\n",
      "Received MIDI message: pitchwheel channel=0 pitch=3072 time=0\n",
      "Received MIDI message: pitchwheel channel=0 pitch=3328 time=0\n",
      "Received MIDI message: pitchwheel channel=0 pitch=3584 time=0\n",
      "Received MIDI message: pitchwheel channel=0 pitch=3840 time=0\n",
      "Received MIDI message: pitchwheel channel=0 pitch=4224 time=0\n",
      "Received MIDI message: pitchwheel channel=0 pitch=4480 time=0\n",
      "Received MIDI message: pitchwheel channel=0 pitch=4736 time=0\n",
      "Received MIDI message: pitchwheel channel=0 pitch=4992 time=0\n",
      "Received MIDI message: pitchwheel channel=0 pitch=5248 time=0\n",
      "Received MIDI message: pitchwheel channel=0 pitch=5504 time=0\n",
      "Received MIDI message: pitchwheel channel=0 pitch=5760 time=0\n",
      "Received MIDI message: pitchwheel channel=0 pitch=6016 time=0\n",
      "Received MIDI message: pitchwheel channel=0 pitch=6272 time=0\n",
      "Received MIDI message: pitchwheel channel=0 pitch=6528 time=0\n",
      "Received MIDI message: pitchwheel channel=0 pitch=6784 time=0\n",
      "Received MIDI message: pitchwheel channel=0 pitch=7040 time=0\n",
      "Received MIDI message: pitchwheel channel=0 pitch=7296 time=0\n",
      "Received MIDI message: pitchwheel channel=0 pitch=7552 time=0\n",
      "Received MIDI message: pitchwheel channel=0 pitch=7808 time=0\n",
      "Received MIDI message: pitchwheel channel=0 pitch=8191 time=0\n",
      "Received MIDI message: pitchwheel channel=0 pitch=7936 time=0\n",
      "Received MIDI message: pitchwheel channel=0 pitch=7808 time=0\n",
      "Received MIDI message: pitchwheel channel=0 pitch=7680 time=0\n",
      "Received MIDI message: pitchwheel channel=0 pitch=7424 time=0\n",
      "Received MIDI message: pitchwheel channel=0 pitch=7168 time=0\n",
      "Received MIDI message: pitchwheel channel=0 pitch=6912 time=0\n",
      "Received MIDI message: pitchwheel channel=0 pitch=6656 time=0\n",
      "Received MIDI message: pitchwheel channel=0 pitch=6400 time=0\n",
      "Received MIDI message: pitchwheel channel=0 pitch=6016 time=0\n",
      "Received MIDI message: pitchwheel channel=0 pitch=5632 time=0\n",
      "Received MIDI message: pitchwheel channel=0 pitch=5248 time=0\n",
      "Received MIDI message: pitchwheel channel=0 pitch=4864 time=0\n",
      "Received MIDI message: pitchwheel channel=0 pitch=4352 time=0\n",
      "Received MIDI message: pitchwheel channel=0 pitch=3712 time=0\n",
      "Received MIDI message: pitchwheel channel=0 pitch=3200 time=0\n",
      "Received MIDI message: pitchwheel channel=0 pitch=2688 time=0\n",
      "Received MIDI message: pitchwheel channel=0 pitch=2048 time=0\n",
      "Received MIDI message: pitchwheel channel=0 pitch=1408 time=0\n",
      "Received MIDI message: pitchwheel channel=0 pitch=896 time=0\n",
      "Received MIDI message: pitchwheel channel=0 pitch=384 time=0\n",
      "Received MIDI message: pitchwheel channel=0 pitch=0 time=0\n",
      "Received MIDI message: pitchwheel channel=0 pitch=128 time=0\n",
      "Received MIDI message: pitchwheel channel=0 pitch=256 time=0\n",
      "Received MIDI message: pitchwheel channel=0 pitch=384 time=0\n",
      "Received MIDI message: pitchwheel channel=0 pitch=512 time=0\n",
      "Received MIDI message: pitchwheel channel=0 pitch=640 time=0\n",
      "Received MIDI message: pitchwheel channel=0 pitch=768 time=0\n",
      "Received MIDI message: pitchwheel channel=0 pitch=896 time=0\n",
      "Received MIDI message: pitchwheel channel=0 pitch=1024 time=0\n",
      "Received MIDI message: pitchwheel channel=0 pitch=1152 time=0\n",
      "Received MIDI message: pitchwheel channel=0 pitch=1280 time=0\n",
      "Received MIDI message: pitchwheel channel=0 pitch=1408 time=0\n",
      "Received MIDI message: pitchwheel channel=0 pitch=1536 time=0\n",
      "Received MIDI message: pitchwheel channel=0 pitch=1792 time=0\n",
      "Received MIDI message: pitchwheel channel=0 pitch=2048 time=0\n",
      "Received MIDI message: pitchwheel channel=0 pitch=2304 time=0\n",
      "Received MIDI message: pitchwheel channel=0 pitch=2560 time=0\n",
      "Received MIDI message: pitchwheel channel=0 pitch=2816 time=0\n",
      "Received MIDI message: pitchwheel channel=0 pitch=3072 time=0\n",
      "Received MIDI message: pitchwheel channel=0 pitch=3328 time=0\n",
      "Received MIDI message: pitchwheel channel=0 pitch=3584 time=0\n",
      "Received MIDI message: pitchwheel channel=0 pitch=3840 time=0\n",
      "Received MIDI message: pitchwheel channel=0 pitch=4224 time=0\n",
      "Received MIDI message: pitchwheel channel=0 pitch=4480 time=0\n",
      "Received MIDI message: pitchwheel channel=0 pitch=4736 time=0\n",
      "Received MIDI message: pitchwheel channel=0 pitch=4992 time=0\n",
      "Received MIDI message: pitchwheel channel=0 pitch=5248 time=0\n",
      "Received MIDI message: pitchwheel channel=0 pitch=5504 time=0\n",
      "Received MIDI message: pitchwheel channel=0 pitch=5760 time=0\n",
      "Received MIDI message: pitchwheel channel=0 pitch=6016 time=0\n",
      "Received MIDI message: pitchwheel channel=0 pitch=6272 time=0\n",
      "Received MIDI message: pitchwheel channel=0 pitch=6528 time=0\n",
      "Received MIDI message: pitchwheel channel=0 pitch=6784 time=0\n",
      "Received MIDI message: pitchwheel channel=0 pitch=7040 time=0\n",
      "Received MIDI message: pitchwheel channel=0 pitch=7296 time=0\n",
      "Received MIDI message: pitchwheel channel=0 pitch=7552 time=0\n",
      "Received MIDI message: pitchwheel channel=0 pitch=7808 time=0\n",
      "Received MIDI message: pitchwheel channel=0 pitch=8191 time=0\n",
      "Received MIDI message: pitchwheel channel=0 pitch=7808 time=0\n",
      "Received MIDI message: pitchwheel channel=0 pitch=7552 time=0\n",
      "Received MIDI message: pitchwheel channel=0 pitch=7296 time=0\n",
      "Received MIDI message: pitchwheel channel=0 pitch=7040 time=0\n",
      "Received MIDI message: pitchwheel channel=0 pitch=6656 time=0\n",
      "Received MIDI message: pitchwheel channel=0 pitch=6272 time=0\n",
      "Received MIDI message: pitchwheel channel=0 pitch=5888 time=0\n",
      "Received MIDI message: pitchwheel channel=0 pitch=5504 time=0\n",
      "Received MIDI message: pitchwheel channel=0 pitch=4992 time=0\n",
      "Received MIDI message: pitchwheel channel=0 pitch=4480 time=0\n",
      "Received MIDI message: pitchwheel channel=0 pitch=3840 time=0\n",
      "Received MIDI message: pitchwheel channel=0 pitch=3328 time=0\n",
      "Received MIDI message: pitchwheel channel=0 pitch=2816 time=0\n",
      "Received MIDI message: pitchwheel channel=0 pitch=2176 time=0\n",
      "Received MIDI message: pitchwheel channel=0 pitch=1536 time=0\n",
      "Received MIDI message: pitchwheel channel=0 pitch=1024 time=0\n",
      "Received MIDI message: pitchwheel channel=0 pitch=512 time=0\n",
      "Received MIDI message: pitchwheel channel=0 pitch=128 time=0\n",
      "Received MIDI message: pitchwheel channel=0 pitch=0 time=0\n",
      "Received MIDI message: pitchwheel channel=0 pitch=128 time=0\n",
      "Received MIDI message: pitchwheel channel=0 pitch=256 time=0\n",
      "Received MIDI message: pitchwheel channel=0 pitch=384 time=0\n",
      "Received MIDI message: pitchwheel channel=0 pitch=512 time=0\n",
      "Received MIDI message: pitchwheel channel=0 pitch=640 time=0\n",
      "Received MIDI message: pitchwheel channel=0 pitch=768 time=0\n",
      "Received MIDI message: pitchwheel channel=0 pitch=896 time=0\n",
      "Received MIDI message: pitchwheel channel=0 pitch=1152 time=0\n",
      "Received MIDI message: pitchwheel channel=0 pitch=1408 time=0\n",
      "Received MIDI message: pitchwheel channel=0 pitch=1664 time=0\n",
      "Received MIDI message: pitchwheel channel=0 pitch=1920 time=0\n",
      "Received MIDI message: pitchwheel channel=0 pitch=2176 time=0\n",
      "Received MIDI message: pitchwheel channel=0 pitch=2432 time=0\n",
      "Received MIDI message: pitchwheel channel=0 pitch=2688 time=0\n",
      "Received MIDI message: pitchwheel channel=0 pitch=2944 time=0\n",
      "Received MIDI message: pitchwheel channel=0 pitch=3200 time=0\n",
      "Received MIDI message: pitchwheel channel=0 pitch=3584 time=0\n",
      "Received MIDI message: pitchwheel channel=0 pitch=4096 time=0\n",
      "Received MIDI message: pitchwheel channel=0 pitch=4480 time=0\n",
      "Received MIDI message: pitchwheel channel=0 pitch=4864 time=0\n",
      "Received MIDI message: pitchwheel channel=0 pitch=5248 time=0\n",
      "Received MIDI message: pitchwheel channel=0 pitch=5632 time=0\n",
      "Received MIDI message: pitchwheel channel=0 pitch=6016 time=0\n",
      "Received MIDI message: pitchwheel channel=0 pitch=6400 time=0\n",
      "Received MIDI message: pitchwheel channel=0 pitch=6656 time=0\n",
      "Received MIDI message: pitchwheel channel=0 pitch=7040 time=0\n",
      "Received MIDI message: pitchwheel channel=0 pitch=7296 time=0\n",
      "Received MIDI message: pitchwheel channel=0 pitch=7552 time=0\n",
      "Received MIDI message: pitchwheel channel=0 pitch=7808 time=0\n",
      "Received MIDI message: pitchwheel channel=0 pitch=8191 time=0\n",
      "Received MIDI message: pitchwheel channel=0 pitch=7936 time=0\n",
      "Received MIDI message: pitchwheel channel=0 pitch=7808 time=0\n",
      "Received MIDI message: pitchwheel channel=0 pitch=7680 time=0\n",
      "Received MIDI message: pitchwheel channel=0 pitch=7552 time=0\n",
      "Received MIDI message: pitchwheel channel=0 pitch=7424 time=0\n",
      "Received MIDI message: pitchwheel channel=0 pitch=7296 time=0\n",
      "Received MIDI message: pitchwheel channel=0 pitch=7168 time=0\n",
      "Received MIDI message: pitchwheel channel=0 pitch=7040 time=0\n",
      "Received MIDI message: pitchwheel channel=0 pitch=6912 time=0\n",
      "Received MIDI message: pitchwheel channel=0 pitch=6784 time=0\n",
      "Received MIDI message: pitchwheel channel=0 pitch=6656 time=0\n",
      "Received MIDI message: pitchwheel channel=0 pitch=6528 time=0\n",
      "Received MIDI message: pitchwheel channel=0 pitch=6272 time=0\n",
      "Received MIDI message: pitchwheel channel=0 pitch=6016 time=0\n",
      "Received MIDI message: pitchwheel channel=0 pitch=5760 time=0\n",
      "Received MIDI message: pitchwheel channel=0 pitch=5504 time=0\n",
      "Received MIDI message: pitchwheel channel=0 pitch=5248 time=0\n",
      "Received MIDI message: pitchwheel channel=0 pitch=4992 time=0\n",
      "Received MIDI message: pitchwheel channel=0 pitch=4736 time=0\n",
      "Received MIDI message: pitchwheel channel=0 pitch=4480 time=0\n",
      "Received MIDI message: pitchwheel channel=0 pitch=4224 time=0\n",
      "Received MIDI message: pitchwheel channel=0 pitch=3712 time=0\n",
      "Received MIDI message: pitchwheel channel=0 pitch=3328 time=0\n",
      "Received MIDI message: pitchwheel channel=0 pitch=2944 time=0\n",
      "Received MIDI message: pitchwheel channel=0 pitch=2560 time=0\n",
      "Received MIDI message: pitchwheel channel=0 pitch=2176 time=0\n",
      "Received MIDI message: pitchwheel channel=0 pitch=1792 time=0\n",
      "Received MIDI message: pitchwheel channel=0 pitch=1408 time=0\n",
      "Received MIDI message: pitchwheel channel=0 pitch=1024 time=0\n",
      "Received MIDI message: pitchwheel channel=0 pitch=640 time=0\n",
      "Received MIDI message: pitchwheel channel=0 pitch=256 time=0\n",
      "Received MIDI message: pitchwheel channel=0 pitch=0 time=0\n",
      "Received MIDI message: pitchwheel channel=0 pitch=128 time=0\n",
      "Received MIDI message: pitchwheel channel=0 pitch=256 time=0\n",
      "Received MIDI message: pitchwheel channel=0 pitch=384 time=0\n",
      "Received MIDI message: pitchwheel channel=0 pitch=640 time=0\n",
      "Received MIDI message: pitchwheel channel=0 pitch=896 time=0\n",
      "Received MIDI message: pitchwheel channel=0 pitch=1152 time=0\n",
      "Received MIDI message: pitchwheel channel=0 pitch=1408 time=0\n",
      "Received MIDI message: pitchwheel channel=0 pitch=1664 time=0\n",
      "Received MIDI message: pitchwheel channel=0 pitch=1920 time=0\n",
      "Received MIDI message: pitchwheel channel=0 pitch=2176 time=0\n",
      "Received MIDI message: pitchwheel channel=0 pitch=2432 time=0\n",
      "Received MIDI message: pitchwheel channel=0 pitch=2816 time=0\n",
      "Received MIDI message: pitchwheel channel=0 pitch=3200 time=0\n",
      "Received MIDI message: pitchwheel channel=0 pitch=3584 time=0\n",
      "Received MIDI message: pitchwheel channel=0 pitch=4096 time=0\n",
      "Received MIDI message: pitchwheel channel=0 pitch=4480 time=0\n",
      "Received MIDI message: pitchwheel channel=0 pitch=4864 time=0\n",
      "Received MIDI message: pitchwheel channel=0 pitch=5248 time=0\n",
      "Received MIDI message: pitchwheel channel=0 pitch=5632 time=0\n",
      "Received MIDI message: pitchwheel channel=0 pitch=6016 time=0\n",
      "Received MIDI message: pitchwheel channel=0 pitch=6400 time=0\n",
      "Received MIDI message: pitchwheel channel=0 pitch=6784 time=0\n",
      "Received MIDI message: pitchwheel channel=0 pitch=7168 time=0\n",
      "Received MIDI message: pitchwheel channel=0 pitch=7424 time=0\n",
      "Received MIDI message: pitchwheel channel=0 pitch=7680 time=0\n",
      "Received MIDI message: pitchwheel channel=0 pitch=7936 time=0\n",
      "Received MIDI message: pitchwheel channel=0 pitch=8191 time=0\n",
      "Received MIDI message: pitchwheel channel=0 pitch=7936 time=0\n",
      "Received MIDI message: pitchwheel channel=0 pitch=7808 time=0\n",
      "Received MIDI message: pitchwheel channel=0 pitch=7552 time=0\n",
      "Received MIDI message: pitchwheel channel=0 pitch=7296 time=0\n",
      "Received MIDI message: pitchwheel channel=0 pitch=7040 time=0\n",
      "Received MIDI message: pitchwheel channel=0 pitch=6784 time=0\n",
      "Received MIDI message: pitchwheel channel=0 pitch=6528 time=0\n",
      "Received MIDI message: pitchwheel channel=0 pitch=6272 time=0\n",
      "Received MIDI message: pitchwheel channel=0 pitch=5888 time=0\n",
      "Received MIDI message: pitchwheel channel=0 pitch=5504 time=0\n",
      "Received MIDI message: pitchwheel channel=0 pitch=5120 time=0\n",
      "Received MIDI message: pitchwheel channel=0 pitch=4736 time=0\n",
      "Received MIDI message: pitchwheel channel=0 pitch=4352 time=0\n",
      "Received MIDI message: pitchwheel channel=0 pitch=3840 time=0\n",
      "Received MIDI message: pitchwheel channel=0 pitch=3456 time=0\n",
      "Received MIDI message: pitchwheel channel=0 pitch=3072 time=0\n",
      "Received MIDI message: pitchwheel channel=0 pitch=2688 time=0\n",
      "Received MIDI message: pitchwheel channel=0 pitch=2176 time=0\n",
      "Received MIDI message: pitchwheel channel=0 pitch=1664 time=0\n",
      "Received MIDI message: pitchwheel channel=0 pitch=1280 time=0\n",
      "Received MIDI message: pitchwheel channel=0 pitch=896 time=0\n",
      "Received MIDI message: pitchwheel channel=0 pitch=512 time=0\n",
      "Received MIDI message: pitchwheel channel=0 pitch=128 time=0\n",
      "Received MIDI message: pitchwheel channel=0 pitch=0 time=0\n",
      "Received MIDI message: pitchwheel channel=0 pitch=128 time=0\n",
      "Received MIDI message: pitchwheel channel=0 pitch=256 time=0\n",
      "Received MIDI message: pitchwheel channel=0 pitch=384 time=0\n",
      "Received MIDI message: pitchwheel channel=0 pitch=512 time=0\n",
      "Received MIDI message: pitchwheel channel=0 pitch=640 time=0\n",
      "Received MIDI message: pitchwheel channel=0 pitch=896 time=0\n",
      "Received MIDI message: pitchwheel channel=0 pitch=1152 time=0\n",
      "Received MIDI message: pitchwheel channel=0 pitch=1408 time=0\n",
      "Received MIDI message: pitchwheel channel=0 pitch=1664 time=0\n",
      "Received MIDI message: pitchwheel channel=0 pitch=1920 time=0\n",
      "Received MIDI message: pitchwheel channel=0 pitch=2176 time=0\n",
      "Received MIDI message: pitchwheel channel=0 pitch=2432 time=0\n",
      "Received MIDI message: pitchwheel channel=0 pitch=2816 time=0\n",
      "Received MIDI message: pitchwheel channel=0 pitch=3200 time=0\n",
      "Received MIDI message: pitchwheel channel=0 pitch=3584 time=0\n",
      "Received MIDI message: pitchwheel channel=0 pitch=4096 time=0\n",
      "Received MIDI message: pitchwheel channel=0 pitch=4480 time=0\n",
      "Received MIDI message: pitchwheel channel=0 pitch=4864 time=0\n",
      "Received MIDI message: pitchwheel channel=0 pitch=5248 time=0\n",
      "Received MIDI message: pitchwheel channel=0 pitch=5632 time=0\n",
      "Received MIDI message: pitchwheel channel=0 pitch=6016 time=0\n",
      "Received MIDI message: pitchwheel channel=0 pitch=6272 time=0\n",
      "Received MIDI message: pitchwheel channel=0 pitch=6656 time=0\n",
      "Received MIDI message: pitchwheel channel=0 pitch=6912 time=0\n",
      "Received MIDI message: pitchwheel channel=0 pitch=7168 time=0\n",
      "Received MIDI message: pitchwheel channel=0 pitch=7424 time=0\n",
      "Received MIDI message: pitchwheel channel=0 pitch=7680 time=0\n",
      "Received MIDI message: pitchwheel channel=0 pitch=7936 time=0\n",
      "Received MIDI message: pitchwheel channel=0 pitch=8191 time=0\n",
      "Received MIDI message: pitchwheel channel=0 pitch=7936 time=0\n",
      "Received MIDI message: pitchwheel channel=0 pitch=7808 time=0\n",
      "Received MIDI message: pitchwheel channel=0 pitch=7680 time=0\n",
      "Received MIDI message: pitchwheel channel=0 pitch=7552 time=0\n",
      "Received MIDI message: pitchwheel channel=0 pitch=7424 time=0\n",
      "Received MIDI message: pitchwheel channel=0 pitch=7168 time=0\n",
      "Received MIDI message: pitchwheel channel=0 pitch=6912 time=0\n",
      "Received MIDI message: pitchwheel channel=0 pitch=6656 time=0\n",
      "Received MIDI message: pitchwheel channel=0 pitch=6400 time=0\n",
      "Received MIDI message: pitchwheel channel=0 pitch=6144 time=0\n",
      "Received MIDI message: pitchwheel channel=0 pitch=5888 time=0\n",
      "Received MIDI message: pitchwheel channel=0 pitch=5632 time=0\n",
      "Received MIDI message: pitchwheel channel=0 pitch=5248 time=0\n",
      "Received MIDI message: pitchwheel channel=0 pitch=4864 time=0\n",
      "Received MIDI message: pitchwheel channel=0 pitch=4608 time=0\n",
      "Received MIDI message: pitchwheel channel=0 pitch=4224 time=0\n",
      "Received MIDI message: pitchwheel channel=0 pitch=3712 time=0\n",
      "Received MIDI message: pitchwheel channel=0 pitch=3456 time=0\n",
      "Received MIDI message: pitchwheel channel=0 pitch=3072 time=0\n",
      "Received MIDI message: pitchwheel channel=0 pitch=2688 time=0\n",
      "Received MIDI message: pitchwheel channel=0 pitch=2432 time=0\n",
      "Received MIDI message: pitchwheel channel=0 pitch=2176 time=0\n",
      "Received MIDI message: pitchwheel channel=0 pitch=1920 time=0\n",
      "Received MIDI message: pitchwheel channel=0 pitch=1664 time=0\n",
      "Received MIDI message: pitchwheel channel=0 pitch=1408 time=0\n",
      "Received MIDI message: pitchwheel channel=0 pitch=1152 time=0\n",
      "Received MIDI message: pitchwheel channel=0 pitch=896 time=0\n",
      "Received MIDI message: pitchwheel channel=0 pitch=640 time=0\n",
      "Received MIDI message: pitchwheel channel=0 pitch=384 time=0\n",
      "Received MIDI message: pitchwheel channel=0 pitch=128 time=0\n",
      "Received MIDI message: pitchwheel channel=0 pitch=0 time=0\n",
      "Received MIDI message: pitchwheel channel=0 pitch=128 time=0\n",
      "Received MIDI message: pitchwheel channel=0 pitch=256 time=0\n",
      "Received MIDI message: pitchwheel channel=0 pitch=384 time=0\n",
      "Received MIDI message: pitchwheel channel=0 pitch=512 time=0\n",
      "Received MIDI message: pitchwheel channel=0 pitch=640 time=0\n",
      "Received MIDI message: pitchwheel channel=0 pitch=768 time=0\n",
      "Received MIDI message: pitchwheel channel=0 pitch=896 time=0\n",
      "Received MIDI message: pitchwheel channel=0 pitch=1024 time=0\n",
      "Received MIDI message: pitchwheel channel=0 pitch=1152 time=0\n",
      "Received MIDI message: pitchwheel channel=0 pitch=1280 time=0\n",
      "Received MIDI message: pitchwheel channel=0 pitch=1408 time=0\n",
      "Received MIDI message: pitchwheel channel=0 pitch=1536 time=0\n",
      "Received MIDI message: pitchwheel channel=0 pitch=1664 time=0\n",
      "Received MIDI message: pitchwheel channel=0 pitch=1792 time=0\n",
      "Received MIDI message: pitchwheel channel=0 pitch=1920 time=0\n",
      "Received MIDI message: pitchwheel channel=0 pitch=2048 time=0\n",
      "Received MIDI message: pitchwheel channel=0 pitch=2176 time=0\n",
      "Received MIDI message: pitchwheel channel=0 pitch=2304 time=0\n",
      "Received MIDI message: pitchwheel channel=0 pitch=2432 time=0\n",
      "Received MIDI message: pitchwheel channel=0 pitch=2560 time=0\n",
      "Received MIDI message: pitchwheel channel=0 pitch=2688 time=0\n",
      "Received MIDI message: pitchwheel channel=0 pitch=2816 time=0\n",
      "Received MIDI message: pitchwheel channel=0 pitch=2944 time=0\n",
      "Received MIDI message: pitchwheel channel=0 pitch=3072 time=0\n",
      "Received MIDI message: pitchwheel channel=0 pitch=3200 time=0\n",
      "Received MIDI message: pitchwheel channel=0 pitch=3328 time=0\n",
      "Received MIDI message: pitchwheel channel=0 pitch=3456 time=0\n",
      "Received MIDI message: pitchwheel channel=0 pitch=3584 time=0\n",
      "Received MIDI message: pitchwheel channel=0 pitch=3712 time=0\n",
      "Received MIDI message: pitchwheel channel=0 pitch=3840 time=0\n",
      "Received MIDI message: pitchwheel channel=0 pitch=4096 time=0\n",
      "Received MIDI message: pitchwheel channel=0 pitch=4352 time=0\n",
      "Received MIDI message: pitchwheel channel=0 pitch=4480 time=0\n",
      "Received MIDI message: pitchwheel channel=0 pitch=4736 time=0\n",
      "Received MIDI message: pitchwheel channel=0 pitch=4992 time=0\n",
      "Received MIDI message: pitchwheel channel=0 pitch=5248 time=0\n",
      "Received MIDI message: pitchwheel channel=0 pitch=5504 time=0\n",
      "Received MIDI message: pitchwheel channel=0 pitch=5760 time=0\n",
      "Received MIDI message: pitchwheel channel=0 pitch=5888 time=0\n",
      "Received MIDI message: pitchwheel channel=0 pitch=6144 time=0\n",
      "Received MIDI message: pitchwheel channel=0 pitch=6400 time=0\n",
      "Received MIDI message: pitchwheel channel=0 pitch=6528 time=0\n",
      "Received MIDI message: pitchwheel channel=0 pitch=6784 time=0\n",
      "Received MIDI message: pitchwheel channel=0 pitch=7040 time=0\n",
      "Received MIDI message: pitchwheel channel=0 pitch=7168 time=0\n",
      "Received MIDI message: pitchwheel channel=0 pitch=7424 time=0\n",
      "Received MIDI message: pitchwheel channel=0 pitch=7552 time=0\n",
      "Received MIDI message: pitchwheel channel=0 pitch=7808 time=0\n",
      "Received MIDI message: pitchwheel channel=0 pitch=7936 time=0\n",
      "Received MIDI message: pitchwheel channel=0 pitch=8191 time=0\n",
      "Received MIDI message: pitchwheel channel=0 pitch=7936 time=0\n",
      "Received MIDI message: pitchwheel channel=0 pitch=7808 time=0\n",
      "Received MIDI message: pitchwheel channel=0 pitch=7680 time=0\n",
      "Received MIDI message: pitchwheel channel=0 pitch=7552 time=0\n",
      "Received MIDI message: pitchwheel channel=0 pitch=7424 time=0\n",
      "Received MIDI message: pitchwheel channel=0 pitch=7296 time=0\n",
      "Received MIDI message: pitchwheel channel=0 pitch=7168 time=0\n",
      "Received MIDI message: pitchwheel channel=0 pitch=7040 time=0\n",
      "Received MIDI message: pitchwheel channel=0 pitch=6912 time=0\n",
      "Received MIDI message: pitchwheel channel=0 pitch=6784 time=0\n",
      "Received MIDI message: pitchwheel channel=0 pitch=6656 time=0\n",
      "Received MIDI message: pitchwheel channel=0 pitch=6528 time=0\n",
      "Received MIDI message: pitchwheel channel=0 pitch=6400 time=0\n",
      "Received MIDI message: pitchwheel channel=0 pitch=6144 time=0\n",
      "Received MIDI message: pitchwheel channel=0 pitch=5888 time=0\n",
      "Received MIDI message: pitchwheel channel=0 pitch=5632 time=0\n",
      "Received MIDI message: pitchwheel channel=0 pitch=5376 time=0\n",
      "Received MIDI message: pitchwheel channel=0 pitch=5120 time=0\n",
      "Received MIDI message: pitchwheel channel=0 pitch=4864 time=0\n",
      "Received MIDI message: pitchwheel channel=0 pitch=4608 time=0\n",
      "Received MIDI message: pitchwheel channel=0 pitch=4352 time=0\n",
      "Received MIDI message: pitchwheel channel=0 pitch=4096 time=0\n",
      "Received MIDI message: pitchwheel channel=0 pitch=3712 time=0\n",
      "Received MIDI message: pitchwheel channel=0 pitch=3456 time=0\n",
      "Received MIDI message: pitchwheel channel=0 pitch=3200 time=0\n",
      "Received MIDI message: pitchwheel channel=0 pitch=2944 time=0\n",
      "Received MIDI message: pitchwheel channel=0 pitch=2688 time=0\n",
      "Received MIDI message: pitchwheel channel=0 pitch=2432 time=0\n",
      "Received MIDI message: pitchwheel channel=0 pitch=2176 time=0\n",
      "Received MIDI message: pitchwheel channel=0 pitch=1920 time=0\n",
      "Received MIDI message: pitchwheel channel=0 pitch=1664 time=0\n",
      "Received MIDI message: pitchwheel channel=0 pitch=1408 time=0\n",
      "Received MIDI message: pitchwheel channel=0 pitch=1152 time=0\n",
      "Received MIDI message: pitchwheel channel=0 pitch=896 time=0\n",
      "Received MIDI message: pitchwheel channel=0 pitch=512 time=0\n",
      "Received MIDI message: pitchwheel channel=0 pitch=256 time=0\n",
      "Received MIDI message: pitchwheel channel=0 pitch=0 time=0\n",
      "Received MIDI message: pitchwheel channel=0 pitch=128 time=0\n",
      "Received MIDI message: pitchwheel channel=0 pitch=256 time=0\n",
      "Received MIDI message: pitchwheel channel=0 pitch=384 time=0\n",
      "Received MIDI message: pitchwheel channel=0 pitch=512 time=0\n",
      "Received MIDI message: pitchwheel channel=0 pitch=640 time=0\n",
      "Received MIDI message: pitchwheel channel=0 pitch=768 time=0\n",
      "Received MIDI message: pitchwheel channel=0 pitch=896 time=0\n",
      "Received MIDI message: pitchwheel channel=0 pitch=1024 time=0\n",
      "Received MIDI message: pitchwheel channel=0 pitch=1152 time=0\n",
      "Received MIDI message: pitchwheel channel=0 pitch=1280 time=0\n",
      "Received MIDI message: pitchwheel channel=0 pitch=1408 time=0\n",
      "Received MIDI message: pitchwheel channel=0 pitch=1536 time=0\n",
      "Received MIDI message: pitchwheel channel=0 pitch=1664 time=0\n",
      "Received MIDI message: pitchwheel channel=0 pitch=1792 time=0\n",
      "Received MIDI message: pitchwheel channel=0 pitch=1920 time=0\n",
      "Received MIDI message: pitchwheel channel=0 pitch=2048 time=0\n",
      "Received MIDI message: pitchwheel channel=0 pitch=2176 time=0\n",
      "Received MIDI message: pitchwheel channel=0 pitch=2304 time=0\n",
      "Received MIDI message: pitchwheel channel=0 pitch=2432 time=0\n",
      "Received MIDI message: pitchwheel channel=0 pitch=2688 time=0\n",
      "Received MIDI message: pitchwheel channel=0 pitch=2944 time=0\n",
      "Received MIDI message: pitchwheel channel=0 pitch=3200 time=0\n",
      "Received MIDI message: pitchwheel channel=0 pitch=3456 time=0\n",
      "Received MIDI message: pitchwheel channel=0 pitch=3584 time=0\n",
      "Received MIDI message: pitchwheel channel=0 pitch=3840 time=0\n",
      "Received MIDI message: pitchwheel channel=0 pitch=4224 time=0\n",
      "Received MIDI message: pitchwheel channel=0 pitch=4352 time=0\n",
      "Received MIDI message: pitchwheel channel=0 pitch=4608 time=0\n",
      "Received MIDI message: pitchwheel channel=0 pitch=4736 time=0\n",
      "Received MIDI message: pitchwheel channel=0 pitch=4992 time=0\n",
      "Received MIDI message: pitchwheel channel=0 pitch=5120 time=0\n",
      "Received MIDI message: pitchwheel channel=0 pitch=5376 time=0\n",
      "Received MIDI message: pitchwheel channel=0 pitch=5504 time=0\n",
      "Received MIDI message: pitchwheel channel=0 pitch=5760 time=0\n",
      "Received MIDI message: pitchwheel channel=0 pitch=5888 time=0\n",
      "Received MIDI message: pitchwheel channel=0 pitch=6016 time=0\n",
      "Received MIDI message: pitchwheel channel=0 pitch=6144 time=0\n",
      "Received MIDI message: pitchwheel channel=0 pitch=6400 time=0\n",
      "Received MIDI message: pitchwheel channel=0 pitch=6528 time=0\n",
      "Received MIDI message: pitchwheel channel=0 pitch=6656 time=0\n",
      "Received MIDI message: pitchwheel channel=0 pitch=6784 time=0\n",
      "Received MIDI message: pitchwheel channel=0 pitch=6912 time=0\n",
      "Received MIDI message: pitchwheel channel=0 pitch=7040 time=0\n",
      "Received MIDI message: pitchwheel channel=0 pitch=7168 time=0\n",
      "Received MIDI message: pitchwheel channel=0 pitch=7296 time=0\n",
      "Received MIDI message: pitchwheel channel=0 pitch=7424 time=0\n",
      "Received MIDI message: pitchwheel channel=0 pitch=7552 time=0\n",
      "Received MIDI message: pitchwheel channel=0 pitch=7680 time=0\n",
      "Received MIDI message: pitchwheel channel=0 pitch=7808 time=0\n",
      "Received MIDI message: pitchwheel channel=0 pitch=7936 time=0\n",
      "Received MIDI message: pitchwheel channel=0 pitch=8191 time=0\n",
      "Received MIDI message: pitchwheel channel=0 pitch=7936 time=0\n",
      "Received MIDI message: pitchwheel channel=0 pitch=7808 time=0\n",
      "Received MIDI message: pitchwheel channel=0 pitch=7680 time=0\n",
      "Received MIDI message: pitchwheel channel=0 pitch=7552 time=0\n",
      "Received MIDI message: pitchwheel channel=0 pitch=7424 time=0\n",
      "Received MIDI message: pitchwheel channel=0 pitch=7296 time=0\n",
      "Received MIDI message: pitchwheel channel=0 pitch=7168 time=0\n",
      "Received MIDI message: pitchwheel channel=0 pitch=7040 time=0\n",
      "Received MIDI message: pitchwheel channel=0 pitch=6912 time=0\n",
      "Received MIDI message: pitchwheel channel=0 pitch=6784 time=0\n",
      "Received MIDI message: pitchwheel channel=0 pitch=6656 time=0\n",
      "Received MIDI message: pitchwheel channel=0 pitch=6528 time=0\n",
      "Received MIDI message: pitchwheel channel=0 pitch=6400 time=0\n",
      "Received MIDI message: pitchwheel channel=0 pitch=6272 time=0\n",
      "Received MIDI message: pitchwheel channel=0 pitch=6144 time=0\n",
      "Received MIDI message: pitchwheel channel=0 pitch=6016 time=0\n",
      "Received MIDI message: pitchwheel channel=0 pitch=5888 time=0\n",
      "Received MIDI message: pitchwheel channel=0 pitch=5760 time=0\n",
      "Received MIDI message: pitchwheel channel=0 pitch=5632 time=0\n",
      "Received MIDI message: pitchwheel channel=0 pitch=5504 time=0\n",
      "Received MIDI message: pitchwheel channel=0 pitch=5376 time=0\n",
      "Received MIDI message: pitchwheel channel=0 pitch=5120 time=0\n",
      "Received MIDI message: pitchwheel channel=0 pitch=4864 time=0\n",
      "Received MIDI message: pitchwheel channel=0 pitch=4608 time=0\n",
      "Received MIDI message: pitchwheel channel=0 pitch=4352 time=0\n",
      "Received MIDI message: pitchwheel channel=0 pitch=4096 time=0\n",
      "Received MIDI message: pitchwheel channel=0 pitch=3712 time=0\n",
      "Received MIDI message: pitchwheel channel=0 pitch=3456 time=0\n",
      "Received MIDI message: pitchwheel channel=0 pitch=3200 time=0\n",
      "Received MIDI message: pitchwheel channel=0 pitch=2944 time=0\n",
      "Received MIDI message: pitchwheel channel=0 pitch=2688 time=0\n",
      "Received MIDI message: pitchwheel channel=0 pitch=2432 time=0\n",
      "Received MIDI message: pitchwheel channel=0 pitch=2176 time=0\n",
      "Received MIDI message: pitchwheel channel=0 pitch=1920 time=0\n",
      "Received MIDI message: pitchwheel channel=0 pitch=1664 time=0\n",
      "Received MIDI message: pitchwheel channel=0 pitch=1408 time=0\n",
      "Received MIDI message: pitchwheel channel=0 pitch=1152 time=0\n",
      "Received MIDI message: pitchwheel channel=0 pitch=896 time=0\n",
      "Received MIDI message: pitchwheel channel=0 pitch=640 time=0\n",
      "Received MIDI message: pitchwheel channel=0 pitch=384 time=0\n",
      "Received MIDI message: pitchwheel channel=0 pitch=128 time=0\n",
      "Received MIDI message: pitchwheel channel=0 pitch=0 time=0\n",
      "Received MIDI message: note_on channel=0 note=55 velocity=0 time=0\n",
      "Received MIDI message: note_on channel=0 note=60 velocity=121 time=0\n",
      "Received MIDI message: note_on channel=0 note=59 velocity=106 time=0\n",
      "Received MIDI message: note_on channel=0 note=59 velocity=0 time=0\n",
      "Received MIDI message: note_on channel=0 note=60 velocity=0 time=0\n",
      "Received MIDI message: note_on channel=0 note=60 velocity=119 time=0\n",
      "Received MIDI message: note_on channel=0 note=60 velocity=0 time=0\n",
      "Received MIDI message: note_on channel=0 note=60 velocity=113 time=0\n",
      "Received MIDI message: note_on channel=0 note=60 velocity=0 time=0\n",
      "Received MIDI message: note_on channel=0 note=60 velocity=121 time=0\n",
      "Received MIDI message: note_on channel=0 note=60 velocity=0 time=0\n",
      "Received MIDI message: note_on channel=0 note=57 velocity=126 time=0\n",
      "Received MIDI message: note_on channel=0 note=57 velocity=0 time=0\n",
      "Received MIDI message: note_on channel=0 note=57 velocity=122 time=0\n",
      "Received MIDI message: note_on channel=0 note=57 velocity=0 time=0\n",
      "Received MIDI message: note_on channel=0 note=57 velocity=16 time=0\n",
      "Received MIDI message: note_on channel=0 note=57 velocity=0 time=0\n",
      "Received MIDI message: note_on channel=0 note=57 velocity=26 time=0\n",
      "Received MIDI message: note_on channel=0 note=57 velocity=0 time=0\n",
      "Received MIDI message: note_on channel=0 note=57 velocity=87 time=0\n",
      "Received MIDI message: note_on channel=0 note=57 velocity=0 time=0\n",
      "Received MIDI message: note_on channel=0 note=57 velocity=84 time=0\n",
      "Received MIDI message: note_on channel=0 note=57 velocity=0 time=0\n",
      "Received MIDI message: note_on channel=0 note=57 velocity=96 time=0\n",
      "Received MIDI message: note_on channel=0 note=57 velocity=0 time=0\n",
      "Received MIDI message: note_on channel=0 note=57 velocity=40 time=0\n",
      "Received MIDI message: note_on channel=0 note=57 velocity=0 time=0\n",
      "Received MIDI message: note_on channel=0 note=57 velocity=65 time=0\n",
      "Received MIDI message: note_on channel=0 note=57 velocity=0 time=0\n",
      "Received MIDI message: note_on channel=0 note=57 velocity=27 time=0\n",
      "Received MIDI message: note_on channel=0 note=57 velocity=0 time=0\n",
      "Received MIDI message: note_on channel=0 note=57 velocity=16 time=0\n",
      "Received MIDI message: note_on channel=0 note=57 velocity=0 time=0\n",
      "Received MIDI message: note_on channel=0 note=57 velocity=36 time=0\n",
      "Received MIDI message: note_on channel=0 note=57 velocity=0 time=0\n",
      "Received MIDI message: note_on channel=0 note=57 velocity=93 time=0\n",
      "Received MIDI message: note_on channel=0 note=57 velocity=0 time=0\n",
      "Received MIDI message: note_on channel=0 note=59 velocity=116 time=0\n",
      "Received MIDI message: note_on channel=0 note=59 velocity=0 time=0\n",
      "Received MIDI message: note_on channel=0 note=59 velocity=102 time=0\n",
      "Received MIDI message: note_on channel=0 note=59 velocity=0 time=0\n",
      "Received MIDI message: note_on channel=0 note=59 velocity=103 time=0\n",
      "Received MIDI message: note_on channel=0 note=59 velocity=0 time=0\n",
      "Received MIDI message: note_on channel=0 note=59 velocity=111 time=0\n",
      "Received MIDI message: note_on channel=0 note=59 velocity=0 time=0\n",
      "Received MIDI message: note_on channel=0 note=59 velocity=110 time=0\n",
      "Received MIDI message: note_on channel=0 note=59 velocity=0 time=0\n",
      "Received MIDI message: note_on channel=0 note=59 velocity=124 time=0\n",
      "Received MIDI message: note_on channel=0 note=59 velocity=0 time=0\n",
      "Received MIDI message: note_on channel=0 note=59 velocity=109 time=0\n",
      "Received MIDI message: note_on channel=0 note=59 velocity=0 time=0\n",
      "Received MIDI message: note_on channel=0 note=59 velocity=102 time=0\n",
      "Received MIDI message: note_on channel=0 note=59 velocity=0 time=0\n",
      "Received MIDI message: note_on channel=0 note=59 velocity=93 time=0\n",
      "Received MIDI message: note_on channel=0 note=59 velocity=0 time=0\n",
      "Received MIDI message: note_on channel=0 note=59 velocity=104 time=0\n",
      "Received MIDI message: note_on channel=0 note=59 velocity=0 time=0\n",
      "Received MIDI message: note_on channel=0 note=59 velocity=105 time=0\n",
      "Received MIDI message: note_on channel=0 note=59 velocity=0 time=0\n",
      "Received MIDI message: note_on channel=0 note=59 velocity=124 time=0\n",
      "Received MIDI message: note_on channel=0 note=59 velocity=0 time=0\n",
      "Received MIDI message: note_on channel=0 note=59 velocity=127 time=0\n",
      "Received MIDI message: note_on channel=0 note=59 velocity=0 time=0\n",
      "Received MIDI message: note_on channel=0 note=59 velocity=126 time=0\n",
      "Received MIDI message: note_on channel=0 note=59 velocity=0 time=0\n",
      "Received MIDI message: note_on channel=0 note=59 velocity=127 time=0\n",
      "Received MIDI message: note_on channel=0 note=59 velocity=0 time=0\n",
      "Received MIDI message: note_on channel=0 note=58 velocity=127 time=0\n",
      "Received MIDI message: note_on channel=0 note=58 velocity=0 time=0\n",
      "Received MIDI message: note_on channel=0 note=58 velocity=127 time=0\n",
      "Received MIDI message: note_on channel=0 note=58 velocity=0 time=0\n",
      "Received MIDI message: note_on channel=0 note=56 velocity=127 time=0\n",
      "Received MIDI message: note_on channel=0 note=56 velocity=0 time=0\n",
      "Received MIDI message: note_on channel=0 note=58 velocity=127 time=0\n",
      "Received MIDI message: note_on channel=0 note=58 velocity=0 time=0\n",
      "Received MIDI message: note_on channel=0 note=56 velocity=127 time=0\n",
      "Received MIDI message: note_on channel=0 note=56 velocity=0 time=0\n",
      "Received MIDI message: note_on channel=0 note=58 velocity=127 time=0\n",
      "Received MIDI message: note_on channel=0 note=58 velocity=0 time=0\n",
      "Received MIDI message: note_on channel=0 note=56 velocity=126 time=0\n",
      "Received MIDI message: note_on channel=0 note=56 velocity=0 time=0\n",
      "Received MIDI message: note_on channel=0 note=58 velocity=127 time=0\n",
      "Received MIDI message: note_on channel=0 note=58 velocity=0 time=0\n",
      "Received MIDI message: note_on channel=0 note=56 velocity=127 time=0\n",
      "Received MIDI message: note_on channel=0 note=58 velocity=127 time=0\n",
      "Received MIDI message: note_on channel=0 note=56 velocity=0 time=0\n",
      "Received MIDI message: note_on channel=0 note=58 velocity=0 time=0\n",
      "Received MIDI message: note_on channel=0 note=50 velocity=27 time=0\n",
      "Received MIDI message: note_on channel=0 note=71 velocity=16 time=0\n",
      "Received MIDI message: note_on channel=0 note=57 velocity=16 time=0\n",
      "Received MIDI message: note_on channel=0 note=64 velocity=16 time=0\n",
      "Received MIDI message: note_on channel=0 note=64 velocity=0 time=0\n",
      "Received MIDI message: note_on channel=0 note=50 velocity=0 time=0\n",
      "Received MIDI message: note_on channel=0 note=71 velocity=0 time=0\n",
      "Received MIDI message: note_on channel=0 note=57 velocity=0 time=0\n",
      "Received MIDI message: note_on channel=0 note=64 velocity=120 time=0\n",
      "Received MIDI message: note_on channel=0 note=64 velocity=0 time=0\n",
      "Received MIDI message: note_on channel=0 note=41 velocity=110 time=0\n",
      "Received MIDI message: note_on channel=0 note=40 velocity=127 time=0\n",
      "Received MIDI message: note_on channel=0 note=41 velocity=0 time=0\n",
      "Received MIDI message: note_on channel=0 note=45 velocity=16 time=0\n",
      "Received MIDI message: note_on channel=0 note=40 velocity=0 time=0\n",
      "Received MIDI message: note_on channel=0 note=52 velocity=34 time=0\n",
      "Received MIDI message: note_on channel=0 note=45 velocity=0 time=0\n",
      "Received MIDI message: note_on channel=0 note=52 velocity=0 time=0\n",
      "Received MIDI message: note_on channel=0 note=47 velocity=122 time=0\n",
      "Received MIDI message: note_on channel=0 note=43 velocity=91 time=0\n",
      "Received MIDI message: note_on channel=0 note=55 velocity=33 time=0\n",
      "Received MIDI message: note_on channel=0 note=53 velocity=82 time=0\n",
      "Received MIDI message: note_on channel=0 note=36 velocity=103 time=0\n",
      "Received MIDI message: note_on channel=0 note=53 velocity=0 time=0\n",
      "Received MIDI message: note_on channel=0 note=55 velocity=0 time=0\n",
      "Received MIDI message: note_on channel=0 note=47 velocity=0 time=0\n",
      "Received MIDI message: note_on channel=0 note=43 velocity=0 time=0\n",
      "Received MIDI message: note_on channel=0 note=36 velocity=0 time=0\n",
      "Received MIDI message: note_on channel=0 note=57 velocity=105 time=0\n",
      "Received MIDI message: note_on channel=0 note=38 velocity=97 time=0\n",
      "Received MIDI message: note_on channel=0 note=36 velocity=93 time=0\n",
      "Received MIDI message: note_on channel=0 note=45 velocity=110 time=0\n",
      "Received MIDI message: note_on channel=0 note=50 velocity=64 time=0\n",
      "Received MIDI message: note_on channel=0 note=48 velocity=64 time=0\n",
      "Received MIDI message: note_on channel=0 note=50 velocity=0 time=0\n",
      "Received MIDI message: note_on channel=0 note=48 velocity=0 time=0\n",
      "Received MIDI message: note_on channel=0 note=36 velocity=0 time=0\n",
      "Received MIDI message: note_on channel=0 note=38 velocity=0 time=0\n",
      "Received MIDI message: note_on channel=0 note=45 velocity=0 time=0\n",
      "Received MIDI message: note_on channel=0 note=57 velocity=0 time=0\n",
      "Received MIDI message: note_on channel=0 note=59 velocity=100 time=0\n",
      "Received MIDI message: note_on channel=0 note=38 velocity=70 time=0\n",
      "Received MIDI message: note_on channel=0 note=47 velocity=101 time=0\n",
      "Received MIDI message: note_on channel=0 note=40 velocity=110 time=0\n",
      "Received MIDI message: note_on channel=0 note=52 velocity=110 time=0\n",
      "Received MIDI message: note_on channel=0 note=57 velocity=16 time=0\n",
      "Received MIDI message: note_on channel=0 note=40 velocity=0 time=0\n",
      "Received MIDI message: note_on channel=0 note=57 velocity=0 time=0\n",
      "Received MIDI message: note_on channel=0 note=38 velocity=0 time=0\n",
      "Received MIDI message: note_on channel=0 note=52 velocity=0 time=0\n",
      "Received MIDI message: note_on channel=0 note=47 velocity=0 time=0\n",
      "Received MIDI message: note_on channel=0 note=59 velocity=0 time=0\n",
      "Received MIDI message: note_on channel=0 note=46 velocity=113 time=0\n",
      "Received MIDI message: note_on channel=0 note=37 velocity=13 time=0\n",
      "Received MIDI message: note_on channel=0 note=46 velocity=0 time=0\n",
      "Received MIDI message: note_on channel=0 note=37 velocity=0 time=0\n",
      "Received MIDI message: note_on channel=0 note=38 velocity=82 time=0\n",
      "Received MIDI message: note_on channel=0 note=47 velocity=83 time=0\n",
      "Received MIDI message: note_on channel=0 note=48 velocity=80 time=0\n",
      "Received MIDI message: note_on channel=0 note=50 velocity=60 time=0\n",
      "Received MIDI message: note_on channel=0 note=55 velocity=46 time=0\n",
      "Received MIDI message: note_on channel=0 note=42 velocity=13 time=0\n",
      "Received MIDI message: note_on channel=0 note=52 velocity=16 time=0\n",
      "Received MIDI message: note_on channel=0 note=42 velocity=0 time=0\n",
      "Received MIDI message: note_on channel=0 note=52 velocity=0 time=0\n",
      "Received MIDI message: note_on channel=0 note=50 velocity=0 time=0\n",
      "Received MIDI message: note_on channel=0 note=48 velocity=0 time=0\n",
      "Received MIDI message: note_on channel=0 note=55 velocity=0 time=0\n",
      "Received MIDI message: note_on channel=0 note=38 velocity=0 time=0\n",
      "Received MIDI message: note_on channel=0 note=47 velocity=0 time=0\n",
      "Received MIDI message: note_on channel=0 note=52 velocity=118 time=0\n",
      "Received MIDI message: note_on channel=0 note=48 velocity=126 time=0\n",
      "Received MIDI message: note_on channel=0 note=52 velocity=0 time=0\n",
      "Received MIDI message: note_on channel=0 note=48 velocity=0 time=0\n",
      "Received MIDI message: note_on channel=0 note=47 velocity=123 time=0\n",
      "Received MIDI message: note_on channel=0 note=45 velocity=124 time=0\n",
      "Received MIDI message: note_on channel=0 note=47 velocity=0 time=0\n",
      "Received MIDI message: note_on channel=0 note=45 velocity=0 time=0\n",
      "Received MIDI message: note_on channel=0 note=48 velocity=124 time=0\n",
      "Received MIDI message: note_on channel=0 note=48 velocity=0 time=0\n",
      "Received MIDI message: note_on channel=0 note=47 velocity=122 time=0\n",
      "Received MIDI message: note_on channel=0 note=47 velocity=0 time=0\n",
      "Received MIDI message: note_on channel=0 note=48 velocity=121 time=0\n",
      "Received MIDI message: note_on channel=0 note=48 velocity=0 time=0\n",
      "Received MIDI message: note_on channel=0 note=47 velocity=124 time=0\n",
      "Received MIDI message: note_on channel=0 note=47 velocity=0 time=0\n",
      "Received MIDI message: note_on channel=0 note=48 velocity=126 time=0\n",
      "Received MIDI message: note_on channel=0 note=47 velocity=127 time=0\n",
      "Received MIDI message: note_on channel=0 note=52 velocity=102 time=0\n",
      "Received MIDI message: note_on channel=0 note=48 velocity=0 time=0\n",
      "Received MIDI message: note_on channel=0 note=47 velocity=0 time=0\n",
      "Received MIDI message: note_on channel=0 note=41 velocity=28 time=0\n",
      "Received MIDI message: note_on channel=0 note=43 velocity=26 time=0\n",
      "Received MIDI message: note_on channel=0 note=43 velocity=0 time=0\n",
      "Received MIDI message: note_on channel=0 note=48 velocity=119 time=0\n",
      "Received MIDI message: note_on channel=0 note=52 velocity=0 time=0\n",
      "Received MIDI message: note_on channel=0 note=41 velocity=0 time=0\n",
      "Received MIDI message: note_on channel=0 note=47 velocity=16 time=0\n",
      "Received MIDI message: note_on channel=0 note=57 velocity=37 time=0\n",
      "Received MIDI message: note_on channel=0 note=45 velocity=16 time=0\n",
      "Received MIDI message: note_on channel=0 note=40 velocity=60 time=0\n",
      "Received MIDI message: note_on channel=0 note=55 velocity=55 time=0\n",
      "Received MIDI message: note_on channel=0 note=48 velocity=0 time=0\n",
      "Received MIDI message: note_on channel=0 note=52 velocity=65 time=0\n",
      "Received MIDI message: note_on channel=0 note=53 velocity=46 time=0\n",
      "Received MIDI message: note_on channel=0 note=45 velocity=0 time=0\n",
      "Received MIDI message: note_on channel=0 note=38 velocity=67 time=0\n",
      "Received MIDI message: note_on channel=0 note=47 velocity=0 time=0\n",
      "Received MIDI message: note_on channel=0 note=55 velocity=0 time=0\n",
      "Received MIDI message: note_on channel=0 note=48 velocity=110 time=0\n",
      "Received MIDI message: note_on channel=0 note=53 velocity=0 time=0\n",
      "Received MIDI message: note_on channel=0 note=52 velocity=0 time=0\n",
      "Received MIDI message: note_on channel=0 note=57 velocity=0 time=0\n",
      "Received MIDI message: note_on channel=0 note=40 velocity=0 time=0\n",
      "Received MIDI message: note_on channel=0 note=57 velocity=70 time=0\n",
      "Received MIDI message: note_on channel=0 note=48 velocity=0 time=0\n",
      "Received MIDI message: note_on channel=0 note=40 velocity=73 time=0\n",
      "Received MIDI message: note_on channel=0 note=53 velocity=55 time=0\n",
      "Received MIDI message: note_on channel=0 note=52 velocity=41 time=0\n",
      "Received MIDI message: note_on channel=0 note=57 velocity=0 time=0\n",
      "Received MIDI message: note_on channel=0 note=48 velocity=110 time=0\n",
      "Received MIDI message: note_on channel=0 note=52 velocity=0 time=0\n",
      "Received MIDI message: note_on channel=0 note=53 velocity=0 time=0\n",
      "Received MIDI message: note_on channel=0 note=38 velocity=0 time=0\n",
      "Received MIDI message: note_on channel=0 note=47 velocity=54 time=0\n",
      "Received MIDI message: note_on channel=0 note=45 velocity=56 time=0\n",
      "Received MIDI message: note_on channel=0 note=40 velocity=0 time=0\n",
      "Received MIDI message: note_on channel=0 note=53 velocity=68 time=0\n",
      "Received MIDI message: note_on channel=0 note=48 velocity=0 time=0\n",
      "Received MIDI message: note_on channel=0 note=40 velocity=93 time=0\n",
      "Received MIDI message: note_on channel=0 note=45 velocity=0 time=0\n",
      "Received MIDI message: note_on channel=0 note=47 velocity=0 time=0\n",
      "Received MIDI message: note_on channel=0 note=50 velocity=115 time=0\n",
      "Received MIDI message: note_on channel=0 note=53 velocity=0 time=0\n",
      "Received MIDI message: note_on channel=0 note=43 velocity=65 time=0\n",
      "Received MIDI message: note_on channel=0 note=40 velocity=0 time=0\n",
      "Received MIDI message: note_on channel=0 note=53 velocity=88 time=0\n",
      "Received MIDI message: note_on channel=0 note=50 velocity=0 time=0\n",
      "Received MIDI message: note_on channel=0 note=43 velocity=0 time=0\n",
      "Received MIDI message: note_on channel=0 note=50 velocity=122 time=0\n",
      "Received MIDI message: note_on channel=0 note=53 velocity=0 time=0\n",
      "Received MIDI message: note_on channel=0 note=43 velocity=82 time=0\n",
      "Received MIDI message: note_on channel=0 note=41 velocity=75 time=0\n",
      "Received MIDI message: note_on channel=0 note=50 velocity=0 time=0\n",
      "Received MIDI message: note_on channel=0 note=41 velocity=0 time=0\n",
      "Received MIDI message: note_on channel=0 note=53 velocity=116 time=0\n",
      "Received MIDI message: note_on channel=0 note=40 velocity=83 time=0\n",
      "Received MIDI message: note_on channel=0 note=50 velocity=112 time=0\n",
      "Received MIDI message: note_on channel=0 note=43 velocity=0 time=0\n",
      "Received MIDI message: note_on channel=0 note=53 velocity=0 time=0\n",
      "Received MIDI message: note_on channel=0 note=40 velocity=0 time=0\n",
      "Received MIDI message: note_on channel=0 note=50 velocity=0 time=0\n",
      "Received MIDI message: note_on channel=0 note=53 velocity=85 time=0\n",
      "Received MIDI message: note_on channel=0 note=43 velocity=78 time=0\n",
      "Received MIDI message: note_on channel=0 note=50 velocity=91 time=0\n",
      "Received MIDI message: note_on channel=0 note=53 velocity=0 time=0\n",
      "Received MIDI message: note_on channel=0 note=40 velocity=76 time=0\n",
      "Received MIDI message: note_on channel=0 note=53 velocity=102 time=0\n",
      "Received MIDI message: note_on channel=0 note=43 velocity=0 time=0\n",
      "Received MIDI message: note_on channel=0 note=40 velocity=0 time=0\n",
      "Received MIDI message: note_on channel=0 note=53 velocity=0 time=0\n",
      "Received MIDI message: note_on channel=0 note=50 velocity=0 time=0\n",
      "Received MIDI message: note_on channel=0 note=53 velocity=102 time=0\n",
      "Received MIDI message: note_on channel=0 note=40 velocity=96 time=0\n",
      "Received MIDI message: note_on channel=0 note=50 velocity=105 time=0\n",
      "Received MIDI message: note_on channel=0 note=43 velocity=67 time=0\n",
      "Received MIDI message: note_on channel=0 note=53 velocity=0 time=0\n",
      "Received MIDI message: note_on channel=0 note=40 velocity=0 time=0\n",
      "Received MIDI message: note_on channel=0 note=50 velocity=0 time=0\n",
      "Received MIDI message: note_on channel=0 note=53 velocity=90 time=0\n",
      "Received MIDI message: note_on channel=0 note=43 velocity=0 time=0\n",
      "Received MIDI message: note_on channel=0 note=57 velocity=40 time=0\n",
      "Received MIDI message: note_on channel=0 note=38 velocity=107 time=0\n",
      "Received MIDI message: note_on channel=0 note=50 velocity=118 time=0\n",
      "Received MIDI message: note_on channel=0 note=53 velocity=0 time=0\n",
      "Received MIDI message: note_on channel=0 note=50 velocity=0 time=0\n",
      "Received MIDI message: note_on channel=0 note=38 velocity=0 time=0\n",
      "Received MIDI message: note_on channel=0 note=57 velocity=0 time=0\n",
      "Received MIDI message: note_on channel=0 note=40 velocity=122 time=0\n",
      "Received MIDI message: note_on channel=0 note=46 velocity=127 time=0\n",
      "Received MIDI message: note_on channel=0 note=48 velocity=108 time=0\n",
      "Received MIDI message: note_on channel=0 note=50 velocity=127 time=0\n",
      "Received MIDI message: note_on channel=0 note=47 velocity=78 time=0\n",
      "Received MIDI message: note_on channel=0 note=59 velocity=107 time=0\n",
      "Received MIDI message: note_on channel=0 note=57 velocity=127 time=0\n",
      "Received MIDI message: note_on channel=0 note=47 velocity=0 time=0\n",
      "Received MIDI message: note_on channel=0 note=46 velocity=0 time=0\n",
      "Received MIDI message: note_on channel=0 note=40 velocity=0 time=0\n",
      "Received MIDI message: note_on channel=0 note=50 velocity=0 time=0\n",
      "Received MIDI message: note_on channel=0 note=48 velocity=0 time=0\n",
      "Received MIDI message: note_on channel=0 note=59 velocity=0 time=0\n",
      "Received MIDI message: note_on channel=0 note=57 velocity=0 time=0\n",
      "Received MIDI message: note_on channel=0 note=38 velocity=79 time=0\n",
      "Received MIDI message: note_on channel=0 note=57 velocity=123 time=0\n",
      "Received MIDI message: note_on channel=0 note=45 velocity=105 time=0\n",
      "Received MIDI message: note_on channel=0 note=47 velocity=110 time=0\n",
      "Received MIDI message: note_on channel=0 note=50 velocity=109 time=0\n",
      "Received MIDI message: note_on channel=0 note=41 velocity=70 time=0\n",
      "Received MIDI message: note_on channel=0 note=53 velocity=16 time=0\n",
      "Received MIDI message: note_on channel=0 note=41 velocity=0 time=0\n",
      "Received MIDI message: note_on channel=0 note=47 velocity=0 time=0\n",
      "Received MIDI message: note_on channel=0 note=45 velocity=0 time=0\n",
      "Received MIDI message: note_on channel=0 note=50 velocity=0 time=0\n",
      "Received MIDI message: note_on channel=0 note=38 velocity=0 time=0\n",
      "Received MIDI message: note_on channel=0 note=53 velocity=0 time=0\n",
      "Received MIDI message: note_on channel=0 note=57 velocity=0 time=0\n",
      "Received MIDI message: note_on channel=0 note=48 velocity=92 time=0\n",
      "Received MIDI message: note_on channel=0 note=50 velocity=68 time=0\n",
      "Received MIDI message: note_on channel=0 note=52 velocity=110 time=0\n",
      "Received MIDI message: note_on channel=0 note=50 velocity=0 time=0\n",
      "Received MIDI message: note_on channel=0 note=48 velocity=0 time=0\n",
      "Received MIDI message: note_on channel=0 note=52 velocity=0 time=0\n",
      "Received MIDI message: control_change channel=0 control=69 value=127 time=0\n",
      "Received MIDI message: control_change channel=0 control=69 value=0 time=0\n",
      "Received MIDI message: note_on channel=0 note=47 velocity=29 time=0\n",
      "Received MIDI message: note_on channel=0 note=45 velocity=99 time=0\n",
      "Received MIDI message: note_on channel=0 note=45 velocity=0 time=0\n",
      "Received MIDI message: note_on channel=0 note=47 velocity=0 time=0\n",
      "Received MIDI message: note_on channel=0 note=47 velocity=84 time=0\n",
      "Received MIDI message: note_on channel=0 note=47 velocity=0 time=0\n",
      "Received MIDI message: note_on channel=0 note=47 velocity=114 time=0\n",
      "Received MIDI message: note_on channel=0 note=47 velocity=0 time=0\n",
      "Received MIDI message: note_on channel=0 note=47 velocity=79 time=0\n",
      "Received MIDI message: note_on channel=0 note=47 velocity=0 time=0\n",
      "Received MIDI message: control_change channel=0 control=66 value=127 time=0\n",
      "Received MIDI message: note_on channel=0 note=47 velocity=34 time=0\n",
      "Received MIDI message: control_change channel=0 control=66 value=0 time=0\n",
      "Received MIDI message: note_on channel=0 note=47 velocity=0 time=0\n",
      "Received MIDI message: note_on channel=0 note=47 velocity=99 time=0\n",
      "Received MIDI message: note_on channel=0 note=47 velocity=0 time=0\n",
      "Received MIDI message: note_on channel=0 note=47 velocity=101 time=0\n",
      "Received MIDI message: note_on channel=0 note=47 velocity=0 time=0\n",
      "Received MIDI message: note_on channel=0 note=47 velocity=108 time=0\n",
      "Received MIDI message: note_on channel=0 note=47 velocity=0 time=0\n",
      "Received MIDI message: note_on channel=0 note=47 velocity=89 time=0\n",
      "Received MIDI message: note_on channel=0 note=47 velocity=0 time=0\n",
      "Received MIDI message: note_on channel=0 note=47 velocity=108 time=0\n",
      "Received MIDI message: note_on channel=0 note=47 velocity=0 time=0\n",
      "Received MIDI message: note_on channel=0 note=47 velocity=102 time=0\n",
      "Received MIDI message: note_on channel=0 note=47 velocity=0 time=0\n",
      "Received MIDI message: note_on channel=0 note=47 velocity=115 time=0\n",
      "Received MIDI message: note_on channel=0 note=47 velocity=0 time=0\n",
      "Received MIDI message: note_on channel=0 note=47 velocity=119 time=0\n",
      "Received MIDI message: note_on channel=0 note=47 velocity=0 time=0\n",
      "Received MIDI message: note_on channel=0 note=37 velocity=127 time=0\n",
      "Received MIDI message: note_on channel=0 note=37 velocity=0 time=0\n",
      "Received MIDI message: note_on channel=0 note=47 velocity=123 time=0\n",
      "Received MIDI message: note_on channel=0 note=47 velocity=0 time=0\n",
      "Received MIDI message: note_on channel=0 note=47 velocity=127 time=0\n",
      "Received MIDI message: note_on channel=0 note=47 velocity=0 time=0\n",
      "Received MIDI message: note_on channel=0 note=47 velocity=127 time=0\n",
      "Received MIDI message: note_on channel=0 note=47 velocity=0 time=0\n",
      "Received MIDI message: note_on channel=0 note=47 velocity=127 time=0\n",
      "Received MIDI message: note_on channel=0 note=47 velocity=0 time=0\n",
      "Received MIDI message: note_on channel=0 note=35 velocity=126 time=0\n",
      "Received MIDI message: note_on channel=0 note=35 velocity=0 time=0\n",
      "Received MIDI message: note_on channel=0 note=35 velocity=125 time=0\n",
      "Received MIDI message: note_on channel=0 note=35 velocity=0 time=0\n",
      "Received MIDI message: note_on channel=0 note=35 velocity=127 time=0\n",
      "Received MIDI message: note_on channel=0 note=35 velocity=0 time=0\n",
      "Received MIDI message: note_on channel=0 note=35 velocity=124 time=0\n",
      "Received MIDI message: note_on channel=0 note=35 velocity=0 time=0\n",
      "Received MIDI message: note_on channel=0 note=47 velocity=122 time=0\n",
      "Received MIDI message: note_on channel=0 note=47 velocity=0 time=0\n",
      "Received MIDI message: note_on channel=0 note=47 velocity=117 time=0\n",
      "Received MIDI message: note_on channel=0 note=47 velocity=0 time=0\n",
      "Received MIDI message: note_on channel=0 note=47 velocity=91 time=0\n",
      "Received MIDI message: note_on channel=0 note=47 velocity=0 time=0\n",
      "Received MIDI message: note_on channel=0 note=59 velocity=110 time=0\n",
      "Received MIDI message: note_on channel=0 note=59 velocity=0 time=0\n",
      "Received MIDI message: note_on channel=0 note=59 velocity=112 time=0\n",
      "Received MIDI message: note_on channel=0 note=59 velocity=0 time=0\n",
      "Received MIDI message: note_on channel=0 note=59 velocity=108 time=0\n",
      "Received MIDI message: note_on channel=0 note=59 velocity=0 time=0\n",
      "Received MIDI message: note_on channel=0 note=59 velocity=111 time=0\n",
      "Received MIDI message: note_on channel=0 note=59 velocity=0 time=0\n",
      "Received MIDI message: note_on channel=0 note=59 velocity=78 time=0\n",
      "Received MIDI message: note_on channel=0 note=59 velocity=0 time=0\n",
      "Received MIDI message: note_on channel=0 note=59 velocity=125 time=0\n",
      "Received MIDI message: note_on channel=0 note=59 velocity=0 time=0\n",
      "Received MIDI message: note_on channel=0 note=59 velocity=115 time=0\n",
      "Received MIDI message: note_on channel=0 note=59 velocity=0 time=0\n",
      "Received MIDI message: note_on channel=0 note=59 velocity=120 time=0\n",
      "Received MIDI message: note_on channel=0 note=59 velocity=0 time=0\n",
      "Received MIDI message: note_on channel=1 note=83 velocity=102 time=0\n",
      "Received MIDI message: note_on channel=1 note=83 velocity=0 time=0\n",
      "Received MIDI message: note_on channel=0 note=59 velocity=81 time=0\n",
      "Received MIDI message: note_on channel=0 note=59 velocity=0 time=0\n",
      "Received MIDI message: note_on channel=0 note=59 velocity=93 time=0\n",
      "Received MIDI message: note_on channel=0 note=59 velocity=0 time=0\n",
      "Received MIDI message: note_on channel=0 note=59 velocity=102 time=0\n",
      "Received MIDI message: note_on channel=0 note=59 velocity=0 time=0\n",
      "Received MIDI message: note_on channel=0 note=59 velocity=103 time=0\n",
      "Received MIDI message: note_on channel=0 note=59 velocity=0 time=0\n",
      "Received MIDI message: note_on channel=0 note=59 velocity=111 time=0\n",
      "Received MIDI message: note_on channel=0 note=59 velocity=0 time=0\n",
      "Received MIDI message: note_on channel=0 note=59 velocity=110 time=0\n",
      "Received MIDI message: note_on channel=0 note=59 velocity=0 time=0\n",
      "Received MIDI message: note_on channel=0 note=59 velocity=109 time=0\n",
      "Received MIDI message: note_on channel=0 note=59 velocity=0 time=0\n",
      "Received MIDI message: note_on channel=0 note=59 velocity=109 time=0\n",
      "Received MIDI message: note_on channel=0 note=59 velocity=0 time=0\n",
      "Received MIDI message: note_on channel=0 note=59 velocity=102 time=0\n",
      "Received MIDI message: note_on channel=0 note=59 velocity=0 time=0\n",
      "Received MIDI message: note_on channel=0 note=59 velocity=101 time=0\n",
      "Received MIDI message: note_on channel=0 note=59 velocity=0 time=0\n",
      "Received MIDI message: note_on channel=0 note=70 velocity=127 time=0\n",
      "Received MIDI message: note_on channel=0 note=70 velocity=0 time=0\n",
      "Received MIDI message: note_on channel=0 note=70 velocity=127 time=0\n",
      "Received MIDI message: note_on channel=0 note=70 velocity=0 time=0\n",
      "Received MIDI message: note_on channel=0 note=70 velocity=127 time=0\n",
      "Received MIDI message: note_on channel=0 note=70 velocity=0 time=0\n",
      "Received MIDI message: note_on channel=0 note=71 velocity=125 time=0\n",
      "Received MIDI message: note_on channel=0 note=71 velocity=0 time=0\n",
      "Received MIDI message: note_on channel=0 note=71 velocity=49 time=0\n",
      "Received MIDI message: note_on channel=0 note=67 velocity=122 time=0\n",
      "Received MIDI message: note_on channel=0 note=71 velocity=0 time=0\n",
      "Received MIDI message: note_on channel=0 note=67 velocity=0 time=0\n",
      "Received MIDI message: note_on channel=0 note=71 velocity=124 time=0\n",
      "Received MIDI message: note_on channel=0 note=71 velocity=0 time=0\n",
      "Received MIDI message: note_on channel=0 note=67 velocity=96 time=0\n",
      "Received MIDI message: note_on channel=0 note=65 velocity=127 time=0\n",
      "Received MIDI message: note_on channel=0 note=67 velocity=0 time=0\n",
      "Received MIDI message: note_on channel=0 note=65 velocity=0 time=0\n",
      "Received MIDI message: note_on channel=0 note=69 velocity=46 time=0\n",
      "Received MIDI message: note_on channel=0 note=67 velocity=42 time=0\n",
      "Received MIDI message: note_on channel=0 note=67 velocity=0 time=0\n",
      "Received MIDI message: note_on channel=0 note=69 velocity=0 time=0\n",
      "Received MIDI message: note_on channel=0 note=62 velocity=31 time=0\n",
      "Received MIDI message: note_on channel=0 note=77 velocity=26 time=0\n",
      "Received MIDI message: note_on channel=0 note=65 velocity=121 time=0\n",
      "Received MIDI message: note_on channel=0 note=69 velocity=16 time=0\n",
      "Received MIDI message: note_on channel=0 note=72 velocity=77 time=0\n",
      "Received MIDI message: note_on channel=0 note=77 velocity=0 time=0\n",
      "Received MIDI message: note_on channel=0 note=62 velocity=0 time=0\n",
      "Received MIDI message: note_on channel=0 note=72 velocity=0 time=0\n",
      "Received MIDI message: note_on channel=0 note=69 velocity=0 time=0\n",
      "Received MIDI message: note_on channel=0 note=77 velocity=86 time=0\n",
      "Received MIDI message: note_on channel=0 note=62 velocity=68 time=0\n",
      "Received MIDI message: note_on channel=0 note=77 velocity=0 time=0\n",
      "Received MIDI message: note_on channel=0 note=65 velocity=0 time=0\n",
      "Received MIDI message: note_on channel=0 note=62 velocity=0 time=0\n",
      "Received MIDI message: note_on channel=0 note=72 velocity=108 time=0\n",
      "Received MIDI message: note_on channel=0 note=72 velocity=0 time=0\n",
      "Received MIDI message: note_on channel=1 note=96 velocity=123 time=0\n",
      "Received MIDI message: note_on channel=1 note=96 velocity=0 time=0\n",
      "Received MIDI message: note_on channel=1 note=96 velocity=123 time=0\n",
      "Received MIDI message: note_on channel=1 note=96 velocity=0 time=0\n",
      "Received MIDI message: note_on channel=1 note=96 velocity=119 time=0\n",
      "Received MIDI message: note_on channel=1 note=96 velocity=0 time=0\n",
      "Received MIDI message: note_on channel=1 note=96 velocity=126 time=0\n",
      "Received MIDI message: note_on channel=1 note=96 velocity=0 time=0\n",
      "Received MIDI message: note_on channel=1 note=48 velocity=123 time=0\n",
      "Received MIDI message: note_on channel=1 note=48 velocity=0 time=0\n",
      "Received MIDI message: note_on channel=1 note=48 velocity=124 time=0\n",
      "Received MIDI message: note_on channel=1 note=48 velocity=0 time=0\n",
      "Received MIDI message: note_on channel=1 note=48 velocity=126 time=0\n",
      "Received MIDI message: note_on channel=1 note=48 velocity=0 time=0\n",
      "Received MIDI message: note_on channel=1 note=96 velocity=126 time=0\n",
      "Received MIDI message: note_on channel=1 note=96 velocity=0 time=0\n",
      "Received MIDI message: note_on channel=1 note=96 velocity=124 time=0\n",
      "Received MIDI message: note_on channel=1 note=96 velocity=0 time=0\n",
      "Received MIDI message: note_on channel=1 note=96 velocity=126 time=0\n",
      "Received MIDI message: note_on channel=1 note=96 velocity=0 time=0\n",
      "Received MIDI message: note_on channel=1 note=48 velocity=123 time=0\n",
      "Received MIDI message: note_on channel=1 note=48 velocity=0 time=0\n",
      "Received MIDI message: note_on channel=1 note=48 velocity=124 time=0\n",
      "Received MIDI message: note_on channel=1 note=48 velocity=0 time=0\n",
      "Received MIDI message: note_on channel=1 note=48 velocity=126 time=0\n",
      "Received MIDI message: note_on channel=1 note=48 velocity=0 time=0\n",
      "Received MIDI message: note_on channel=1 note=57 velocity=126 time=0\n",
      "Received MIDI message: note_on channel=1 note=52 velocity=116 time=0\n",
      "Received MIDI message: note_on channel=1 note=50 velocity=83 time=0\n",
      "Received MIDI message: note_on channel=1 note=57 velocity=0 time=0\n",
      "Received MIDI message: note_on channel=1 note=50 velocity=0 time=0\n",
      "Received MIDI message: note_on channel=1 note=52 velocity=0 time=0\n",
      "Received MIDI message: note_on channel=1 note=55 velocity=118 time=0\n",
      "Received MIDI message: note_on channel=1 note=53 velocity=113 time=0\n",
      "Received MIDI message: note_on channel=1 note=53 velocity=0 time=0\n",
      "Received MIDI message: note_on channel=1 note=55 velocity=0 time=0\n",
      "Received MIDI message: note_on channel=1 note=52 velocity=124 time=0\n",
      "Received MIDI message: note_on channel=1 note=55 velocity=102 time=0\n",
      "Received MIDI message: note_on channel=1 note=52 velocity=0 time=0\n",
      "Received MIDI message: note_on channel=1 note=55 velocity=0 time=0\n",
      "Received MIDI message: note_on channel=1 note=52 velocity=83 time=0\n",
      "Received MIDI message: note_on channel=1 note=55 velocity=90 time=0\n",
      "Received MIDI message: note_on channel=1 note=55 velocity=0 time=0\n",
      "Received MIDI message: note_on channel=1 note=55 velocity=81 time=0\n",
      "Received MIDI message: note_on channel=1 note=52 velocity=0 time=0\n",
      "Received MIDI message: note_on channel=1 note=52 velocity=100 time=0\n",
      "Received MIDI message: note_on channel=1 note=55 velocity=0 time=0\n",
      "Received MIDI message: note_on channel=1 note=55 velocity=97 time=0\n",
      "Received MIDI message: note_on channel=1 note=52 velocity=0 time=0\n",
      "Received MIDI message: note_on channel=1 note=52 velocity=72 time=0\n",
      "Received MIDI message: note_on channel=1 note=55 velocity=0 time=0\n",
      "Received MIDI message: note_on channel=1 note=55 velocity=95 time=0\n",
      "Received MIDI message: note_on channel=1 note=55 velocity=0 time=0\n",
      "Received MIDI message: note_on channel=1 note=55 velocity=108 time=0\n",
      "Received MIDI message: note_on channel=1 note=52 velocity=0 time=0\n",
      "Received MIDI message: note_on channel=1 note=55 velocity=0 time=0\n",
      "Received MIDI message: note_on channel=1 note=54 velocity=125 time=0\n",
      "Received MIDI message: note_on channel=1 note=54 velocity=0 time=0\n",
      "Received MIDI message: note_on channel=1 note=98 velocity=126 time=0\n",
      "Received MIDI message: note_on channel=1 note=98 velocity=0 time=0\n",
      "Received MIDI message: note_on channel=1 note=84 velocity=117 time=0\n",
      "Received MIDI message: note_on channel=1 note=86 velocity=110 time=0\n",
      "Received MIDI message: note_on channel=1 note=86 velocity=0 time=0\n",
      "Received MIDI message: note_on channel=1 note=84 velocity=0 time=0\n",
      "Received MIDI message: note_on channel=1 note=86 velocity=124 time=0\n",
      "Received MIDI message: note_on channel=1 note=86 velocity=0 time=0\n",
      "Received MIDI message: note_on channel=1 note=88 velocity=123 time=0\n",
      "Received MIDI message: note_on channel=1 note=88 velocity=0 time=0\n",
      "Received MIDI message: note_on channel=1 note=89 velocity=124 time=0\n",
      "Received MIDI message: note_on channel=1 note=89 velocity=0 time=0\n",
      "Received MIDI message: note_on channel=1 note=91 velocity=121 time=0\n",
      "Received MIDI message: note_on channel=1 note=91 velocity=0 time=0\n",
      "Received MIDI message: note_on channel=1 note=93 velocity=121 time=0\n",
      "Received MIDI message: note_on channel=1 note=93 velocity=0 time=0\n",
      "Received MIDI message: note_on channel=1 note=95 velocity=120 time=0\n",
      "Received MIDI message: note_on channel=1 note=95 velocity=0 time=0\n",
      "Received MIDI message: note_on channel=1 note=96 velocity=116 time=0\n",
      "Received MIDI message: note_on channel=1 note=96 velocity=0 time=0\n",
      "Received MIDI message: note_on channel=1 note=98 velocity=111 time=0\n",
      "Received MIDI message: note_on channel=1 note=96 velocity=95 time=0\n",
      "Received MIDI message: note_on channel=1 note=96 velocity=0 time=0\n",
      "Received MIDI message: note_on channel=1 note=98 velocity=0 time=0\n",
      "Received MIDI message: note_on channel=1 note=100 velocity=117 time=0\n",
      "Received MIDI message: note_on channel=1 note=98 velocity=111 time=0\n",
      "Received MIDI message: note_on channel=1 note=98 velocity=0 time=0\n",
      "Received MIDI message: note_on channel=1 note=100 velocity=0 time=0\n",
      "Received MIDI message: note_on channel=1 note=101 velocity=112 time=0\n",
      "Received MIDI message: note_on channel=1 note=100 velocity=111 time=0\n",
      "Received MIDI message: note_on channel=1 note=100 velocity=0 time=0\n",
      "Received MIDI message: note_on channel=1 note=101 velocity=0 time=0\n",
      "Received MIDI message: note_on channel=1 note=103 velocity=121 time=0\n",
      "Received MIDI message: note_on channel=1 note=103 velocity=0 time=0\n",
      "Received MIDI message: note_on channel=1 note=105 velocity=119 time=0\n",
      "Received MIDI message: note_on channel=1 note=107 velocity=119 time=0\n",
      "Received MIDI message: note_on channel=1 note=107 velocity=0 time=0\n",
      "Received MIDI message: note_on channel=1 note=105 velocity=0 time=0\n",
      "Received MIDI message: note_on channel=1 note=60 velocity=125 time=0\n",
      "Received MIDI message: note_on channel=1 note=60 velocity=0 time=0\n",
      "Received MIDI message: note_on channel=0 note=60 velocity=122 time=0\n",
      "Received MIDI message: note_on channel=0 note=60 velocity=0 time=0\n",
      "Received MIDI message: note_on channel=0 note=62 velocity=117 time=0\n",
      "Received MIDI message: note_on channel=0 note=62 velocity=0 time=0\n",
      "Received MIDI message: note_on channel=0 note=64 velocity=120 time=0\n",
      "Received MIDI message: note_on channel=0 note=64 velocity=0 time=0\n",
      "Received MIDI message: note_on channel=0 note=65 velocity=119 time=0\n",
      "Received MIDI message: note_on channel=0 note=65 velocity=0 time=0\n",
      "Received MIDI message: note_on channel=0 note=67 velocity=121 time=0\n",
      "Received MIDI message: note_on channel=0 note=67 velocity=0 time=0\n",
      "Received MIDI message: note_on channel=0 note=69 velocity=124 time=0\n",
      "Received MIDI message: note_on channel=0 note=69 velocity=0 time=0\n",
      "Received MIDI message: note_on channel=0 note=71 velocity=122 time=0\n",
      "Received MIDI message: note_on channel=0 note=71 velocity=0 time=0\n",
      "Received MIDI message: note_on channel=0 note=72 velocity=114 time=0\n",
      "Received MIDI message: note_on channel=0 note=72 velocity=0 time=0\n",
      "Received MIDI message: note_on channel=0 note=74 velocity=121 time=0\n",
      "Received MIDI message: note_on channel=0 note=74 velocity=0 time=0\n",
      "Received MIDI message: note_on channel=0 note=76 velocity=117 time=0\n",
      "Received MIDI message: note_on channel=0 note=76 velocity=0 time=0\n",
      "Received MIDI message: note_on channel=0 note=77 velocity=117 time=0\n",
      "Received MIDI message: note_on channel=0 note=77 velocity=0 time=0\n",
      "Received MIDI message: note_on channel=0 note=79 velocity=119 time=0\n",
      "Received MIDI message: note_on channel=0 note=79 velocity=0 time=0\n",
      "Received MIDI message: note_on channel=0 note=81 velocity=116 time=0\n",
      "Received MIDI message: note_on channel=0 note=81 velocity=0 time=0\n",
      "Received MIDI message: note_on channel=0 note=83 velocity=119 time=0\n",
      "Received MIDI message: note_on channel=0 note=83 velocity=0 time=0\n",
      "Received MIDI message: note_on channel=0 note=84 velocity=115 time=0\n",
      "Received MIDI message: note_on channel=0 note=84 velocity=0 time=0\n",
      "Received MIDI message: note_on channel=1 note=84 velocity=125 time=0\n",
      "Received MIDI message: note_on channel=1 note=84 velocity=0 time=0\n",
      "Received MIDI message: note_on channel=1 note=86 velocity=121 time=0\n",
      "Received MIDI message: note_on channel=1 note=86 velocity=0 time=0\n",
      "Received MIDI message: note_on channel=1 note=84 velocity=124 time=0\n",
      "Received MIDI message: note_on channel=1 note=84 velocity=0 time=0\n",
      "Received MIDI message: note_on channel=1 note=86 velocity=122 time=0\n",
      "Received MIDI message: note_on channel=1 note=86 velocity=0 time=0\n",
      "Received MIDI message: note_on channel=1 note=88 velocity=122 time=0\n",
      "Received MIDI message: note_on channel=1 note=88 velocity=0 time=0\n",
      "Received MIDI message: note_on channel=1 note=89 velocity=126 time=0\n",
      "Received MIDI message: note_on channel=1 note=89 velocity=0 time=0\n",
      "Received MIDI message: note_on channel=1 note=91 velocity=122 time=0\n",
      "Received MIDI message: note_on channel=1 note=91 velocity=0 time=0\n",
      "Received MIDI message: note_on channel=1 note=93 velocity=119 time=0\n",
      "Received MIDI message: note_on channel=1 note=93 velocity=0 time=0\n",
      "Received MIDI message: note_on channel=1 note=95 velocity=123 time=0\n",
      "Received MIDI message: note_on channel=1 note=95 velocity=0 time=0\n",
      "Received MIDI message: note_on channel=1 note=96 velocity=117 time=0\n",
      "Received MIDI message: note_on channel=1 note=96 velocity=0 time=0\n",
      "Received MIDI message: note_on channel=1 note=98 velocity=120 time=0\n",
      "Received MIDI message: note_on channel=1 note=98 velocity=0 time=0\n",
      "Received MIDI message: note_on channel=1 note=100 velocity=117 time=0\n",
      "Received MIDI message: note_on channel=1 note=100 velocity=0 time=0\n",
      "Received MIDI message: note_on channel=1 note=101 velocity=120 time=0\n",
      "Received MIDI message: note_on channel=1 note=101 velocity=0 time=0\n",
      "Received MIDI message: note_on channel=1 note=103 velocity=121 time=0\n",
      "Received MIDI message: note_on channel=1 note=103 velocity=0 time=0\n",
      "Received MIDI message: note_on channel=1 note=105 velocity=120 time=0\n",
      "Received MIDI message: note_on channel=1 note=105 velocity=0 time=0\n",
      "Received MIDI message: note_on channel=1 note=107 velocity=112 time=0\n",
      "Received MIDI message: note_on channel=1 note=107 velocity=0 time=0\n",
      "Received MIDI message: note_on channel=1 note=108 velocity=117 time=0\n",
      "Received MIDI message: note_on channel=1 note=108 velocity=0 time=0\n",
      "Received MIDI message: note_on channel=1 note=84 velocity=119 time=0\n",
      "Received MIDI message: note_on channel=1 note=84 velocity=0 time=0\n",
      "Received MIDI message: note_on channel=1 note=86 velocity=120 time=0\n",
      "Received MIDI message: note_on channel=1 note=86 velocity=0 time=0\n",
      "Received MIDI message: note_on channel=1 note=88 velocity=123 time=0\n",
      "Received MIDI message: note_on channel=1 note=88 velocity=0 time=0\n",
      "Received MIDI message: note_on channel=1 note=89 velocity=121 time=0\n",
      "Received MIDI message: note_on channel=1 note=89 velocity=0 time=0\n",
      "Received MIDI message: note_on channel=1 note=91 velocity=121 time=0\n",
      "Received MIDI message: note_on channel=1 note=91 velocity=0 time=0\n",
      "Received MIDI message: note_on channel=1 note=93 velocity=114 time=0\n",
      "Received MIDI message: note_on channel=1 note=91 velocity=112 time=0\n",
      "Received MIDI message: note_on channel=1 note=91 velocity=0 time=0\n",
      "Received MIDI message: note_on channel=1 note=93 velocity=0 time=0\n",
      "Received MIDI message: note_on channel=1 note=95 velocity=117 time=0\n",
      "Received MIDI message: note_on channel=1 note=93 velocity=116 time=0\n",
      "Received MIDI message: note_on channel=1 note=93 velocity=0 time=0\n",
      "Received MIDI message: note_on channel=1 note=95 velocity=0 time=0\n",
      "Received MIDI message: note_on channel=1 note=84 velocity=122 time=0\n",
      "Received MIDI message: note_on channel=1 note=86 velocity=73 time=0\n",
      "Received MIDI message: note_on channel=1 note=84 velocity=0 time=0\n",
      "Received MIDI message: note_on channel=1 note=88 velocity=107 time=0\n",
      "Received MIDI message: note_on channel=1 note=86 velocity=0 time=0\n",
      "Received MIDI message: note_on channel=1 note=89 velocity=116 time=0\n",
      "Received MIDI message: note_on channel=1 note=88 velocity=0 time=0\n",
      "Received MIDI message: note_on channel=1 note=91 velocity=112 time=0\n",
      "Received MIDI message: note_on channel=1 note=89 velocity=0 time=0\n",
      "Received MIDI message: note_on channel=1 note=93 velocity=113 time=0\n",
      "Received MIDI message: note_on channel=1 note=91 velocity=0 time=0\n",
      "Received MIDI message: note_on channel=1 note=95 velocity=116 time=0\n",
      "Received MIDI message: note_on channel=1 note=93 velocity=0 time=0\n",
      "Received MIDI message: note_on channel=1 note=96 velocity=109 time=0\n",
      "Received MIDI message: note_on channel=1 note=95 velocity=0 time=0\n",
      "Received MIDI message: note_on channel=1 note=98 velocity=110 time=0\n",
      "Received MIDI message: note_on channel=1 note=96 velocity=0 time=0\n",
      "Received MIDI message: note_on channel=1 note=100 velocity=117 time=0\n",
      "Received MIDI message: note_on channel=1 note=98 velocity=0 time=0\n",
      "Received MIDI message: note_on channel=1 note=101 velocity=117 time=0\n",
      "Received MIDI message: note_on channel=1 note=100 velocity=0 time=0\n",
      "Received MIDI message: note_on channel=1 note=103 velocity=117 time=0\n",
      "Received MIDI message: note_on channel=1 note=101 velocity=0 time=0\n",
      "Received MIDI message: note_on channel=1 note=105 velocity=115 time=0\n",
      "Received MIDI message: note_on channel=1 note=103 velocity=0 time=0\n",
      "Received MIDI message: note_on channel=1 note=107 velocity=122 time=0\n",
      "Received MIDI message: note_on channel=1 note=105 velocity=0 time=0\n",
      "Received MIDI message: note_on channel=1 note=107 velocity=0 time=0\n",
      "Received MIDI message: note_on channel=0 note=84 velocity=36 time=0\n",
      "Received MIDI message: note_on channel=0 note=83 velocity=56 time=0\n",
      "Received MIDI message: note_on channel=0 note=84 velocity=0 time=0\n",
      "Received MIDI message: note_on channel=0 note=81 velocity=98 time=0\n",
      "Received MIDI message: note_on channel=0 note=83 velocity=0 time=0\n",
      "Received MIDI message: note_on channel=0 note=79 velocity=102 time=0\n",
      "Received MIDI message: note_on channel=0 note=81 velocity=0 time=0\n",
      "Received MIDI message: note_on channel=0 note=77 velocity=105 time=0\n",
      "Received MIDI message: note_on channel=0 note=79 velocity=0 time=0\n",
      "Received MIDI message: note_on channel=0 note=76 velocity=102 time=0\n",
      "Received MIDI message: note_on channel=0 note=77 velocity=0 time=0\n",
      "Received MIDI message: note_on channel=0 note=74 velocity=102 time=0\n",
      "Received MIDI message: note_on channel=0 note=76 velocity=0 time=0\n",
      "Received MIDI message: note_on channel=0 note=72 velocity=93 time=0\n",
      "Received MIDI message: note_on channel=0 note=74 velocity=0 time=0\n",
      "Received MIDI message: note_on channel=0 note=71 velocity=108 time=0\n",
      "Received MIDI message: note_on channel=0 note=72 velocity=0 time=0\n",
      "Received MIDI message: note_on channel=0 note=69 velocity=109 time=0\n",
      "Received MIDI message: note_on channel=0 note=71 velocity=0 time=0\n",
      "Received MIDI message: note_on channel=0 note=67 velocity=111 time=0\n",
      "Received MIDI message: note_on channel=0 note=69 velocity=0 time=0\n",
      "Received MIDI message: note_on channel=0 note=65 velocity=114 time=0\n",
      "Received MIDI message: note_on channel=0 note=67 velocity=0 time=0\n",
      "Received MIDI message: note_on channel=0 note=64 velocity=113 time=0\n",
      "Received MIDI message: note_on channel=0 note=65 velocity=0 time=0\n",
      "Received MIDI message: note_on channel=0 note=62 velocity=106 time=0\n",
      "Received MIDI message: note_on channel=0 note=64 velocity=0 time=0\n",
      "Received MIDI message: note_on channel=0 note=60 velocity=67 time=0\n",
      "Received MIDI message: note_on channel=0 note=62 velocity=0 time=0\n",
      "Received MIDI message: note_on channel=0 note=60 velocity=0 time=0\n",
      "Received MIDI message: note_on channel=0 note=60 velocity=96 time=0\n",
      "Received MIDI message: note_on channel=0 note=62 velocity=50 time=0\n",
      "Received MIDI message: note_on channel=0 note=60 velocity=0 time=0\n",
      "Received MIDI message: note_on channel=0 note=64 velocity=108 time=0\n",
      "Received MIDI message: note_on channel=0 note=62 velocity=0 time=0\n",
      "Received MIDI message: note_on channel=0 note=65 velocity=111 time=0\n",
      "Received MIDI message: note_on channel=0 note=64 velocity=0 time=0\n",
      "Received MIDI message: note_on channel=0 note=67 velocity=108 time=0\n",
      "Received MIDI message: note_on channel=0 note=65 velocity=0 time=0\n",
      "Received MIDI message: note_on channel=0 note=69 velocity=107 time=0\n",
      "Received MIDI message: note_on channel=0 note=67 velocity=0 time=0\n",
      "Received MIDI message: note_on channel=0 note=71 velocity=109 time=0\n",
      "Received MIDI message: note_on channel=0 note=69 velocity=0 time=0\n",
      "Received MIDI message: note_on channel=0 note=72 velocity=93 time=0\n",
      "Received MIDI message: note_on channel=0 note=71 velocity=0 time=0\n",
      "Received MIDI message: note_on channel=0 note=74 velocity=96 time=0\n",
      "Received MIDI message: note_on channel=0 note=72 velocity=0 time=0\n",
      "Received MIDI message: note_on channel=0 note=76 velocity=111 time=0\n",
      "Received MIDI message: note_on channel=0 note=74 velocity=0 time=0\n",
      "Received MIDI message: note_on channel=0 note=77 velocity=116 time=0\n",
      "Received MIDI message: note_on channel=0 note=76 velocity=0 time=0\n",
      "Received MIDI message: note_on channel=0 note=77 velocity=0 time=0\n",
      "Received MIDI message: note_on channel=0 note=79 velocity=92 time=0\n",
      "Received MIDI message: note_on channel=0 note=79 velocity=0 time=0\n",
      "Received MIDI message: note_on channel=0 note=81 velocity=109 time=0\n",
      "Received MIDI message: note_on channel=0 note=67 velocity=77 time=0\n",
      "Received MIDI message: note_on channel=0 note=69 velocity=97 time=0\n",
      "Received MIDI message: note_on channel=0 note=74 velocity=100 time=0\n",
      "Received MIDI message: note_on channel=0 note=72 velocity=100 time=0\n",
      "Received MIDI message: note_on channel=0 note=60 velocity=72 time=0\n",
      "Received MIDI message: note_on channel=0 note=64 velocity=16 time=0\n",
      "Received MIDI message: note_on channel=0 note=62 velocity=16 time=0\n",
      "Received MIDI message: note_on channel=0 note=72 velocity=0 time=0\n",
      "Received MIDI message: note_on channel=0 note=74 velocity=0 time=0\n",
      "Received MIDI message: note_on channel=0 note=69 velocity=0 time=0\n",
      "Received MIDI message: note_on channel=0 note=81 velocity=0 time=0\n",
      "Received MIDI message: note_on channel=0 note=62 velocity=0 time=0\n",
      "Received MIDI message: note_on channel=0 note=64 velocity=0 time=0\n",
      "Received MIDI message: note_on channel=0 note=67 velocity=0 time=0\n",
      "Received MIDI message: note_on channel=0 note=60 velocity=0 time=0\n",
      "Received MIDI message: note_on channel=0 note=83 velocity=114 time=0\n",
      "Received MIDI message: note_on channel=0 note=79 velocity=121 time=0\n",
      "Received MIDI message: note_on channel=0 note=83 velocity=0 time=0\n",
      "Received MIDI message: note_on channel=0 note=79 velocity=0 time=0\n",
      "Received MIDI message: note_on channel=0 note=64 velocity=116 time=0\n",
      "Received MIDI message: note_on channel=0 note=65 velocity=110 time=0\n",
      "Received MIDI message: note_on channel=0 note=67 velocity=16 time=0\n",
      "Received MIDI message: note_on channel=0 note=69 velocity=16 time=0\n",
      "Received MIDI message: note_on channel=0 note=65 velocity=0 time=0\n",
      "Received MIDI message: note_on channel=0 note=64 velocity=0 time=0\n",
      "Received MIDI message: note_on channel=0 note=69 velocity=0 time=0\n",
      "Received MIDI message: note_on channel=0 note=67 velocity=0 time=0\n",
      "Received MIDI message: note_on channel=0 note=76 velocity=121 time=0\n",
      "Received MIDI message: note_on channel=0 note=81 velocity=127 time=0\n",
      "Received MIDI message: note_on channel=0 note=83 velocity=33 time=0\n",
      "Received MIDI message: note_on channel=0 note=81 velocity=0 time=0\n",
      "Received MIDI message: note_on channel=0 note=84 velocity=41 time=0\n",
      "Received MIDI message: note_on channel=0 note=83 velocity=0 time=0\n",
      "Received MIDI message: note_on channel=0 note=83 velocity=27 time=0\n",
      "Received MIDI message: note_on channel=0 note=83 velocity=0 time=0\n",
      "Received MIDI message: note_on channel=0 note=76 velocity=0 time=0\n",
      "Received MIDI message: note_on channel=0 note=84 velocity=0 time=0\n",
      "Received MIDI message: note_on channel=0 note=62 velocity=114 time=0\n",
      "Received MIDI message: note_on channel=0 note=60 velocity=87 time=0\n",
      "Received MIDI message: note_on channel=0 note=69 velocity=72 time=0\n",
      "Received MIDI message: note_on channel=0 note=69 velocity=0 time=0\n",
      "Received MIDI message: note_on channel=0 note=60 velocity=0 time=0\n",
      "Received MIDI message: note_on channel=0 note=62 velocity=0 time=0\n",
      "Received MIDI message: note_on channel=0 note=84 velocity=119 time=0\n",
      "Received MIDI message: note_on channel=0 note=83 velocity=102 time=0\n",
      "Received MIDI message: note_on channel=0 note=77 velocity=110 time=0\n",
      "Received MIDI message: note_on channel=0 note=76 velocity=110 time=0\n",
      "Received MIDI message: note_on channel=0 note=81 velocity=127 time=0\n",
      "Received MIDI message: note_on channel=0 note=81 velocity=0 time=0\n",
      "Received MIDI message: note_on channel=0 note=77 velocity=0 time=0\n",
      "Received MIDI message: note_on channel=0 note=76 velocity=0 time=0\n",
      "Received MIDI message: note_on channel=0 note=83 velocity=0 time=0\n",
      "Received MIDI message: note_on channel=0 note=84 velocity=0 time=0\n",
      "Received MIDI message: note_on channel=0 note=81 velocity=29 time=0\n",
      "Received MIDI message: note_on channel=0 note=81 velocity=0 time=0\n",
      "Received MIDI message: note_on channel=0 note=77 velocity=123 time=0\n",
      "Received MIDI message: note_on channel=0 note=76 velocity=104 time=0\n",
      "Received MIDI message: note_on channel=0 note=81 velocity=110 time=0\n",
      "Received MIDI message: note_on channel=0 note=81 velocity=0 time=0\n",
      "Received MIDI message: note_on channel=0 note=76 velocity=0 time=0\n",
      "Received MIDI message: note_on channel=0 note=77 velocity=0 time=0\n",
      "Received MIDI message: note_on channel=0 note=79 velocity=90 time=0\n",
      "Received MIDI message: note_on channel=0 note=79 velocity=0 time=0\n",
      "Received MIDI message: note_on channel=0 note=79 velocity=125 time=0\n",
      "Received MIDI message: note_on channel=0 note=77 velocity=126 time=0\n",
      "Received MIDI message: note_on channel=0 note=77 velocity=0 time=0\n",
      "Received MIDI message: note_on channel=0 note=79 velocity=0 time=0\n",
      "Received MIDI message: note_on channel=0 note=79 velocity=125 time=0\n",
      "Received MIDI message: note_on channel=0 note=77 velocity=110 time=0\n",
      "Received MIDI message: note_on channel=0 note=76 velocity=89 time=0\n",
      "Received MIDI message: note_on channel=0 note=79 velocity=0 time=0\n",
      "Received MIDI message: note_on channel=0 note=76 velocity=0 time=0\n",
      "Received MIDI message: note_on channel=0 note=77 velocity=0 time=0\n",
      "Received MIDI message: note_on channel=0 note=67 velocity=127 time=0\n",
      "Received MIDI message: note_on channel=0 note=69 velocity=110 time=0\n",
      "Received MIDI message: note_on channel=0 note=69 velocity=0 time=0\n",
      "Received MIDI message: note_on channel=0 note=67 velocity=0 time=0\n",
      "Received MIDI message: note_on channel=0 note=74 velocity=127 time=0\n",
      "Received MIDI message: note_on channel=0 note=74 velocity=0 time=0\n",
      "Received MIDI message: note_on channel=0 note=69 velocity=125 time=0\n",
      "Received MIDI message: note_on channel=0 note=72 velocity=126 time=0\n",
      "Received MIDI message: note_on channel=0 note=69 velocity=0 time=0\n",
      "Received MIDI message: note_on channel=0 note=72 velocity=0 time=0\n",
      "Received MIDI message: note_on channel=0 note=72 velocity=126 time=0\n",
      "Received MIDI message: note_on channel=0 note=69 velocity=127 time=0\n",
      "Received MIDI message: note_on channel=0 note=72 velocity=0 time=0\n",
      "Received MIDI message: note_on channel=0 note=76 velocity=126 time=0\n",
      "Received MIDI message: note_on channel=0 note=74 velocity=127 time=0\n",
      "Received MIDI message: note_on channel=0 note=74 velocity=0 time=0\n",
      "Received MIDI message: note_on channel=0 note=69 velocity=0 time=0\n",
      "Received MIDI message: note_on channel=0 note=76 velocity=0 time=0\n",
      "Received MIDI message: note_on channel=0 note=76 velocity=32 time=0\n",
      "Received MIDI message: note_on channel=0 note=76 velocity=0 time=0\n",
      "Received MIDI message: note_on channel=0 note=76 velocity=126 time=0\n",
      "Received MIDI message: note_on channel=0 note=67 velocity=126 time=0\n",
      "Received MIDI message: note_on channel=0 note=76 velocity=0 time=0\n",
      "Received MIDI message: note_on channel=0 note=72 velocity=127 time=0\n",
      "Received MIDI message: note_on channel=0 note=71 velocity=108 time=0\n",
      "Received MIDI message: note_on channel=0 note=71 velocity=0 time=0\n",
      "Received MIDI message: note_on channel=0 note=72 velocity=0 time=0\n",
      "Received MIDI message: note_on channel=0 note=67 velocity=0 time=0\n",
      "Received MIDI message: note_on channel=0 note=72 velocity=43 time=0\n",
      "Received MIDI message: note_on channel=0 note=72 velocity=0 time=0\n",
      "Received MIDI message: note_on channel=0 note=69 velocity=126 time=0\n",
      "Received MIDI message: note_on channel=0 note=71 velocity=111 time=0\n",
      "Received MIDI message: note_on channel=0 note=72 velocity=116 time=0\n",
      "Received MIDI message: note_on channel=0 note=71 velocity=0 time=0\n",
      "Received MIDI message: note_on channel=0 note=69 velocity=0 time=0\n",
      "Received MIDI message: note_on channel=0 note=72 velocity=0 time=0\n",
      "Received MIDI message: note_on channel=0 note=69 velocity=127 time=0\n",
      "Received MIDI message: note_on channel=0 note=72 velocity=127 time=0\n",
      "Received MIDI message: note_on channel=0 note=69 velocity=0 time=0\n",
      "Received MIDI message: note_on channel=0 note=67 velocity=127 time=0\n",
      "Received MIDI message: note_on channel=0 note=72 velocity=0 time=0\n",
      "Received MIDI message: note_on channel=0 note=77 velocity=127 time=0\n",
      "Received MIDI message: note_on channel=0 note=77 velocity=0 time=0\n",
      "Received MIDI message: note_on channel=0 note=67 velocity=0 time=0\n",
      "Received MIDI message: note_on channel=0 note=69 velocity=127 time=0\n",
      "Received MIDI message: note_on channel=0 note=74 velocity=127 time=0\n",
      "Received MIDI message: note_on channel=0 note=72 velocity=126 time=0\n",
      "Received MIDI message: note_on channel=0 note=72 velocity=0 time=0\n",
      "Received MIDI message: note_on channel=0 note=74 velocity=0 time=0\n",
      "Received MIDI message: note_on channel=0 note=69 velocity=0 time=0\n",
      "Received MIDI message: note_on channel=0 note=74 velocity=127 time=0\n",
      "Received MIDI message: note_on channel=0 note=74 velocity=0 time=0\n",
      "Received MIDI message: note_on channel=0 note=74 velocity=120 time=0\n",
      "Received MIDI message: note_on channel=0 note=69 velocity=127 time=0\n",
      "Received MIDI message: note_on channel=0 note=74 velocity=0 time=0\n",
      "Received MIDI message: note_on channel=0 note=72 velocity=127 time=0\n",
      "Received MIDI message: note_on channel=0 note=69 velocity=0 time=0\n",
      "Received MIDI message: note_on channel=0 note=69 velocity=127 time=0\n",
      "Received MIDI message: note_on channel=0 note=72 velocity=0 time=0\n",
      "Received MIDI message: note_on channel=0 note=74 velocity=127 time=0\n",
      "Received MIDI message: note_on channel=0 note=69 velocity=0 time=0\n",
      "Received MIDI message: note_on channel=0 note=74 velocity=0 time=0\n",
      "Received MIDI message: note_on channel=0 note=69 velocity=127 time=0\n",
      "Received MIDI message: note_on channel=0 note=74 velocity=125 time=0\n",
      "Received MIDI message: note_on channel=0 note=69 velocity=0 time=0\n",
      "Received MIDI message: note_on channel=0 note=69 velocity=127 time=0\n",
      "Received MIDI message: note_on channel=0 note=74 velocity=0 time=0\n",
      "Received MIDI message: note_on channel=0 note=72 velocity=127 time=0\n",
      "Received MIDI message: note_on channel=0 note=69 velocity=0 time=0\n",
      "Received MIDI message: note_on channel=0 note=65 velocity=127 time=0\n",
      "Received MIDI message: note_on channel=0 note=72 velocity=0 time=0\n",
      "Received MIDI message: note_on channel=0 note=67 velocity=114 time=0\n",
      "Received MIDI message: note_on channel=0 note=69 velocity=101 time=0\n",
      "Received MIDI message: note_on channel=0 note=65 velocity=0 time=0\n",
      "Received MIDI message: note_on channel=0 note=64 velocity=65 time=0\n",
      "Received MIDI message: note_on channel=0 note=81 velocity=78 time=0\n",
      "Received MIDI message: note_on channel=0 note=69 velocity=0 time=0\n",
      "Received MIDI message: note_on channel=0 note=67 velocity=0 time=0\n",
      "Received MIDI message: note_on channel=0 note=62 velocity=96 time=0\n",
      "Received MIDI message: note_on channel=0 note=64 velocity=0 time=0\n",
      "Received MIDI message: note_on channel=0 note=64 velocity=48 time=0\n",
      "Received MIDI message: note_on channel=0 note=74 velocity=83 time=0\n",
      "Received MIDI message: note_on channel=0 note=81 velocity=0 time=0\n",
      "Received MIDI message: note_on channel=0 note=67 velocity=119 time=0\n",
      "Received MIDI message: note_on channel=0 note=62 velocity=0 time=0\n",
      "Received MIDI message: note_on channel=0 note=81 velocity=119 time=0\n",
      "Received MIDI message: note_on channel=0 note=74 velocity=0 time=0\n",
      "Received MIDI message: note_on channel=0 note=64 velocity=0 time=0\n",
      "Received MIDI message: note_on channel=0 note=67 velocity=0 time=0\n",
      "Received MIDI message: note_on channel=0 note=62 velocity=58 time=0\n",
      "Received MIDI message: note_on channel=0 note=77 velocity=58 time=0\n",
      "Received MIDI message: note_on channel=0 note=77 velocity=0 time=0\n",
      "Received MIDI message: note_on channel=0 note=81 velocity=0 time=0\n",
      "Received MIDI message: note_on channel=0 note=74 velocity=127 time=0\n",
      "Received MIDI message: note_on channel=0 note=62 velocity=0 time=0\n",
      "Received MIDI message: note_on channel=0 note=74 velocity=0 time=0\n",
      "Received MIDI message: note_on channel=0 note=64 velocity=16 time=0\n",
      "Received MIDI message: note_on channel=0 note=74 velocity=118 time=0\n",
      "Received MIDI message: note_on channel=0 note=64 velocity=0 time=0\n",
      "Received MIDI message: note_on channel=0 note=74 velocity=0 time=0\n",
      "Received MIDI message: note_on channel=0 note=77 velocity=105 time=0\n",
      "Received MIDI message: note_on channel=0 note=74 velocity=123 time=0\n",
      "Received MIDI message: note_on channel=0 note=77 velocity=0 time=0\n",
      "Received MIDI message: note_on channel=0 note=83 velocity=84 time=0\n",
      "Received MIDI message: note_on channel=0 note=74 velocity=0 time=0\n",
      "Received MIDI message: note_on channel=0 note=81 velocity=67 time=0\n",
      "Received MIDI message: note_on channel=0 note=77 velocity=53 time=0\n",
      "Received MIDI message: note_on channel=0 note=74 velocity=123 time=0\n",
      "Received MIDI message: note_on channel=0 note=83 velocity=0 time=0\n",
      "Received MIDI message: note_on channel=0 note=77 velocity=0 time=0\n",
      "Received MIDI message: note_on channel=0 note=81 velocity=0 time=0\n",
      "Received MIDI message: note_on channel=0 note=74 velocity=0 time=0\n",
      "Received MIDI message: note_on channel=0 note=67 velocity=114 time=0\n",
      "Received MIDI message: note_on channel=0 note=62 velocity=87 time=0\n",
      "Received MIDI message: note_on channel=0 note=65 velocity=127 time=0\n",
      "Received MIDI message: note_on channel=0 note=62 velocity=0 time=0\n",
      "Received MIDI message: note_on channel=0 note=67 velocity=0 time=0\n",
      "Received MIDI message: note_on channel=0 note=65 velocity=0 time=0\n",
      "Received MIDI message: note_on channel=0 note=83 velocity=61 time=0\n",
      "Received MIDI message: note_on channel=0 note=84 velocity=24 time=0\n",
      "Received MIDI message: note_on channel=0 note=81 velocity=16 time=0\n",
      "Received MIDI message: note_on channel=0 note=79 velocity=110 time=0\n",
      "Received MIDI message: note_on channel=0 note=77 velocity=104 time=0\n",
      "Received MIDI message: note_on channel=0 note=84 velocity=0 time=0\n",
      "Received MIDI message: note_on channel=0 note=79 velocity=0 time=0\n",
      "Received MIDI message: note_on channel=0 note=81 velocity=0 time=0\n",
      "Received MIDI message: note_on channel=0 note=79 velocity=57 time=0\n",
      "Received MIDI message: note_on channel=0 note=77 velocity=0 time=0\n",
      "Received MIDI message: note_on channel=0 note=76 velocity=80 time=0\n",
      "Received MIDI message: note_on channel=0 note=83 velocity=0 time=0\n",
      "Received MIDI message: note_on channel=0 note=79 velocity=0 time=0\n",
      "Received MIDI message: note_on channel=0 note=76 velocity=0 time=0\n",
      "Received MIDI message: note_on channel=0 note=74 velocity=93 time=0\n",
      "Received MIDI message: note_on channel=0 note=74 velocity=0 time=0\n",
      "Received MIDI message: note_on channel=0 note=69 velocity=110 time=0\n",
      "Received MIDI message: note_on channel=0 note=67 velocity=117 time=0\n",
      "Received MIDI message: note_on channel=0 note=71 velocity=93 time=0\n",
      "Received MIDI message: note_on channel=0 note=69 velocity=0 time=0\n",
      "Received MIDI message: note_on channel=0 note=71 velocity=0 time=0\n",
      "Received MIDI message: note_on channel=0 note=65 velocity=100 time=0\n",
      "Received MIDI message: note_on channel=0 note=67 velocity=0 time=0\n",
      "Received MIDI message: note_on channel=0 note=69 velocity=16 time=0\n",
      "Received MIDI message: note_on channel=0 note=67 velocity=110 time=0\n",
      "Received MIDI message: note_on channel=0 note=65 velocity=0 time=0\n",
      "Received MIDI message: note_on channel=0 note=64 velocity=110 time=0\n",
      "Received MIDI message: note_on channel=0 note=67 velocity=0 time=0\n",
      "Received MIDI message: note_on channel=0 note=64 velocity=0 time=0\n",
      "Received MIDI message: note_on channel=0 note=69 velocity=0 time=0\n",
      "Received MIDI message: note_on channel=0 note=71 velocity=126 time=0\n",
      "Received MIDI message: note_on channel=0 note=74 velocity=122 time=0\n",
      "Received MIDI message: note_on channel=0 note=74 velocity=0 time=0\n",
      "Received MIDI message: note_on channel=0 note=71 velocity=0 time=0\n",
      "Received MIDI message: note_on channel=0 note=69 velocity=127 time=0\n",
      "Received MIDI message: note_on channel=0 note=67 velocity=127 time=0\n",
      "Received MIDI message: note_on channel=0 note=67 velocity=0 time=0\n",
      "Received MIDI message: note_on channel=0 note=69 velocity=0 time=0\n",
      "Received MIDI message: note_on channel=0 note=71 velocity=127 time=0\n",
      "Received MIDI message: note_on channel=0 note=74 velocity=127 time=0\n",
      "Received MIDI message: note_on channel=0 note=74 velocity=0 time=0\n",
      "Received MIDI message: note_on channel=0 note=71 velocity=0 time=0\n",
      "Received MIDI message: note_on channel=0 note=65 velocity=127 time=0\n",
      "Received MIDI message: note_on channel=0 note=69 velocity=122 time=0\n",
      "Received MIDI message: note_on channel=0 note=65 velocity=0 time=0\n",
      "Received MIDI message: note_on channel=0 note=65 velocity=71 time=0\n",
      "Received MIDI message: note_on channel=0 note=65 velocity=0 time=0\n",
      "Received MIDI message: note_on channel=0 note=69 velocity=0 time=0\n",
      "Received MIDI message: note_on channel=0 note=69 velocity=127 time=0\n",
      "Received MIDI message: note_on channel=0 note=67 velocity=127 time=0\n",
      "Received MIDI message: note_on channel=0 note=65 velocity=127 time=0\n",
      "Received MIDI message: note_on channel=0 note=64 velocity=108 time=0\n",
      "Received MIDI message: note_on channel=0 note=67 velocity=0 time=0\n",
      "Received MIDI message: note_on channel=0 note=65 velocity=0 time=0\n",
      "Received MIDI message: note_on channel=0 note=77 velocity=127 time=0\n",
      "Received MIDI message: note_on channel=0 note=81 velocity=110 time=0\n",
      "Received MIDI message: note_on channel=0 note=81 velocity=0 time=0\n",
      "Received MIDI message: note_on channel=0 note=77 velocity=0 time=0\n",
      "Received MIDI message: note_on channel=0 note=72 velocity=69 time=0\n",
      "Received MIDI message: note_on channel=0 note=72 velocity=0 time=0\n",
      "Received MIDI message: note_on channel=0 note=64 velocity=0 time=0\n",
      "Received MIDI message: note_on channel=0 note=69 velocity=0 time=0\n",
      "Received MIDI message: note_on channel=0 note=62 velocity=124 time=0\n",
      "Received MIDI message: note_on channel=0 note=67 velocity=127 time=0\n",
      "Received MIDI message: note_on channel=0 note=65 velocity=127 time=0\n",
      "Received MIDI message: note_on channel=0 note=71 velocity=127 time=0\n",
      "Received MIDI message: note_on channel=0 note=69 velocity=107 time=0\n",
      "Received MIDI message: note_on channel=0 note=74 velocity=127 time=0\n",
      "Received MIDI message: note_on channel=0 note=79 velocity=110 time=0\n",
      "Received MIDI message: note_on channel=0 note=62 velocity=0 time=0\n",
      "Received MIDI message: note_on channel=0 note=81 velocity=110 time=0\n",
      "Received MIDI message: note_on channel=0 note=81 velocity=0 time=0\n",
      "Received MIDI message: note_on channel=0 note=81 velocity=17 time=0\n",
      "Received MIDI message: note_on channel=0 note=69 velocity=0 time=0\n",
      "Received MIDI message: note_on channel=0 note=65 velocity=0 time=0\n",
      "Received MIDI message: note_on channel=0 note=67 velocity=0 time=0\n",
      "Received MIDI message: note_on channel=0 note=71 velocity=0 time=0\n",
      "Received MIDI message: note_on channel=0 note=74 velocity=0 time=0\n",
      "Received MIDI message: note_on channel=0 note=79 velocity=0 time=0\n",
      "Received MIDI message: note_on channel=0 note=81 velocity=0 time=0\n",
      "Received MIDI message: note_on channel=0 note=62 velocity=125 time=0\n",
      "Received MIDI message: note_on channel=0 note=67 velocity=127 time=0\n",
      "Received MIDI message: note_on channel=0 note=65 velocity=108 time=0\n",
      "Received MIDI message: note_on channel=0 note=71 velocity=126 time=0\n",
      "Received MIDI message: note_on channel=0 note=79 velocity=111 time=0\n",
      "Received MIDI message: note_on channel=0 note=67 velocity=0 time=0\n",
      "Received MIDI message: note_on channel=0 note=74 velocity=107 time=0\n",
      "Received MIDI message: note_on channel=0 note=74 velocity=0 time=0\n",
      "Received MIDI message: note_on channel=0 note=76 velocity=110 time=0\n",
      "Received MIDI message: note_on channel=0 note=69 velocity=75 time=0\n",
      "Received MIDI message: note_on channel=0 note=81 velocity=110 time=0\n",
      "Received MIDI message: note_on channel=0 note=67 velocity=16 time=0\n",
      "Received MIDI message: note_on channel=0 note=67 velocity=0 time=0\n",
      "Received MIDI message: note_on channel=0 note=69 velocity=0 time=0\n",
      "Received MIDI message: note_on channel=0 note=65 velocity=0 time=0\n",
      "Received MIDI message: note_on channel=0 note=71 velocity=0 time=0\n",
      "Received MIDI message: note_on channel=0 note=62 velocity=0 time=0\n",
      "Received MIDI message: note_on channel=0 note=79 velocity=0 time=0\n",
      "Received MIDI message: note_on channel=0 note=76 velocity=0 time=0\n",
      "Received MIDI message: note_on channel=0 note=81 velocity=0 time=0\n",
      "Received MIDI message: note_on channel=0 note=65 velocity=127 time=0\n",
      "Received MIDI message: note_on channel=0 note=62 velocity=81 time=0\n",
      "Received MIDI message: note_on channel=0 note=67 velocity=110 time=0\n",
      "Received MIDI message: note_on channel=0 note=64 velocity=96 time=0\n",
      "Received MIDI message: note_on channel=0 note=71 velocity=116 time=0\n",
      "Received MIDI message: note_on channel=0 note=69 velocity=127 time=0\n",
      "Received MIDI message: note_on channel=0 note=72 velocity=16 time=0\n",
      "Received MIDI message: note_on channel=0 note=60 velocity=16 time=0\n",
      "Received MIDI message: note_on channel=0 note=74 velocity=16 time=0\n",
      "Received MIDI message: note_on channel=0 note=71 velocity=0 time=0\n",
      "Received MIDI message: note_on channel=0 note=76 velocity=16 time=0\n",
      "Received MIDI message: note_on channel=0 note=77 velocity=100 time=0\n",
      "Received MIDI message: note_on channel=0 note=72 velocity=0 time=0\n",
      "Received MIDI message: note_on channel=0 note=74 velocity=0 time=0\n",
      "Received MIDI message: note_on channel=0 note=79 velocity=31 time=0\n",
      "Received MIDI message: note_on channel=0 note=81 velocity=109 time=0\n",
      "Received MIDI message: note_on channel=0 note=76 velocity=0 time=0\n",
      "Received MIDI message: note_on channel=0 note=83 velocity=37 time=0\n",
      "Received MIDI message: note_on channel=0 note=77 velocity=0 time=0\n",
      "Received MIDI message: note_on channel=0 note=79 velocity=0 time=0\n",
      "Received MIDI message: note_on channel=0 note=81 velocity=0 time=0\n",
      "Received MIDI message: note_on channel=0 note=62 velocity=0 time=0\n",
      "Received MIDI message: note_on channel=0 note=83 velocity=0 time=0\n",
      "Received MIDI message: note_on channel=0 note=64 velocity=0 time=0\n",
      "Received MIDI message: note_on channel=0 note=60 velocity=0 time=0\n",
      "Received MIDI message: note_on channel=0 note=69 velocity=0 time=0\n",
      "Received MIDI message: note_on channel=0 note=67 velocity=0 time=0\n",
      "Received MIDI message: note_on channel=0 note=65 velocity=0 time=0\n",
      "Received MIDI message: note_on channel=0 note=60 velocity=105 time=0\n",
      "Received MIDI message: note_on channel=0 note=64 velocity=127 time=0\n",
      "Received MIDI message: note_on channel=0 note=67 velocity=127 time=0\n",
      "Received MIDI message: note_on channel=0 note=71 velocity=108 time=0\n",
      "Received MIDI message: note_on channel=0 note=69 velocity=111 time=0\n",
      "Received MIDI message: note_on channel=0 note=67 velocity=0 time=0\n",
      "Received MIDI message: note_on channel=0 note=74 velocity=127 time=0\n",
      "Received MIDI message: note_on channel=0 note=72 velocity=127 time=0\n",
      "Received MIDI message: note_on channel=0 note=83 velocity=46 time=0\n",
      "Received MIDI message: note_on channel=0 note=67 velocity=16 time=0\n",
      "Received MIDI message: note_on channel=0 note=74 velocity=0 time=0\n",
      "Received MIDI message: note_on channel=0 note=72 velocity=0 time=0\n",
      "Received MIDI message: note_on channel=0 note=83 velocity=0 time=0\n",
      "Received MIDI message: note_on channel=0 note=69 velocity=0 time=0\n",
      "Received MIDI message: note_on channel=0 note=60 velocity=0 time=0\n",
      "Received MIDI message: note_on channel=0 note=67 velocity=0 time=0\n",
      "Received MIDI message: note_on channel=0 note=64 velocity=0 time=0\n",
      "Received MIDI message: note_on channel=0 note=71 velocity=0 time=0\n",
      "Received MIDI message: note_on channel=0 note=67 velocity=126 time=0\n",
      "Received MIDI message: note_on channel=0 note=69 velocity=107 time=0\n",
      "Received MIDI message: note_on channel=0 note=70 velocity=127 time=0\n",
      "Received MIDI message: note_on channel=0 note=70 velocity=0 time=0\n",
      "Received MIDI message: note_on channel=0 note=69 velocity=0 time=0\n",
      "Received MIDI message: note_on channel=0 note=65 velocity=116 time=0\n",
      "Received MIDI message: note_on channel=0 note=69 velocity=125 time=0\n",
      "Received MIDI message: note_on channel=0 note=67 velocity=0 time=0\n",
      "Received MIDI message: note_on channel=0 note=71 velocity=77 time=0\n",
      "Received MIDI message: note_on channel=0 note=69 velocity=0 time=0\n",
      "Received MIDI message: note_on channel=0 note=72 velocity=88 time=0\n",
      "Received MIDI message: note_on channel=0 note=71 velocity=0 time=0\n",
      "Received MIDI message: note_on channel=0 note=74 velocity=102 time=0\n",
      "Received MIDI message: note_on channel=0 note=72 velocity=0 time=0\n",
      "Received MIDI message: note_on channel=0 note=76 velocity=110 time=0\n",
      "Received MIDI message: note_on channel=0 note=74 velocity=0 time=0\n",
      "Received MIDI message: note_on channel=0 note=77 velocity=112 time=0\n",
      "Received MIDI message: note_on channel=0 note=76 velocity=0 time=0\n",
      "Received MIDI message: note_on channel=0 note=79 velocity=113 time=0\n",
      "Received MIDI message: note_on channel=0 note=77 velocity=0 time=0\n",
      "Received MIDI message: note_on channel=0 note=81 velocity=108 time=0\n",
      "Received MIDI message: note_on channel=0 note=79 velocity=0 time=0\n",
      "Received MIDI message: note_on channel=0 note=81 velocity=0 time=0\n",
      "Received MIDI message: note_on channel=0 note=65 velocity=0 time=0\n",
      "Received MIDI message: note_on channel=0 note=64 velocity=124 time=0\n",
      "Received MIDI message: note_on channel=0 note=71 velocity=127 time=0\n",
      "Received MIDI message: note_on channel=0 note=72 velocity=124 time=0\n",
      "Received MIDI message: note_on channel=0 note=76 velocity=127 time=0\n",
      "Received MIDI message: note_on channel=0 note=81 velocity=60 time=0\n",
      "Received MIDI message: note_on channel=0 note=76 velocity=0 time=0\n",
      "Received MIDI message: note_on channel=0 note=81 velocity=0 time=0\n",
      "Received MIDI message: note_on channel=0 note=72 velocity=0 time=0\n",
      "Received MIDI message: note_on channel=0 note=64 velocity=0 time=0\n",
      "Received MIDI message: note_on channel=0 note=71 velocity=0 time=0\n",
      "Received MIDI message: note_on channel=0 note=69 velocity=123 time=0\n",
      "Received MIDI message: note_on channel=0 note=67 velocity=110 time=0\n",
      "Received MIDI message: note_on channel=0 note=67 velocity=0 time=0\n",
      "Received MIDI message: note_on channel=0 note=72 velocity=115 time=0\n",
      "Received MIDI message: note_on channel=0 note=69 velocity=0 time=0\n",
      "Received MIDI message: note_on channel=0 note=74 velocity=93 time=0\n",
      "Received MIDI message: note_on channel=0 note=74 velocity=0 time=0\n",
      "Received MIDI message: note_on channel=0 note=72 velocity=0 time=0\n",
      "Received MIDI message: note_on channel=0 note=69 velocity=127 time=0\n",
      "Received MIDI message: note_on channel=0 note=74 velocity=127 time=0\n",
      "Received MIDI message: note_on channel=0 note=72 velocity=107 time=0\n",
      "Received MIDI message: note_on channel=0 note=72 velocity=0 time=0\n",
      "Received MIDI message: note_on channel=0 note=69 velocity=0 time=0\n",
      "Received MIDI message: note_on channel=0 note=74 velocity=0 time=0\n",
      "Received MIDI message: note_on channel=0 note=69 velocity=113 time=0\n",
      "Received MIDI message: note_on channel=0 note=69 velocity=0 time=0\n",
      "Received MIDI message: note_on channel=0 note=83 velocity=26 time=0\n",
      "Received MIDI message: note_on channel=0 note=83 velocity=0 time=0\n",
      "Received MIDI message: note_on channel=0 note=83 velocity=80 time=0\n",
      "Received MIDI message: note_on channel=0 note=76 velocity=44 time=0\n",
      "Received MIDI message: note_on channel=0 note=76 velocity=0 time=0\n",
      "Received MIDI message: note_on channel=0 note=79 velocity=108 time=0\n",
      "Received MIDI message: note_on channel=0 note=83 velocity=0 time=0\n",
      "Received MIDI message: note_on channel=0 note=79 velocity=0 time=0\n",
      "Received MIDI message: note_on channel=0 note=83 velocity=75 time=0\n",
      "Received MIDI message: note_on channel=0 note=83 velocity=0 time=0\n",
      "Received MIDI message: note_on channel=0 note=83 velocity=40 time=0\n",
      "Received MIDI message: note_on channel=0 note=76 velocity=55 time=0\n",
      "Received MIDI message: note_on channel=0 note=74 velocity=52 time=0\n",
      "Received MIDI message: note_on channel=0 note=83 velocity=0 time=0\n",
      "Received MIDI message: note_on channel=0 note=74 velocity=0 time=0\n",
      "Received MIDI message: note_on channel=0 note=76 velocity=0 time=0\n",
      "Received MIDI message: note_on channel=0 note=83 velocity=90 time=0\n",
      "Received MIDI message: note_on channel=0 note=79 velocity=93 time=0\n",
      "Received MIDI message: note_on channel=0 note=76 velocity=122 time=0\n",
      "Received MIDI message: note_on channel=0 note=79 velocity=0 time=0\n",
      "Received MIDI message: note_on channel=0 note=83 velocity=0 time=0\n",
      "Received MIDI message: note_on channel=0 note=76 velocity=0 time=0\n",
      "Received MIDI message: note_on channel=1 note=52 velocity=117 time=0\n",
      "Received MIDI message: note_on channel=1 note=52 velocity=0 time=0\n",
      "Received MIDI message: note_on channel=1 note=52 velocity=110 time=0\n",
      "Received MIDI message: note_on channel=1 note=52 velocity=0 time=0\n",
      "Received MIDI message: note_on channel=1 note=52 velocity=122 time=0\n",
      "Received MIDI message: note_on channel=1 note=52 velocity=0 time=0\n",
      "Received MIDI message: note_on channel=1 note=52 velocity=118 time=0\n",
      "Received MIDI message: note_on channel=1 note=52 velocity=0 time=0\n",
      "Received MIDI message: note_on channel=1 note=52 velocity=87 time=0\n",
      "Received MIDI message: note_on channel=1 note=52 velocity=0 time=0\n",
      "Received MIDI message: note_on channel=1 note=52 velocity=110 time=0\n",
      "Received MIDI message: note_on channel=1 note=53 velocity=112 time=0\n",
      "Received MIDI message: note_on channel=1 note=52 velocity=0 time=0\n",
      "Received MIDI message: note_on channel=1 note=57 velocity=113 time=0\n",
      "Received MIDI message: note_on channel=1 note=53 velocity=0 time=0\n",
      "Received MIDI message: note_on channel=1 note=52 velocity=107 time=0\n",
      "Received MIDI message: note_on channel=1 note=57 velocity=0 time=0\n",
      "Received MIDI message: note_on channel=1 note=59 velocity=100 time=0\n",
      "Received MIDI message: note_on channel=1 note=57 velocity=101 time=0\n",
      "Received MIDI message: note_on channel=1 note=52 velocity=0 time=0\n",
      "Received MIDI message: note_on channel=1 note=52 velocity=122 time=0\n",
      "Received MIDI message: note_on channel=1 note=57 velocity=0 time=0\n",
      "Received MIDI message: note_on channel=1 note=59 velocity=0 time=0\n",
      "Received MIDI message: note_on channel=1 note=52 velocity=0 time=0\n",
      "Received MIDI message: note_on channel=1 note=52 velocity=90 time=0\n",
      "Received MIDI message: note_on channel=1 note=52 velocity=0 time=0\n",
      "Received MIDI message: note_on channel=0 note=76 velocity=112 time=0\n",
      "Received MIDI message: note_on channel=0 note=76 velocity=0 time=0\n",
      "Received MIDI message: note_on channel=0 note=76 velocity=85 time=0\n",
      "Received MIDI message: note_on channel=0 note=76 velocity=0 time=0\n",
      "Received MIDI message: note_on channel=0 note=76 velocity=84 time=0\n",
      "Received MIDI message: note_on channel=0 note=76 velocity=0 time=0\n",
      "Received MIDI message: note_on channel=1 note=100 velocity=103 time=0\n",
      "Received MIDI message: note_on channel=1 note=100 velocity=0 time=0\n",
      "Received MIDI message: note_on channel=1 note=100 velocity=112 time=0\n",
      "Received MIDI message: note_on channel=1 note=100 velocity=0 time=0\n",
      "Received MIDI message: note_on channel=1 note=100 velocity=124 time=0\n",
      "Received MIDI message: note_on channel=1 note=100 velocity=0 time=0\n",
      "Received MIDI message: note_on channel=1 note=52 velocity=102 time=0\n",
      "Received MIDI message: note_on channel=1 note=52 velocity=0 time=0\n",
      "Received MIDI message: note_on channel=1 note=52 velocity=119 time=0\n",
      "Received MIDI message: note_on channel=1 note=52 velocity=0 time=0\n",
      "Received MIDI message: note_on channel=1 note=52 velocity=124 time=0\n",
      "Received MIDI message: note_on channel=1 note=52 velocity=0 time=0\n",
      "Received MIDI message: note_on channel=1 note=100 velocity=107 time=0\n",
      "Received MIDI message: note_on channel=1 note=100 velocity=0 time=0\n",
      "Received MIDI message: note_on channel=1 note=100 velocity=97 time=0\n",
      "Received MIDI message: note_on channel=1 note=100 velocity=0 time=0\n",
      "Received MIDI message: note_on channel=1 note=100 velocity=119 time=0\n",
      "Received MIDI message: note_on channel=1 note=86 velocity=16 time=0\n",
      "Received MIDI message: note_on channel=1 note=100 velocity=0 time=0\n",
      "Received MIDI message: note_on channel=1 note=52 velocity=99 time=0\n",
      "Received MIDI message: note_on channel=1 note=52 velocity=0 time=0\n",
      "Received MIDI message: note_on channel=1 note=52 velocity=93 time=0\n",
      "Received MIDI message: note_on channel=1 note=52 velocity=0 time=0\n",
      "Received MIDI message: note_on channel=1 note=52 velocity=102 time=0\n",
      "Received MIDI message: note_on channel=1 note=52 velocity=0 time=0\n",
      "Received MIDI message: note_on channel=1 note=52 velocity=73 time=0\n",
      "Received MIDI message: note_on channel=1 note=52 velocity=0 time=0\n",
      "Received MIDI message: note_on channel=1 note=52 velocity=87 time=0\n",
      "Received MIDI message: note_on channel=1 note=52 velocity=0 time=0\n",
      "Received MIDI message: note_on channel=0 note=76 velocity=48 time=0\n",
      "Received MIDI message: note_on channel=0 note=76 velocity=0 time=0\n",
      "Received MIDI message: note_on channel=0 note=76 velocity=99 time=0\n",
      "Received MIDI message: note_on channel=0 note=76 velocity=0 time=0\n",
      "Received MIDI message: note_on channel=0 note=76 velocity=98 time=0\n",
      "Received MIDI message: note_on channel=0 note=76 velocity=0 time=0\n",
      "Received MIDI message: note_on channel=1 note=86 velocity=0 time=0\n",
      "Received MIDI message: note_on channel=1 note=52 velocity=106 time=0\n",
      "Received MIDI message: note_on channel=1 note=52 velocity=0 time=0\n",
      "Received MIDI message: note_on channel=1 note=52 velocity=100 time=0\n",
      "Received MIDI message: note_on channel=1 note=52 velocity=0 time=0\n",
      "Received MIDI message: note_on channel=1 note=86 velocity=25 time=0\n",
      "Received MIDI message: note_on channel=1 note=100 velocity=95 time=0\n",
      "Received MIDI message: note_on channel=1 note=100 velocity=0 time=0\n",
      "Received MIDI message: note_on channel=1 note=100 velocity=89 time=0\n",
      "Received MIDI message: note_on channel=1 note=100 velocity=0 time=0\n",
      "Received MIDI message: note_on channel=0 note=77 velocity=82 time=0\n",
      "Received MIDI message: note_on channel=1 note=86 velocity=0 time=0\n",
      "Received MIDI message: note_on channel=0 note=77 velocity=0 time=0\n",
      "Received MIDI message: note_on channel=0 note=84 velocity=82 time=0\n",
      "Received MIDI message: note_on channel=0 note=83 velocity=103 time=0\n",
      "Received MIDI message: note_on channel=0 note=81 velocity=32 time=0\n",
      "Received MIDI message: note_on channel=0 note=77 velocity=81 time=0\n",
      "Received MIDI message: note_on channel=0 note=62 velocity=16 time=0\n",
      "Received MIDI message: note_on channel=0 note=76 velocity=110 time=0\n",
      "Received MIDI message: note_on channel=0 note=84 velocity=0 time=0\n",
      "Received MIDI message: note_on channel=0 note=83 velocity=0 time=0\n",
      "Received MIDI message: note_on channel=0 note=77 velocity=0 time=0\n",
      "Received MIDI message: note_on channel=0 note=79 velocity=107 time=0\n",
      "Received MIDI message: note_on channel=0 note=81 velocity=0 time=0\n",
      "Received MIDI message: note_on channel=0 note=74 velocity=100 time=0\n",
      "Received MIDI message: note_on channel=0 note=76 velocity=0 time=0\n",
      "Received MIDI message: note_on channel=0 note=77 velocity=111 time=0\n",
      "Received MIDI message: note_on channel=0 note=79 velocity=0 time=0\n",
      "Received MIDI message: note_on channel=0 note=72 velocity=107 time=0\n",
      "Received MIDI message: note_on channel=0 note=74 velocity=0 time=0\n",
      "Received MIDI message: note_on channel=0 note=77 velocity=0 time=0\n",
      "Received MIDI message: note_on channel=0 note=71 velocity=107 time=0\n",
      "Received MIDI message: note_on channel=0 note=72 velocity=0 time=0\n",
      "Received MIDI message: note_on channel=0 note=69 velocity=80 time=0\n",
      "Received MIDI message: note_on channel=0 note=71 velocity=0 time=0\n",
      "Received MIDI message: note_on channel=0 note=67 velocity=87 time=0\n",
      "Received MIDI message: note_on channel=0 note=69 velocity=0 time=0\n",
      "Received MIDI message: note_on channel=0 note=67 velocity=0 time=0\n",
      "Received MIDI message: note_on channel=0 note=65 velocity=31 time=0\n",
      "Received MIDI message: note_on channel=0 note=62 velocity=0 time=0\n",
      "Received MIDI message: note_on channel=0 note=65 velocity=0 time=0\n",
      "Received MIDI message: note_on channel=0 note=60 velocity=124 time=0\n",
      "Received MIDI message: note_on channel=0 note=65 velocity=127 time=0\n",
      "Received MIDI message: note_on channel=0 note=67 velocity=127 time=0\n",
      "Received MIDI message: note_on channel=0 note=62 velocity=74 time=0\n",
      "Received MIDI message: note_on channel=0 note=64 velocity=110 time=0\n",
      "Received MIDI message: note_on channel=0 note=64 velocity=0 time=0\n",
      "Received MIDI message: note_on channel=0 note=69 velocity=127 time=0\n",
      "Received MIDI message: note_on channel=0 note=74 velocity=109 time=0\n",
      "Received MIDI message: note_on channel=0 note=72 velocity=111 time=0\n",
      "Received MIDI message: note_on channel=0 note=76 velocity=110 time=0\n",
      "Received MIDI message: note_on channel=0 note=67 velocity=0 time=0\n",
      "Received MIDI message: note_on channel=0 note=65 velocity=0 time=0\n",
      "Received MIDI message: note_on channel=0 note=62 velocity=0 time=0\n",
      "Received MIDI message: note_on channel=0 note=60 velocity=0 time=0\n",
      "Received MIDI message: note_on channel=0 note=74 velocity=0 time=0\n",
      "Received MIDI message: note_on channel=0 note=72 velocity=0 time=0\n",
      "Received MIDI message: note_on channel=0 note=69 velocity=0 time=0\n",
      "Received MIDI message: note_on channel=0 note=76 velocity=0 time=0\n",
      "Received MIDI message: note_on channel=0 note=79 velocity=125 time=0\n",
      "Received MIDI message: note_on channel=0 note=81 velocity=110 time=0\n",
      "Received MIDI message: note_on channel=0 note=74 velocity=111 time=0\n",
      "Received MIDI message: note_on channel=0 note=81 velocity=0 time=0\n",
      "Received MIDI message: note_on channel=0 note=77 velocity=35 time=0\n",
      "Received MIDI message: note_on channel=0 note=74 velocity=0 time=0\n",
      "Received MIDI message: note_on channel=0 note=77 velocity=0 time=0\n",
      "Received MIDI message: note_on channel=0 note=79 velocity=0 time=0\n",
      "Received MIDI message: note_on channel=0 note=64 velocity=127 time=0\n",
      "Received MIDI message: note_on channel=0 note=67 velocity=124 time=0\n",
      "Received MIDI message: note_on channel=0 note=67 velocity=0 time=0\n",
      "Received MIDI message: note_on channel=0 note=67 velocity=28 time=0\n",
      "Received MIDI message: note_on channel=0 note=67 velocity=0 time=0\n",
      "Received MIDI message: note_on channel=0 note=64 velocity=0 time=0\n",
      "Received MIDI message: note_on channel=0 note=71 velocity=127 time=0\n",
      "Received MIDI message: note_on channel=0 note=71 velocity=0 time=0\n",
      "Received MIDI message: note_on channel=1 note=48 velocity=122 time=0\n",
      "Received MIDI message: note_on channel=1 note=48 velocity=0 time=0\n",
      "Received MIDI message: note_on channel=0 note=72 velocity=120 time=0\n",
      "Received MIDI message: note_on channel=0 note=72 velocity=0 time=0\n",
      "Received MIDI message: note_on channel=0 note=72 velocity=126 time=0\n",
      "Received MIDI message: note_on channel=0 note=72 velocity=0 time=0\n",
      "Received MIDI message: note_on channel=0 note=67 velocity=127 time=0\n",
      "Received MIDI message: note_on channel=0 note=79 velocity=125 time=0\n",
      "Received MIDI message: note_on channel=0 note=76 velocity=126 time=0\n",
      "Received MIDI message: note_on channel=0 note=76 velocity=0 time=0\n",
      "Received MIDI message: note_on channel=0 note=67 velocity=0 time=0\n",
      "Received MIDI message: note_on channel=0 note=79 velocity=0 time=0\n",
      "Received MIDI message: note_on channel=0 note=60 velocity=96 time=0\n",
      "Received MIDI message: note_on channel=0 note=67 velocity=127 time=0\n",
      "Received MIDI message: note_on channel=0 note=83 velocity=119 time=0\n",
      "Received MIDI message: note_on channel=0 note=74 velocity=114 time=0\n",
      "Received MIDI message: note_on channel=0 note=79 velocity=122 time=0\n",
      "Received MIDI message: note_on channel=0 note=79 velocity=0 time=0\n",
      "Received MIDI message: note_on channel=0 note=74 velocity=0 time=0\n",
      "Received MIDI message: note_on channel=0 note=64 velocity=21 time=0\n",
      "Received MIDI message: note_on channel=0 note=83 velocity=0 time=0\n",
      "Received MIDI message: note_on channel=0 note=64 velocity=0 time=0\n",
      "Received MIDI message: note_on channel=0 note=67 velocity=0 time=0\n",
      "Received MIDI message: note_on channel=0 note=60 velocity=0 time=0\n",
      "Received MIDI message: note_on channel=0 note=84 velocity=37 time=0\n",
      "Received MIDI message: note_on channel=0 note=83 velocity=33 time=0\n",
      "Received MIDI message: note_on channel=0 note=84 velocity=0 time=0\n",
      "Received MIDI message: note_on channel=0 note=83 velocity=0 time=0\n",
      "Received MIDI message: note_on channel=1 note=107 velocity=103 time=0\n",
      "Received MIDI message: note_on channel=0 note=76 velocity=62 time=0\n",
      "Received MIDI message: note_on channel=0 note=76 velocity=0 time=0\n",
      "Received MIDI message: note_on channel=1 note=107 velocity=0 time=0\n",
      "Received MIDI message: note_on channel=0 note=72 velocity=90 time=0\n",
      "Received MIDI message: note_on channel=0 note=62 velocity=60 time=0\n",
      "Received MIDI message: note_on channel=0 note=79 velocity=89 time=0\n",
      "Received MIDI message: note_on channel=0 note=74 velocity=45 time=0\n",
      "Received MIDI message: note_on channel=0 note=81 velocity=89 time=0\n",
      "Received MIDI message: note_on channel=0 note=69 velocity=17 time=0\n",
      "Received MIDI message: note_on channel=0 note=65 velocity=56 time=0\n",
      "Received MIDI message: note_on channel=0 note=67 velocity=58 time=0\n",
      "Received MIDI message: note_on channel=0 note=74 velocity=0 time=0\n",
      "Received MIDI message: note_on channel=0 note=79 velocity=0 time=0\n",
      "Received MIDI message: note_on channel=0 note=72 velocity=0 time=0\n",
      "Received MIDI message: note_on channel=0 note=81 velocity=0 time=0\n",
      "Received MIDI message: note_on channel=0 note=67 velocity=0 time=0\n",
      "Received MIDI message: note_on channel=0 note=65 velocity=0 time=0\n",
      "Received MIDI message: note_on channel=0 note=69 velocity=0 time=0\n",
      "Received MIDI message: note_on channel=0 note=62 velocity=0 time=0\n",
      "Received MIDI message: note_on channel=0 note=72 velocity=107 time=0\n",
      "Received MIDI message: note_on channel=0 note=81 velocity=77 time=0\n",
      "Received MIDI message: note_on channel=0 note=79 velocity=49 time=0\n",
      "Received MIDI message: note_on channel=0 note=76 velocity=53 time=0\n",
      "Received MIDI message: note_on channel=0 note=77 velocity=36 time=0\n",
      "Received MIDI message: note_on channel=0 note=79 velocity=0 time=0\n",
      "Received MIDI message: note_on channel=0 note=77 velocity=0 time=0\n",
      "Received MIDI message: note_on channel=0 note=76 velocity=0 time=0\n",
      "Received MIDI message: note_on channel=0 note=81 velocity=0 time=0\n",
      "Received MIDI message: note_on channel=0 note=72 velocity=0 time=0\n",
      "Received MIDI message: note_on channel=0 note=72 velocity=93 time=0\n",
      "Received MIDI message: note_on channel=0 note=76 velocity=77 time=0\n",
      "Received MIDI message: note_on channel=0 note=77 velocity=92 time=0\n",
      "Received MIDI message: note_on channel=0 note=77 velocity=0 time=0\n",
      "Received MIDI message: note_on channel=0 note=76 velocity=0 time=0\n",
      "Received MIDI message: note_on channel=0 note=72 velocity=0 time=0\n",
      "Received MIDI message: note_on channel=0 note=62 velocity=73 time=0\n",
      "Received MIDI message: note_on channel=0 note=60 velocity=62 time=0\n",
      "Received MIDI message: note_on channel=0 note=71 velocity=127 time=0\n",
      "Received MIDI message: note_on channel=0 note=67 velocity=39 time=0\n",
      "Received MIDI message: note_on channel=0 note=79 velocity=35 time=0\n",
      "Received MIDI message: note_on channel=0 note=64 velocity=16 time=0\n",
      "Received MIDI message: note_on channel=0 note=77 velocity=16 time=0\n",
      "Received MIDI message: note_on channel=0 note=77 velocity=0 time=0\n",
      "Received MIDI message: note_on channel=0 note=71 velocity=0 time=0\n",
      "Received MIDI message: note_on channel=0 note=79 velocity=0 time=0\n",
      "Received MIDI message: note_on channel=0 note=64 velocity=0 time=0\n",
      "Received MIDI message: note_on channel=0 note=62 velocity=0 time=0\n",
      "Received MIDI message: note_on channel=0 note=60 velocity=0 time=0\n",
      "Received MIDI message: note_on channel=0 note=67 velocity=0 time=0\n",
      "Received MIDI message: note_on channel=0 note=83 velocity=112 time=0\n",
      "Received MIDI message: note_on channel=0 note=74 velocity=93 time=0\n",
      "Received MIDI message: note_on channel=0 note=72 velocity=76 time=0\n",
      "Received MIDI message: note_on channel=0 note=81 velocity=93 time=0\n",
      "Received MIDI message: note_on channel=0 note=72 velocity=0 time=0\n",
      "Received MIDI message: note_on channel=0 note=74 velocity=0 time=0\n",
      "Received MIDI message: note_on channel=0 note=81 velocity=0 time=0\n",
      "Received MIDI message: note_on channel=0 note=83 velocity=0 time=0\n",
      "Received MIDI message: note_on channel=0 note=80 velocity=112 time=0\n",
      "Received MIDI message: note_on channel=0 note=76 velocity=105 time=0\n",
      "Received MIDI message: note_on channel=0 note=83 velocity=81 time=0\n",
      "Received MIDI message: note_on channel=0 note=79 velocity=39 time=0\n",
      "Received MIDI message: note_on channel=0 note=80 velocity=0 time=0\n",
      "Received MIDI message: note_on channel=0 note=79 velocity=0 time=0\n",
      "Received MIDI message: note_on channel=0 note=76 velocity=0 time=0\n",
      "Received MIDI message: note_on channel=0 note=83 velocity=0 time=0\n",
      "Received MIDI message: note_on channel=0 note=80 velocity=13 time=0\n",
      "Received MIDI message: note_on channel=0 note=75 velocity=24 time=0\n",
      "Received MIDI message: note_on channel=0 note=61 velocity=65 time=0\n",
      "Received MIDI message: note_on channel=0 note=73 velocity=25 time=0\n",
      "Received MIDI message: note_on channel=0 note=63 velocity=30 time=0\n",
      "Received MIDI message: note_on channel=0 note=73 velocity=0 time=0\n",
      "Received MIDI message: note_on channel=0 note=61 velocity=0 time=0\n",
      "Received MIDI message: note_on channel=0 note=63 velocity=0 time=0\n",
      "Received MIDI message: note_on channel=0 note=75 velocity=0 time=0\n",
      "Received MIDI message: note_on channel=0 note=80 velocity=0 time=0\n",
      "\n",
      "Exiting MIDI listener.\n"
     ]
    }
   ],
   "source": [
    "def on_midi_message(message):\n",
    "    print(f\"Received MIDI message: {message}\")\n",
    "\n",
    "# Replace 'Your_MIDI_Keyboard_Name' with the actual name of your MIDI keyboard\n",
    "input_port = mido.open_input(keyboard_name, callback=on_midi_message)\n",
    "\n",
    "try:\n",
    "    print(f\"Listening for MIDI input from {keyboard_name}. Press Ctrl+C to exit.\")\n",
    "    while True:\n",
    "        # The callback function on_midi_message will be called for each received MIDI message\n",
    "        pass\n",
    "except KeyboardInterrupt:\n",
    "    print(\"\\nExiting MIDI listener.\")\n",
    "finally:\n",
    "    input_port.close()"
   ]
  },
  {
   "cell_type": "code",
   "execution_count": 6,
   "metadata": {},
   "outputs": [
    {
     "name": "stdout",
     "output_type": "stream",
     "text": [
      "Available MIDI Input Ports:\n",
      "0: Impact GX Mini MIDI1\n",
      "1: Impact GX Mini MIDI2\n",
      "2: Virtuele uitgang GarageBand\n"
     ]
    }
   ],
   "source": [
    "def print_available_ports():\n",
    "    print(\"Available MIDI Input Ports:\")\n",
    "    for port, name in enumerate(mido.get_input_names()):\n",
    "        print(f\"{port}: {name}\")\n",
    "\n",
    "# Call the function to print available ports\n",
    "print_available_ports()"
   ]
  },
  {
   "cell_type": "code",
   "execution_count": null,
   "metadata": {},
   "outputs": [],
   "source": []
  }
 ],
 "metadata": {
  "kernelspec": {
   "display_name": "Python 3",
   "language": "python",
   "name": "python3"
  },
  "language_info": {
   "codemirror_mode": {
    "name": "ipython",
    "version": 3
   },
   "file_extension": ".py",
   "mimetype": "text/x-python",
   "name": "python",
   "nbconvert_exporter": "python",
   "pygments_lexer": "ipython3",
   "version": "3.10.8"
  }
 },
 "nbformat": 4,
 "nbformat_minor": 2
}
